<svg width="41" height="41" viewBox="0 0 41 41" fill="none" xmlns="http://www.w3.org/2000/svg">
<g clip-path="url(#clip0_45_114)">
<path d="M36.2785 34.4136C36.1184 33.813 35.8919 33.2737 35.6116 32.7933C35.1211 31.9512 34.4705 31.2956 33.7536 30.7751C33.2168 30.3847 32.6412 30.0681 32.0582 29.7941C31.1823 29.3837 30.2864 29.0684 29.4606 28.7631C28.6335 28.459 27.8766 28.16 27.2909 27.8135C27.0757 27.6871 26.8818 27.5545 26.7141 27.4168C26.4639 27.2066 26.2712 26.9851 26.1298 26.7362C25.9884 26.4872 25.8933 26.2081 25.8571 25.8578C25.8308 25.6088 25.8195 25.3723 25.8195 25.1496C25.8195 24.4889 25.9171 23.9146 26.041 23.3291C26.4114 22.9112 26.7492 22.4144 27.0695 21.8189C27.3898 21.2233 27.6952 20.5239 27.998 19.6968C28.1932 19.608 28.3883 19.5016 28.581 19.374C29.0177 19.0787 29.4318 18.6709 29.7772 18.1253C30.1226 17.5797 30.4003 16.9016 30.5893 16.0646C30.6418 15.833 30.6669 15.6016 30.6669 15.3752C30.6669 14.8997 30.5555 14.4467 30.3666 14.0426C30.2365 13.7636 30.0701 13.5058 29.8761 13.2718C29.9749 12.9077 30.095 12.416 30.2015 11.8417C30.3491 11.0434 30.4717 10.0862 30.4717 9.07654C30.4717 8.42718 30.4217 7.75653 30.2891 7.09212C30.189 6.59539 30.0451 6.10243 29.8386 5.62941C29.5308 4.92 29.0829 4.25183 28.4586 3.70001C27.8818 3.18823 27.1586 2.78288 26.2864 2.52014C25.9174 2.07843 25.5357 1.7043 25.1416 1.39032C24.4784 0.86108 23.7802 0.505693 23.0683 0.291725C22.3563 0.0777559 21.6355 0 20.916 0C20.5369 0 20.159 0.0213008 19.7787 0.0550938C19.4233 0.0876055 19.128 0.123881 18.864 0.168965C18.4686 0.23527 18.1433 0.322875 17.828 0.431701C17.5114 0.540527 17.2073 0.668172 16.8082 0.824564C16.6568 0.884623 16.4592 0.972229 16.2189 1.09355C15.801 1.30375 15.2605 1.61654 14.685 2.04696C13.8191 2.69135 12.8632 3.60352 12.12 4.8372C11.7471 5.45284 11.4293 6.15096 11.2053 6.93052C10.9801 7.71256 10.8499 8.5734 10.8499 9.51552C10.8499 10.1011 10.9025 10.7217 11.0101 11.3711C11.0101 11.4162 11.0126 11.4612 11.0151 11.5037C11.0202 11.5838 11.0289 11.6689 11.0376 11.7564C11.0514 11.8853 11.0664 12.0192 11.0777 12.1318C11.0839 12.1869 11.089 12.237 11.0927 12.277C11.0927 12.2958 11.094 12.3121 11.0952 12.3246V12.3371V12.3408V12.3421V12.416L11.2541 13.1229C11.0264 13.3718 10.8286 13.6521 10.6748 13.9587C10.4608 14.3867 10.3332 14.8671 10.3345 15.3764C10.3345 15.6016 10.3583 15.833 10.4108 16.0646C10.5372 16.6238 10.7024 17.1118 10.9013 17.5347C11.1991 18.1728 11.5744 18.6683 11.9923 19.0412C12.3151 19.3302 12.6605 19.5417 13.0033 19.6981C13.3061 20.5239 13.6102 21.2221 13.9318 21.8189C14.2508 22.4145 14.5886 22.91 14.959 23.3279C15.0816 23.9122 15.1805 24.4877 15.1805 25.1497C15.1805 25.3736 15.1705 25.6088 15.1442 25.8579C15.1192 26.0981 15.0654 26.3058 14.989 26.4935C14.8752 26.7725 14.71 27.0103 14.4835 27.2367C14.2582 27.4594 13.9692 27.6672 13.6289 27.8611C13.2823 28.0575 12.8819 28.2402 12.4453 28.4167C11.6808 28.7257 10.8112 29.0186 9.92776 29.3689C9.26464 29.6342 8.59519 29.9345 7.95584 30.3123C7.47665 30.5938 7.01492 30.9204 6.59075 31.3095C5.95637 31.8888 5.40712 32.6145 5.02923 33.5141C4.64886 34.4113 4.43737 35.4736 4.43865 36.7298C4.43865 36.9062 4.47621 37.0763 4.53747 37.2315C4.59504 37.3767 4.67264 37.5131 4.76521 37.6382C4.93914 37.8759 5.1656 38.0873 5.44091 38.2926C5.92514 38.6504 6.56825 38.9845 7.40154 39.2998C8.65028 39.7702 10.3244 40.1919 12.4878 40.501C14.6499 40.8075 17.3025 41.0002 20.5006 41.0002C23.2709 41.0002 25.6344 40.855 27.6226 40.616C29.1154 40.4383 30.3966 40.2056 31.4851 39.9403C32.301 39.7401 33.0079 39.5212 33.6147 39.291C34.0702 39.1195 34.4706 38.9406 34.8172 38.7554C35.0761 38.6153 35.3076 38.4751 35.5103 38.3275C35.8157 38.1073 36.0596 37.8795 36.2461 37.6217C36.3375 37.4929 36.4162 37.3552 36.4725 37.2076C36.5276 37.0587 36.5614 36.896 36.5614 36.7296C36.5613 35.87 36.4625 35.1018 36.2785 34.4136ZM19.1018 35.0179L14.3747 28.9745C14.6211 28.8306 14.8551 28.6742 15.0741 28.499C15.3093 28.3101 15.5258 28.1011 15.716 27.8633L19.1531 29.4587L18.4199 30.6823L19.556 31.8873L19.1018 35.0179ZM16.2027 27.0564C16.3415 26.7323 16.4367 26.3782 16.4742 25.9954C16.5055 25.7 16.5193 25.4173 16.5193 25.1495C16.5193 24.2736 16.3741 23.5354 16.2303 22.8673L16.189 22.6858L16.0613 22.5506C15.7373 22.2078 15.4245 21.7686 15.1104 21.1855C14.7976 20.6012 14.4848 19.8743 14.1633 18.9683L14.0581 18.6718L13.7628 18.563C13.5575 18.4879 13.3586 18.3915 13.1672 18.2627C12.8794 18.0675 12.6053 17.8035 12.3539 17.4094C12.1036 17.0152 11.8784 16.486 11.7157 15.7703C11.6857 15.6339 11.6719 15.5025 11.6719 15.3761C11.6719 15.0896 11.742 14.8181 11.8721 14.5566C11.9798 14.3414 12.1299 14.1362 12.3126 13.9535C12.6204 14.419 12.8731 14.7868 12.967 14.8782C13.2673 15.1798 13.1734 15.0871 13.2735 14.9383C13.2735 14.9383 13.6151 14.4578 15.4218 10.9431C19.0367 11.7463 25.3528 6.31728 25.3528 6.31728C25.3528 6.31728 25.4291 8.07027 26.6341 9.6768C27.7765 11.2008 28.4283 14.778 28.4283 14.778C28.4283 14.778 28.5835 14.484 28.8149 14.0886C28.9538 14.2501 29.0689 14.4252 29.1528 14.6067C29.2679 14.8531 29.328 15.1084 29.328 15.3749C29.328 15.5026 29.3142 15.6339 29.2842 15.7691C29.1753 16.2458 29.0402 16.6412 28.8863 16.9665C28.6573 17.457 28.3933 17.7935 28.1168 18.0413C27.839 18.289 27.545 18.4504 27.2384 18.5631L26.9431 18.6707L26.8379 18.9672C26.5163 19.8743 26.2036 20.6026 25.8908 21.1856C25.5767 21.7712 25.2626 22.2091 24.9386 22.552L24.8109 22.6872L24.7709 22.8698C24.6257 23.5355 24.4806 24.275 24.4806 25.1496C24.4806 25.4174 24.4944 25.7001 24.5244 25.9954C24.5607 26.3433 24.6396 26.6686 24.7597 26.9689C24.7647 26.9826 24.771 26.9964 24.7772 27.0089L20.7096 29.1484L16.2027 27.0564ZM22.2261 35.2369L21.7394 31.8874L22.8767 30.6824L22.141 29.4537L25.2502 27.8196C25.3366 27.931 25.4266 28.0374 25.5243 28.1362C25.8333 28.4527 26.1887 28.7143 26.5703 28.942L22.2261 35.2369Z" fill="#4B4B4B"/>
</g>
<defs>
<clipPath id="clip0_45_114">
<rect width="41" height="41" fill="white"/>
</clipPath>
</defs>
</svg>
