<svg width="44" height="44" viewBox="0 0 44 44" fill="none" xmlns="http://www.w3.org/2000/svg">
<g clip-path="url(#clip0_44_89)">
<path d="M22 44C9.84912 44 0 34.1502 0 22C0 9.84981 9.84912 0 22 0C34.1495 0 44 9.84981 44 22C44 34.1502 34.1495 44 22 44ZM32.3317 21.1593L20.9956 12.9754C20.6767 12.7692 20.2632 12.7773 19.9531 12.9965C19.6417 13.2156 19.4948 13.6012 19.5807 13.9717L20.5172 17.9784H12.8401C12.0966 17.9784 11.4925 18.5811 11.4925 19.3259V24.674C11.4925 25.4188 12.0965 26.0215 12.8401 26.0215H20.5172L19.5807 30.0282C19.4948 30.3988 19.6417 30.7843 19.9531 31.0034C20.2632 31.2226 20.6766 31.2301 20.9956 31.024L32.3317 22.8406C32.6021 22.645 32.7615 22.3325 32.7615 21.9999C32.7615 21.6673 32.6021 21.3543 32.3317 21.1593Z" fill="#00331D"/>
</g>
<defs>
<clipPath id="clip0_44_89">
<rect width="44" height="44" fill="white" transform="matrix(1 0 0 -1 0 44)"/>
</clipPath>
</defs>
</svg>
