<svg width="41" height="41" viewBox="0 0 41 41" fill="none" xmlns="http://www.w3.org/2000/svg">
<path d="M7.13446 35.4221C7.27083 34.9129 7.4623 34.4561 7.70005 34.0495C8.1155 33.335 8.66603 32.7807 9.27286 32.3391C9.72835 32.0087 10.2163 31.741 10.7093 31.5083C11.4513 31.1617 12.2108 30.8952 12.9102 30.6361C13.6096 30.3771 14.2502 30.1243 14.747 29.8316C14.9297 29.724 15.0936 29.6114 15.235 29.4937C15.4477 29.316 15.6129 29.1296 15.7317 28.9181C15.8518 28.7066 15.9306 28.4702 15.9632 28.1724C15.9845 27.9622 15.9945 27.7632 15.9945 27.5743C15.9945 27.0137 15.912 26.5282 15.8068 26.0315C15.4928 25.6787 15.2063 25.2582 14.936 24.754C14.6632 24.2485 14.4055 23.6554 14.149 22.9547C13.9838 22.8809 13.8174 22.7908 13.6547 22.682C13.2857 22.4317 12.934 22.0863 12.6413 21.6234C12.3485 21.1617 12.1145 20.5886 11.9544 19.8792C11.9093 19.6815 11.8881 19.4864 11.8881 19.2962C11.8881 18.8933 11.9819 18.5079 12.1421 18.1664C12.2535 17.9299 12.3948 17.7109 12.5587 17.5132C12.4736 17.2042 12.3723 16.7888 12.2822 16.3021C12.157 15.6252 12.0533 14.8144 12.0533 13.9598C12.0533 13.4092 12.0958 12.8412 12.2084 12.2794C12.2923 11.859 12.4162 11.4411 12.5901 11.0395C12.8504 10.4376 13.2307 9.87211 13.7588 9.40542C14.2468 8.97123 14.8598 8.62714 15.5981 8.40572C15.7057 8.27808 15.8145 8.15676 15.9246 8.0416C15.8921 7.83516 15.8746 7.62248 15.8746 7.40723C15.8746 6.12349 16.4676 4.97982 17.3936 4.22909C17.1847 3.82998 17.0657 3.37449 17.0657 2.89026C17.0653 1.29374 18.3579 0 19.9557 0C21.5523 0 22.8472 1.29374 22.8472 2.89034C22.8472 3.37457 22.7271 3.82998 22.5169 4.22917C23.3815 4.92737 23.9545 5.97087 24.0284 7.14825C24.0597 7.16331 24.0935 7.17956 24.1272 7.19702C24.4813 7.3772 24.938 7.63993 25.4272 8.00533C26.1592 8.5509 26.9674 9.32285 27.5993 10.3676C27.9134 10.8906 28.1836 11.4812 28.3725 12.1431C28.5627 12.8025 28.6741 13.5332 28.6741 14.3303C28.6741 14.8283 28.6303 15.3526 28.5377 15.9031C28.5377 15.9419 28.5365 15.9782 28.534 16.0145C28.5302 16.0833 28.5227 16.1559 28.5152 16.2298C28.5052 16.3386 28.4902 16.4525 28.4802 16.5476C28.4764 16.5951 28.4726 16.6377 28.4689 16.6715C28.4676 16.6865 28.4676 16.7015 28.4664 16.7115L28.4651 16.7215V16.7253V16.7891L28.3312 17.3872C28.5239 17.5987 28.6929 17.8352 28.823 18.0966C29.0032 18.457 29.112 18.8649 29.112 19.2965C29.112 19.4867 29.0907 19.6844 29.0457 19.8796C28.938 20.3525 28.7992 20.7642 28.6315 21.1245C28.3788 21.6638 28.0597 22.0855 27.7068 22.4008C27.4315 22.6448 27.1401 22.825 26.8498 22.9564C26.5933 23.6558 26.3368 24.2477 26.064 24.7519C25.7937 25.2574 25.5072 25.6779 25.1931 26.0307C25.088 26.5274 25.0054 27.0141 25.0054 27.5747C25.0054 27.7636 25.0154 27.9626 25.0367 28.1752V28.1728C25.0592 28.378 25.103 28.5544 25.1681 28.7133C25.2645 28.9498 25.4046 29.1512 25.5961 29.3426C25.7875 29.5315 26.0315 29.708 26.3205 29.8719C26.6146 30.0371 26.9536 30.1922 27.3228 30.3423C27.9697 30.6051 28.7079 30.8515 29.4549 31.1493C30.0167 31.3733 30.5835 31.6273 31.1252 31.9464C31.5307 32.1866 31.9222 32.4619 32.2814 32.7922C32.8194 33.2852 33.2836 33.8984 33.6052 34.6591C33.9267 35.4198 34.1044 36.3194 34.1044 37.383C34.1044 37.5319 34.0731 37.6771 34.0205 37.8072C33.973 37.9324 33.9067 38.045 33.8279 38.1538C33.6802 38.354 33.49 38.5342 33.256 38.7081C32.8456 39.0109 32.3 39.2937 31.5944 39.5602C30.5383 39.9593 29.1207 40.3172 27.2877 40.5774C25.4547 40.8377 23.2089 41 20.5 41C18.1526 41 16.1507 40.8774 14.4666 40.6759C13.2029 40.5245 12.1168 40.3281 11.1947 40.1029C10.504 39.934 9.90468 39.7488 9.39042 39.5536C9.005 39.4084 8.66595 39.2558 8.37318 39.0994C8.15297 38.9806 7.95774 38.8617 7.78509 38.7378C7.52732 38.5514 7.3184 38.3574 7.162 38.1397C7.08441 38.0296 7.0181 37.9144 6.97054 37.7869C6.92425 37.6617 6.89543 37.5241 6.89543 37.3827C6.89543 36.6558 6.97806 36.0051 7.13446 35.4221ZM24.8017 14.1976C21.74 14.877 16.3897 11.6226 16.3897 11.6226C16.3897 11.6226 16.3246 13.1078 15.3049 14.4692C14.8958 15.0134 14.5629 15.8656 14.3127 16.6713C14.369 16.5236 14.5279 16.4686 14.7794 16.436C15.3049 16.366 16.0844 16.3209 16.9615 16.3635C19.5703 16.4898 19.3763 16.7263 20.3999 16.7263C21.4234 16.7263 21.2307 16.4898 23.8383 16.3635C24.7167 16.321 25.4949 16.366 26.0217 16.436C26.1143 16.4485 26.1919 16.4661 26.2594 16.4861C25.9366 16.0895 25.4535 15.4664 24.8017 14.1976ZM14.8182 18.2878C14.8195 18.3029 14.8307 19.7968 15.8467 20.3085C16.1933 20.4837 16.6262 20.5788 17.0666 20.5801C17.5321 20.5801 17.9588 20.4749 18.2978 20.2747C18.6732 20.0545 18.926 19.728 19.051 19.3063C19.0786 19.2087 19.1061 19.1098 19.1324 19.0135C19.2138 18.7232 19.4302 17.9149 18.971 17.5596C18.6744 17.3281 17.7547 17.1817 16.8739 17.1817C16.0731 17.1817 15.2573 17.2918 15.0183 17.5408C14.8607 17.7048 14.7994 18 14.8182 18.2878ZM21.6674 19.0136C21.6936 19.1099 21.7212 19.2088 21.7499 19.3064C21.8751 19.728 22.1265 20.0546 22.5019 20.2748C22.8423 20.475 23.2677 20.5802 23.7331 20.5802C24.1736 20.5789 24.6065 20.4838 24.953 20.3086C25.9703 19.7968 25.9816 18.3029 25.9816 18.2879C26.0016 18.0001 25.9402 17.7049 25.7839 17.541C25.5436 17.292 24.7266 17.1819 23.9258 17.1819C23.0449 17.1819 22.1265 17.3283 21.8287 17.5598C21.3695 17.915 21.586 18.7233 21.6674 19.0136ZM21.6849 35.9326L25.6888 30.8151C25.4811 30.6925 25.2822 30.5598 25.0957 30.4122C24.8968 30.2534 24.7141 30.0744 24.5514 29.8742L21.6399 31.2255L22.263 32.2603L21.2996 33.2813L21.6849 35.9326ZM24.1398 29.191C24.0221 28.9157 23.9433 28.6154 23.9095 28.2914V28.2901C23.8833 28.0398 23.872 27.8021 23.872 27.5743C23.872 26.8336 23.9946 26.2068 24.1185 25.6412L24.151 25.4873L24.2598 25.3721C24.5351 25.0818 24.7991 24.7115 25.0656 24.2159C25.3309 23.723 25.5949 23.1049 25.8677 22.3379L25.9565 22.0863L26.2067 21.9963C26.3807 21.9312 26.5484 21.8486 26.7123 21.741C26.955 21.5758 27.1878 21.3531 27.3992 21.0178C27.6119 20.6837 27.8033 20.2345 27.9397 19.6289C27.966 19.5138 27.9773 19.4037 27.9773 19.2961C27.9773 19.0534 27.9185 18.8232 27.8084 18.6017C27.717 18.4202 27.5895 18.2476 27.4355 18.0899C27.1753 18.4828 26.96 18.7956 26.8812 18.8731C26.7311 19.0246 26.6585 18.8731 26.6473 18.5878C26.5584 19.2084 26.2669 20.2419 25.3072 20.7524C23.9346 21.4806 21.8877 21.2079 21.1919 19.5862C20.8779 18.853 20.8729 18.1386 20.3999 18.1386C19.9269 18.1386 19.9219 18.853 19.6078 19.5862C18.9121 21.2078 16.8652 21.4806 15.4938 20.7524C14.1225 20.0243 14.1125 18.2199 14.1125 18.0923C14.1125 18.0285 14.0474 17.9847 13.9598 17.9735C13.846 18.4577 13.7846 18.788 13.7846 18.788C13.7846 18.788 13.6532 18.5378 13.4568 18.205C13.3391 18.3426 13.2415 18.4903 13.1703 18.6441C13.0739 18.853 13.0226 19.0683 13.0226 19.296C13.0226 19.4024 13.0339 19.5138 13.0589 19.6288C13.1502 20.0317 13.2666 20.3671 13.3954 20.6436C13.5907 21.0577 13.8146 21.343 14.0474 21.5532C14.2826 21.7634 14.5329 21.8998 14.7918 21.9949L15.0421 22.0863L15.1309 22.3378C15.4036 23.1048 15.6677 23.7229 15.9342 24.2171C16.2007 24.7114 16.4647 25.083 16.74 25.3745L16.8476 25.4884L16.8814 25.6423C17.0053 26.2079 17.1279 26.8335 17.1279 27.5742C17.1279 27.8019 17.1166 28.0397 17.0903 28.2911C17.059 28.5852 16.9927 28.8604 16.8914 29.1157C16.8877 29.127 16.8814 29.1382 16.8776 29.1508L20.3223 30.9612L24.1398 29.191ZM19.0373 36.1177L19.449 33.2812L18.4867 32.2602L19.1098 31.2205L16.476 29.8366C16.4034 29.9305 16.3258 30.0193 16.2445 30.1044C15.9829 30.3722 15.6814 30.5936 15.3586 30.7876L19.0373 36.1177Z" fill="#4B4B4B"/>
</svg>
