<svg width="30" height="30" viewBox="0 0 30 30" fill="none" xmlns="http://www.w3.org/2000/svg">
<g clip-path="url(#clip0_59_28)">
<path d="M8.95056 13.1252H12.4655C12.8298 13.1252 13.1251 12.8297 13.1251 12.4656V8.95043C13.1251 8.58627 13.4204 8.29102 13.7847 8.29102H16.2155C16.5798 8.29102 16.8751 8.58627 16.8751 8.95043V12.4656C16.8751 12.8297 17.1704 13.1252 17.5347 13.1252H21.0496C21.414 13.1252 21.7092 13.4205 21.7092 13.7849V16.2156C21.7092 16.5797 21.414 16.8752 21.0496 16.8752H17.5347C17.1704 16.8752 16.8751 17.1705 16.8751 17.5349V21.0496C16.8751 21.414 16.5798 21.7092 16.2155 21.7092H13.7847C13.4204 21.7092 13.1251 21.414 13.1251 21.0496V17.5349C13.1251 17.1705 12.8298 16.8752 12.4655 16.8752H8.95056C8.58628 16.8752 8.29091 16.5797 8.29091 16.2156V13.7849C8.29091 13.4205 8.58628 13.1252 8.95056 13.1252Z" fill="white"/>
<path d="M15 0C23.2844 0 30 6.71584 30 15C30 23.2844 23.2844 30 15 30C6.71584 30 0 23.2844 0 15C0 6.71584 6.71584 0 15 0ZM15 26.25C21.2034 26.25 26.25 21.2034 26.25 15C26.25 8.79686 21.2034 3.75 15 3.75C8.79686 3.75 3.75 8.79686 3.75 15C3.75 21.2034 8.79686 26.25 15 26.25Z" fill="white"/>
</g>
<defs>
<clipPath id="clip0_59_28">
<rect width="30" height="30" fill="white" transform="matrix(-1 0 0 1 30 0)"/>
</clipPath>
</defs>
</svg>
