<svg width="44" height="44" viewBox="0 0 44 44" fill="none" xmlns="http://www.w3.org/2000/svg">
<g clip-path="url(#clip0_44_98)">
<path d="M22 0C9.85041 0 0 9.84981 0 22C0 34.1502 9.85041 44 22 44C34.1508 44 44 34.1502 44 22C44 9.84981 34.1508 0 22 0ZM32.5074 24.674C32.5074 25.4188 31.9034 26.0215 31.1599 26.0215H23.4828L24.4193 30.0282C24.5053 30.3988 24.3583 30.7843 24.047 31.0034C23.7368 31.2226 23.3234 31.2301 23.0045 31.024L11.6683 22.8406C11.398 22.645 11.2386 22.3325 11.2386 21.9999C11.2386 21.6673 11.398 21.3542 11.6683 21.1592L23.0045 12.9753C23.3234 12.7691 23.7368 12.7772 24.047 12.9964C24.3583 13.2156 24.5053 13.6011 24.4193 13.9716L23.4828 17.9783H31.1599C31.9034 17.9783 32.5074 18.5811 32.5074 19.3258V24.674Z" fill="#00331D"/>
</g>
<defs>
<clipPath id="clip0_44_98">
<rect width="44" height="44" fill="white"/>
</clipPath>
</defs>
</svg>
