<svg width="27" height="27" viewBox="0 0 27 27" fill="none" xmlns="http://www.w3.org/2000/svg">
<g clip-path="url(#clip0_4308_78)">
<path d="M16.5811 8.0025L13.4997 11.0834L10.4188 8.0025L8.00244 10.4193L11.0833 13.5002L8.00244 16.5811L10.4188 18.998L13.4997 15.917L16.5811 18.998L18.9975 16.5811L15.9166 13.5002L18.9979 10.4193L16.5811 8.0025Z" fill="#333333"/>
<path d="M23.0458 3.95466C20.6072 1.51348 17.2234 -0.000421787 13.5002 8.81493e-08C9.77664 -0.000421787 6.39246 1.51348 3.95423 3.95466C1.51348 6.39288 -0.000896087 9.77664 3.97808e-07 13.5002C-0.000896087 17.2234 1.51348 20.6071 3.95423 23.0458C6.39241 25.4869 9.77658 27.0013 13.5002 27C17.2234 27.0013 20.6072 25.4869 23.0458 23.0458C25.4866 20.6071 27.0004 17.2234 27 13.5002C27.0004 9.77664 25.4866 6.39288 23.0458 3.95466ZM21.0267 21.0266C19.0959 22.9552 16.4436 24.1432 13.5002 24.1445C10.5559 24.1432 7.90414 22.9552 5.9738 21.0266C4.0452 19.0959 2.85683 16.4436 2.85594 13.5002C2.85678 10.5559 4.0452 7.90499 5.9738 5.9738C7.9042 4.04562 10.556 2.85678 13.5002 2.85636C16.4436 2.85678 19.0959 4.04562 21.0267 5.9738C22.9548 7.90504 24.1432 10.556 24.1441 13.5002C24.1432 16.4436 22.9548 19.0959 21.0267 21.0266Z" fill="#333333"/>
</g>
<defs>
<clipPath id="clip0_4308_78">
<rect width="27" height="27" fill="white"/>
</clipPath>
</defs>
</svg>
