<svg width="30" height="30" viewBox="0 0 30 30" fill="none" xmlns="http://www.w3.org/2000/svg">
<g clip-path="url(#clip0_59_24)">
<path d="M21.0803 13.125H8.9196C8.57226 13.125 8.29077 13.4065 8.29077 13.7537V16.246C8.29077 16.5932 8.57231 16.8749 8.9196 16.8749H21.0803C21.4276 16.8749 21.7091 16.5932 21.7091 16.246V13.7537C21.7091 13.4065 21.4275 13.125 21.0803 13.125Z" fill="white"/>
<path d="M15 0C6.71561 0 0 6.71584 0 15C0 23.2844 6.71561 30 15 30C23.2842 30 30 23.2844 30 15C30 6.71584 23.2842 0 15 0ZM15 26.25C8.79662 26.25 3.75 21.2034 3.75 15C3.75 8.79686 8.79662 3.75 15 3.75C21.2031 3.75 26.25 8.79686 26.25 15C26.25 21.2034 21.2031 26.25 15 26.25Z" fill="white"/>
</g>
<defs>
<clipPath id="clip0_59_24">
<rect width="30" height="30" fill="white"/>
</clipPath>
</defs>
</svg>
