<svg width="41" height="41" viewBox="0 0 41 41" fill="none" xmlns="http://www.w3.org/2000/svg">
<path d="M36.5794 34.4173C36.418 33.818 36.1903 33.2787 35.9088 32.8007C35.417 31.9586 34.7614 31.303 34.0395 30.7825C33.4989 30.3896 32.9184 30.0705 32.3278 29.7965C31.4432 29.3836 30.5385 29.0683 29.699 28.7642C28.8594 28.4602 28.0887 28.1649 27.4831 27.8233L27.4155 27.7845C27.1977 27.6594 27.0013 27.5268 26.8324 27.3879C26.5759 27.179 26.3795 26.9562 26.2343 26.7073C26.0904 26.4583 25.9954 26.178 25.9565 25.8264C25.9303 25.5799 25.919 25.5962 25.919 25.3472C25.919 24.6115 26.0241 23.8871 26.1467 23.2927C26.5246 22.8748 26.8687 22.3768 27.1928 21.7812C27.5193 21.1819 27.8296 20.4825 28.1387 19.6541C28.3376 19.564 28.5366 19.4589 28.7318 19.3288C29.1773 19.036 29.6002 18.6256 29.9505 18.0788C30.3033 17.5321 30.5862 16.8526 30.7788 16.0143C30.8326 15.7828 30.8589 15.5501 30.8589 15.3224C30.8589 14.8469 30.7438 14.394 30.5524 13.9873C30.4198 13.7083 30.2483 13.4506 30.0519 13.2153C30.1533 12.8499 30.2746 12.3582 30.3835 11.7814C30.5336 10.9831 30.6588 10.0222 30.6588 9.01367C30.6588 8.36056 30.6075 7.68734 30.4736 7.02421C30.3722 6.52621 30.2246 6.03076 30.0131 5.55774C29.6991 4.84577 29.2437 4.17639 28.6093 3.62338C28.0212 3.11039 27.2842 2.70376 26.3958 2.44222C26.0818 2.07186 25.7652 1.75651 25.4411 1.48881C25.1622 1.25859 24.8768 1.06336 24.5841 0.905764C24.1436 0.665529 23.6882 0.507855 23.2215 0.41024C22.7548 0.313906 22.2781 0.277631 21.785 0.277631C21.1044 0.280113 20.3874 0.345217 19.5978 0.421531C19.3 0.451561 19.0486 0.487836 18.8309 0.525393C18.5068 0.582969 18.2628 0.643027 18.0688 0.680584C17.97 0.700603 17.8849 0.715658 17.8023 0.723105C17.7172 0.735598 17.6371 0.740643 17.5421 0.740643C17.4195 0.740643 17.2743 0.730633 17.0879 0.703086C16.5123 0.620525 15.9843 0.492881 15.5714 0.367719C15.3649 0.306379 15.1872 0.245119 15.0458 0.192508C14.9757 0.167443 14.9144 0.142459 14.8669 0.122439C14.8181 0.10242 14.7793 0.0848828 14.7593 0.074873C14.6955 0.0423613 14.6341 0.0248242 14.5791 0.0135332C14.5255 0.00248242 14.4779 0 14.4354 0C14.3478 0 14.2865 0.0124922 14.2352 0.0250645C14.1876 0.0388379 14.1488 0.0526113 14.1138 0.0663848C14.0475 0.0926504 13.9974 0.121479 13.9474 0.151508C13.8522 0.20532 13.7647 0.26666 13.6709 0.33793C13.5069 0.463092 13.3243 0.618203 13.1328 0.800861C12.8463 1.07361 12.5372 1.40393 12.2582 1.76308C12.1193 1.94326 11.9867 2.13096 11.8691 2.32491C11.7515 2.52014 11.6476 2.71905 11.5638 2.92798C11.1609 3.96146 10.8918 4.91496 10.7267 5.79325C10.5603 6.67411 10.4952 7.47994 10.4952 8.21938C10.4952 9.42928 10.6678 10.4553 10.8331 11.3211C10.8331 11.3624 10.8343 11.4025 10.8381 11.4437C10.8431 11.5251 10.8506 11.6089 10.8594 11.6965C10.8732 11.8279 10.8894 11.9605 10.9019 12.0731C10.907 12.1294 10.9132 12.1794 10.9157 12.2182C10.917 12.237 10.9182 12.2545 10.9182 12.267L10.9195 12.2795V12.282V12.2833V12.3584L11.0809 13.0666C10.8507 13.3168 10.6467 13.5958 10.4903 13.9036C10.2726 14.3316 10.1437 14.8145 10.1437 15.3238C10.1437 15.5502 10.1688 15.7829 10.2225 16.0157V16.0144C10.3514 16.5737 10.5191 17.0617 10.7217 17.4871C11.0245 18.1265 11.4075 18.6233 11.8328 18.9961C12.1631 19.2864 12.5135 19.4979 12.8625 19.6543C13.1716 20.4813 13.4819 21.1808 13.8085 21.7788C14.1339 22.3757 14.4779 22.8724 14.8533 23.2903C14.9772 23.8871 15.0822 24.6116 15.0798 25.3486C15.0798 25.5975 15.0697 25.5801 15.0435 25.8266C15.0172 26.0681 14.9621 26.277 14.8858 26.4634C14.7695 26.7437 14.6018 26.9826 14.3703 27.2079C14.1425 27.4319 13.8498 27.6396 13.5019 27.8323L13.2329 27.9749C12.9464 28.1201 12.6286 28.2576 12.2907 28.3915C11.5124 28.7031 10.6266 28.9946 9.72693 29.3475C9.05379 29.6128 8.36937 29.9131 7.71993 30.2909C7.23194 30.5737 6.76028 30.9015 6.32986 31.2906C5.68299 31.8737 5.12492 32.5994 4.73959 33.4978C4.35169 34.3987 4.13772 35.4622 4.13772 36.7209C4.13772 36.8962 4.17648 37.0675 4.23782 37.2227C4.29659 37.3691 4.37547 37.5043 4.47052 37.6318C4.64822 37.8696 4.87716 38.0823 5.15992 38.2875C5.65167 38.6454 6.30727 38.9795 7.1569 39.296C8.42814 39.7678 10.1323 40.1919 12.337 40.4997C14.5417 40.8074 17.2419 41 20.5 41C23.324 41 25.7301 40.8561 27.7558 40.6171C29.276 40.437 30.5823 40.2043 31.6909 39.939C32.523 39.7388 33.2424 39.5198 33.8618 39.2883C34.326 39.1169 34.7313 38.9355 35.0854 38.7503C35.3495 38.6126 35.5846 38.47 35.7912 38.3223C36.1015 38.1021 36.3517 37.8744 36.5419 37.6166C36.6345 37.4865 36.7145 37.3488 36.7721 37.2C36.8284 37.0511 36.8622 36.8884 36.8622 36.7208C36.8622 35.8663 36.7634 35.1018 36.5794 34.4173ZM14.5642 6.97929C18.2465 7.78383 25.4435 6.24609 25.4435 6.24609C25.4435 6.24609 25.5223 8.00533 26.7486 9.61314C27.1252 10.1074 27.4493 10.8156 27.7146 11.5488C27.6607 11.5288 27.5031 11.5275 27.3492 11.5075C27.1828 11.4837 27.1539 11.3811 27.1352 11.2897C27.0927 11.092 26.9075 11.032 26.6072 10.9919C26.0328 10.9156 25.1833 10.8656 24.2261 10.9131C21.3783 11.052 21.5898 11.311 20.4712 11.311C19.3526 11.311 19.5652 11.0521 16.7188 10.9131C15.7603 10.8656 14.9095 10.9156 14.3352 10.9919C14.0374 11.032 13.8497 11.092 13.8072 11.2897C13.7884 11.3811 13.7609 11.4837 13.5945 11.5075C13.5444 11.5137 13.4944 11.5188 13.4481 11.5225C13.876 10.3914 14.4666 8.97003 14.5642 6.97929ZM26.5646 13.0152C26.5634 13.0302 26.5533 14.6618 25.4423 15.2211C25.0657 15.4126 24.5927 15.5164 24.111 15.5164C23.6017 15.5164 23.1375 15.4013 22.7659 15.1848C22.358 14.9433 22.0802 14.5867 21.9451 14.1263C21.9138 14.0186 21.8838 13.911 21.855 13.806C21.7662 13.4894 21.5309 12.6085 22.0327 12.2182C22.3555 11.9666 23.3602 11.8065 24.32 11.8065C25.1959 11.8065 26.0867 11.9266 26.3482 12.1993C26.5196 12.3771 26.5872 12.6999 26.5646 13.0152ZM19.0873 13.806C19.0586 13.9111 19.0286 14.0186 18.9973 14.1263C18.8621 14.5867 18.5869 14.9433 18.1765 15.1848C17.8048 15.4013 17.3406 15.5164 16.8327 15.5164C16.3522 15.5164 15.8793 15.4126 15.5014 15.2211C14.3903 14.6618 14.379 13.0302 14.3778 13.0152C14.3565 12.6998 14.4241 12.377 14.5955 12.1993C14.8558 11.9266 15.7479 11.8065 16.6225 11.8065C17.5835 11.8065 18.5869 11.9666 18.911 12.2182C19.4127 12.6085 19.1762 13.4894 19.0873 13.806ZM19.1537 34.4861L14.8082 28.5966C14.8645 28.5579 14.9183 28.5165 14.9734 28.474C15.2112 28.2863 15.4326 28.0749 15.6278 27.8384L19.1287 29.4362L18.3805 30.6611L19.5391 31.8686L19.1537 34.4861ZM16.122 27.0289C16.2646 26.7048 16.3597 26.3482 16.3998 25.9653C16.4311 25.6675 16.4448 25.6375 16.4448 25.3485C16.4448 24.4051 16.3022 23.5229 16.1495 22.831L16.1082 22.6483L15.9781 22.5132C15.6477 22.1691 15.3287 21.7311 15.0109 21.1443C14.6906 20.56 14.3715 19.8317 14.0449 18.9234L13.9373 18.6256L13.637 18.518C13.4281 18.4429 13.2253 18.3453 13.0302 18.2164C12.7361 18.0212 12.4558 17.7572 12.2006 17.3618C11.9466 16.9652 11.7164 16.4347 11.5525 15.7177C11.5212 15.5826 11.5074 15.4512 11.5074 15.3236C11.5074 15.0383 11.5775 14.7655 11.7101 14.5041C11.8189 14.2888 11.9741 14.0824 12.158 13.8984C12.4734 14.3639 12.7311 14.733 12.8237 14.8256C13.1315 15.1272 13.1753 14.4165 13.0302 13.6182C12.9501 13.1815 13.0377 12.7211 13.2054 12.1993C13.2054 12.3344 13.2054 12.4445 13.2054 12.4746C13.2054 12.5534 13.2917 12.6623 13.4068 12.6623C13.5232 12.6623 13.6083 12.7223 13.6083 12.8011C13.6083 12.94 13.617 14.9094 15.1148 15.7052C16.6126 16.5011 18.8472 16.202 19.6079 14.4315C19.9507 13.632 19.9545 12.8513 20.4713 12.8513C20.9868 12.8513 20.9918 13.632 21.3359 14.4315C22.0953 16.202 24.3313 16.5011 25.8278 15.7052C27.3255 14.9094 27.3355 12.9401 27.3355 12.8011C27.3355 12.7223 27.4193 12.6623 27.5357 12.6623C27.652 12.6623 27.7371 12.5534 27.7371 12.4746C27.7371 12.402 27.7371 11.7814 27.7371 11.6075C28.2814 13.1252 28.5767 14.7243 28.5767 14.7243C28.5767 14.7243 28.7344 14.429 28.9708 14.0336C29.1122 14.1962 29.2298 14.3715 29.3149 14.5541C29.4313 14.7994 29.4938 15.0559 29.4938 15.3224C29.4938 15.4512 29.48 15.5826 29.4487 15.7178C29.3399 16.1958 29.1998 16.5911 29.0446 16.9177C28.8106 17.4095 28.5403 17.7472 28.2588 17.9963C27.9772 18.2428 27.6782 18.4054 27.3654 18.5181L27.0638 18.6257L26.9575 18.9222C26.6309 19.8318 26.3106 20.5601 25.9915 21.1469C25.6712 21.7312 25.3522 22.1716 25.0219 22.5144L24.8917 22.6508L24.8504 22.8323C24.6978 23.5229 24.5564 24.4051 24.5551 25.3472C24.5564 25.6375 24.5701 25.6662 24.6002 25.9653C24.6377 26.3132 24.7178 26.6397 24.8391 26.94C24.8454 26.9538 24.8516 26.9676 24.8579 26.9814L20.7138 29.1235L16.122 27.0289ZM22.1917 34.7664L21.765 31.8685L22.9212 30.6611L22.1704 29.4312L25.3386 27.7934C25.4262 27.9047 25.52 28.0098 25.6176 28.1087C25.8002 28.2914 25.9966 28.4553 26.2044 28.6067L22.1917 34.7664Z" fill="#4B4B4B"/>
<path d="M25.9491 19.3001C25.9491 19.3001 25.0995 18.9059 24.5477 18.0513C23.8395 16.9565 22.3681 15.6828 20.5151 16.6938C18.6608 15.6828 17.1918 16.9565 16.4811 18.0513C15.9306 18.9059 15.0835 19.3001 15.0835 19.3001C15.0835 19.3001 16.1646 20.5338 18.3292 19.8056C20.0846 19.2163 20.5151 18.0326 20.5151 18.0326C20.5151 18.0326 20.9455 19.2162 22.7009 19.8056C24.8643 20.5338 25.9491 19.3001 25.9491 19.3001Z" fill="#4B4B4B"/>
</svg>
