<svg width="544" height="306" viewBox="0 0 544 306" fill="none" xmlns="http://www.w3.org/2000/svg">
<rect y="62" width="544" height="244" rx="10" fill="white"/>
<g opacity="0.1">
<path d="M132.118 202.782C131.92 201.733 131.608 200.713 131.183 199.75C130.928 199.155 131.013 198.475 131.438 197.965L133.167 195.84L130.56 192.667L128.152 193.942C127.585 194.253 126.877 194.197 126.338 193.828C125.46 193.233 124.525 192.723 123.533 192.327C122.938 192.1 122.513 191.533 122.457 190.882L122.202 188.162L118.122 187.765L117.328 190.4C117.13 191.023 116.62 191.477 115.968 191.59C114.92 191.788 113.9 192.1 112.937 192.525C112.342 192.78 111.662 192.695 111.152 192.27L109.027 190.542L105.853 193.148L107.128 195.557C107.44 196.123 107.383 196.832 107.015 197.37C106.42 198.248 105.91 199.183 105.513 200.175C105.287 200.77 104.72 201.195 104.068 201.252L101.348 201.507L100.952 205.587L103.587 206.38C104.21 206.578 104.663 207.088 104.777 207.74C104.975 208.788 105.287 209.808 105.712 210.772C105.967 211.367 105.882 212.075 105.457 212.557L103.728 214.682L106.335 217.855L108.743 216.58C109.31 216.268 110.018 216.325 110.557 216.693C111.435 217.288 112.37 217.798 113.362 218.195C113.957 218.422 114.382 218.988 114.438 219.64L114.693 222.36L118.773 222.757L119.567 220.122C119.765 219.498 120.275 219.045 120.927 218.932C121.975 218.733 122.995 218.422 123.958 217.997C124.553 217.742 125.233 217.827 125.743 218.252L127.868 219.98L131.042 217.373L129.767 214.965C129.455 214.398 129.512 213.69 129.88 213.152C130.475 212.273 130.985 211.338 131.382 210.347C131.608 209.752 132.175 209.327 132.827 209.27L135.547 209.015L135.943 204.935L133.308 204.142C132.713 203.943 132.232 203.405 132.118 202.782ZM117.442 215.645C111.718 215.078 107.525 209.978 108.092 204.255C108.658 198.532 113.758 194.338 119.482 194.905C125.205 195.472 129.398 200.572 128.832 206.295C128.265 212.018 123.165 216.183 117.442 215.645Z" fill="#2A94F4"/>
<path d="M111.548 204.567C111.917 200.742 115.317 197.965 119.142 198.333C122.967 198.702 125.743 202.102 125.375 205.927C125.007 209.752 121.607 212.528 117.782 212.16C113.957 211.792 111.18 208.392 111.548 204.567Z" fill="#2A94F4"/>
</g>
<path opacity="0.1" d="M258.967 295.177C329.774 295.177 387.175 290.534 387.175 284.807C387.175 279.079 329.774 274.437 258.967 274.437C188.159 274.437 130.758 279.079 130.758 284.807C130.758 290.534 188.159 295.177 258.967 295.177Z" fill="#2A94F4"/>
<path opacity="0.19" d="M220.093 251.742C220.093 254.15 222.048 256.105 224.457 256.105H381.225C383.633 256.105 385.588 254.15 385.588 251.742V116.762H220.122V251.742H220.093Z" fill="#FFBE55"/>
<path d="M269.337 196.01C270.073 198.56 271.093 201.025 272.397 203.377C273.19 204.793 273.133 206.55 272.227 207.91L268.43 213.605L275.712 220.887L281.407 217.09C282.767 216.183 284.523 216.127 285.94 216.92C288.263 218.223 290.728 219.243 293.307 219.98C294.865 220.433 296.055 221.708 296.395 223.323L297.727 230.038H308.012L309.372 223.295C309.683 221.708 310.873 220.405 312.46 219.952C315.01 219.215 317.475 218.195 319.827 216.892C321.243 216.098 323 216.155 324.36 217.062L330.055 220.858L337.337 213.577L333.54 207.882C332.633 206.522 332.577 204.765 333.37 203.348C334.673 201.025 335.693 198.56 336.43 195.982C336.883 194.423 338.158 193.233 339.773 192.893L346.488 191.562V181.277L339.745 179.917C338.158 179.605 336.855 178.415 336.402 176.828C335.665 174.278 334.645 171.813 333.342 169.462C332.548 168.045 332.605 166.288 333.512 164.928L337.308 159.233L330.027 151.952L324.332 155.748C322.972 156.655 321.215 156.712 319.798 155.918C317.475 154.615 315.01 153.595 312.432 152.858C310.873 152.405 309.683 151.13 309.343 149.515L308.012 142.8H297.727L296.367 149.543C296.055 151.13 294.865 152.433 293.278 152.887C290.728 153.623 288.263 154.643 285.912 155.947C284.495 156.74 282.738 156.683 281.378 155.777L275.683 151.98L268.402 159.262L272.198 164.957C273.105 166.317 273.162 168.073 272.368 169.49C271.065 171.813 270.045 174.278 269.308 176.857C268.855 178.415 267.58 179.605 265.965 179.945L259.25 181.277V191.562L265.993 192.922C267.608 193.233 268.912 194.423 269.337 196.01ZM302.827 160.282C317.248 160.282 328.95 171.983 328.95 186.405C328.95 200.827 317.248 212.528 302.827 212.528C288.405 212.528 276.703 200.827 276.703 186.405C276.703 172.012 288.405 160.31 302.827 160.282Z" fill="#FFBE55"/>
<path d="M220.093 94.9733V108.035H385.56V94.9733C385.56 92.565 383.605 90.61 381.197 90.61H224.428C222.02 90.61 220.093 92.565 220.093 94.9733ZM263.642 94.9733H272.34V103.7H263.642V94.9733ZM246.217 94.9733H254.915V103.7H246.217V94.9733ZM228.792 94.9733H237.49V103.7H228.792V94.9733Z" fill="#FFBE55"/>
<path d="M320.252 186.433C320.252 196.038 312.46 203.858 302.827 203.858C293.193 203.858 285.402 196.067 285.402 186.433C285.402 176.828 293.193 169.008 302.827 169.008C312.432 169.008 320.252 176.8 320.252 186.433Z" fill="#FFBE55"/>
<path d="M307.19 16.6033C307.19 14.195 305.235 12.24 302.827 12.24H146.058C143.65 12.24 141.695 14.195 141.695 16.6033V29.665H307.162V16.6033H307.19ZM159.12 25.3017H150.422V16.6033H159.12V25.3017ZM176.545 25.3017H167.847V16.6033H176.545V25.3017ZM193.97 25.3017H185.272V16.6033H193.97V25.3017Z" fill="#FFBE55"/>
<path opacity="0.19" d="M211.367 94.9733C211.367 87.7483 217.203 81.9116 224.428 81.9116H307.162V38.3633H141.695V173.343C141.695 175.752 143.65 177.707 146.058 177.707H211.367V94.9733ZM246.217 60.1516H254.915V68.8499H246.217V60.1516ZM228.792 60.1516H237.49V68.8499H228.792V60.1516ZM211.367 60.1516H220.065V68.8499H211.367V60.1516ZM193.97 164.645H159.12V155.947H193.97V164.645ZM193.97 147.22H159.12V138.522H193.97V147.22ZM193.97 129.823H159.12V121.125H193.97V129.823ZM193.97 112.398H159.12V103.7H193.97V112.398ZM193.97 94.9733H159.12V86.2749H193.97V94.9733ZM193.97 68.8499V60.1516H202.668V68.8499H193.97Z" fill="#FFBE55"/>
<path d="M245.452 217.345L245.622 212.755L248.88 213.747L249.503 219.47C249.503 219.47 246.387 219.668 245.452 217.345Z" fill="#FCD2B1"/>
<path d="M245.735 217.373C246.5 217.685 247.775 217.968 249.362 217.6L249.163 216.297C249.163 216.297 250.07 216.835 250.297 218.025C250.523 219.187 250.58 218.875 252.053 219.782C253.555 220.688 253.442 222.728 253.442 222.728L242.335 222.445C242.335 222.445 242.023 220.207 244.035 217.827C244.432 217.317 245.14 217.118 245.735 217.373Z" fill="#0E538C"/>
<path d="M227.8 149.883C227.8 149.883 226.355 155.522 228.395 159.063C230.435 162.605 234.118 154.757 234.118 154.757C234.118 154.757 233.467 147.22 227.8 149.883Z" fill="#FFBE55"/>
<path d="M226.78 123.137C226.78 123.137 219.3 133.308 218.053 139.457C216.778 145.605 218.138 159.035 218.138 159.035H221.198C221.198 159.035 222.813 141.893 223.833 139.457C224.853 136.963 231.483 125.46 231.483 125.46L226.78 123.137Z" fill="#FFE3CA"/>
<path d="M253.895 222.218H225.505V225.477H253.895V222.218Z" fill="#D3D3D3"/>
<path d="M249.957 244.715H219.442V247.973H249.957V244.715Z" fill="#D3D3D3"/>
<path d="M247.208 266.475H216.693V269.733H247.208V266.475Z" fill="#D3D3D3"/>
<path d="M213.633 288.122H210.233L235.28 170.312H237.178L213.633 288.122Z" fill="#D3D3D3"/>
<path d="M249.135 288.122H245.735L265.597 166.997L267.268 167.79L249.135 288.122Z" fill="#D3D3D3"/>
<path d="M242.25 288.122L260.525 170.51L235.28 170.312L210.233 288.122H206.323L231.767 166.997H265.597L246.812 288.122H241.683" fill="#F7F7F7"/>
<path d="M230.775 217.345L230.945 212.755L234.203 213.747L234.827 219.47C234.798 219.47 231.71 219.668 230.775 217.345Z" fill="#FCD2B1"/>
<path d="M262.933 113.787C262.933 113.787 271.008 113.192 271.972 109.452C272.935 105.712 272.765 95.625 272.765 95.625H275.57C275.57 95.625 277.497 105.003 277.383 109.452C277.27 113.9 271.858 121.493 262.933 121.012C254.037 120.53 262.933 113.787 262.933 113.787Z" fill="#FFE3CA"/>
<path d="M236.782 113.305C236.782 113.305 232.107 113.787 230.18 115.827C229.245 116.818 223.437 124.015 223.663 125.573L230.492 129.823L236.073 122.088L236.782 113.305Z" fill="#2A94F4"/>
<path d="M229.472 147.957C229.472 147.957 227.46 153.907 229.358 160.423C231.257 166.94 231.257 180.087 231.087 183.515C230.917 186.943 227.715 196.86 230.435 214.37H231.087H234.628C234.628 214.37 237.178 196.01 238.652 188.19C240.04 180.852 241.797 162.548 241.797 162.548C241.797 162.548 247.067 179.917 246.188 184.393C245.225 189.323 245.112 214.342 245.112 214.342H249.333C249.333 214.342 254.065 192.808 254.348 187.028C254.66 181.248 254.008 148.835 254.008 148.835C254.008 148.835 239.955 139.287 229.472 147.957Z" fill="#0B4870"/>
<path d="M243.865 102L239.587 115.09L247.322 116.62L249.022 103.048L243.865 102Z" fill="#FCD2B1"/>
<path d="M248.257 112.568C248.257 112.568 253.498 113.645 254.037 120.502C254.575 127.358 255.312 156.598 255.312 159.12C255.142 160.282 234.77 164.163 228.707 158.27C227.177 156.768 232.192 131.325 231.483 124.638C230.747 117.98 234.713 109.508 248.257 112.568Z" fill="#2A94F4"/>
<path d="M254.348 126.282C254.348 126.282 256.445 121.493 262.933 121.012C262.933 121.012 264.492 116.563 262.933 113.787C262.933 113.787 251.175 111.378 246.698 112.285C242.222 113.192 254.348 126.282 254.348 126.282Z" fill="#2A94F4"/>
<path d="M275.542 98.1467C275.542 98.1467 276.42 93.4434 274.862 90.78C273.927 89.1934 272.907 88.4567 271.887 88.74C271.207 88.9384 270.923 90.1284 271.093 90.8084C271.32 91.6867 272.057 94.095 272.453 94.775C272.453 94.775 271.745 94.775 271.008 93.1884C270.3 91.63 269.762 93.925 270.328 95.0017C271.178 96.56 273.983 100.838 275.542 98.1467Z" fill="#FFE3CA"/>
<path d="M231.03 217.373C231.795 217.685 233.07 217.968 234.657 217.6L234.458 216.297C234.458 216.297 235.365 216.835 235.592 218.025C235.818 219.187 235.875 218.875 237.348 219.782C238.85 220.688 238.737 222.728 238.737 222.728L227.63 222.445C227.63 222.445 227.318 220.207 229.33 217.827C229.755 217.317 230.435 217.118 231.03 217.373Z" fill="#0E538C"/>
<path d="M254.83 100.045C254.632 98.4016 258.202 97.2966 251.373 92.4799C247.888 90.0433 241.825 91.1199 239.955 94.8033C238.085 98.4866 239.077 98.8549 237.632 99.1099C236.187 99.3933 237.717 110.783 246.443 110.642C255.198 110.5 254.83 100.045 254.83 100.045Z" fill="#0B4870"/>
<path d="M228.282 145.917H254.858C255.935 145.917 256.813 146.71 256.927 147.758C257.38 151.753 257.862 160.82 253.187 161.472C247.18 162.322 245.253 155.833 245.253 149.798L227.8 149.883C227.8 149.883 227.205 146.993 228.282 145.917Z" fill="#FFBE55"/>
<path d="M221 157.448C221 157.448 220.49 163.483 222.445 165.127C224.4 166.798 218.988 167.535 217.657 164.475C216.325 161.415 218.138 157.448 218.138 157.448H221Z" fill="#FFE3CA"/>
<path d="M220.49 158.242C220.49 158.242 222.303 158.553 222.983 160.508C223.38 161.613 223.607 162.803 223.72 163.625C223.805 164.163 223.182 164.532 222.728 164.192C222.275 163.852 221.85 163.342 221.907 162.463C222.048 160.622 219.838 161.16 219.838 161.16C219.838 161.16 219.102 158.978 220.49 158.242Z" fill="#FFE3CA"/>
<path d="M250.155 150.082H248.767V145.973C248.767 145.747 248.965 145.548 249.192 145.548H249.758C249.985 145.548 250.183 145.747 250.183 145.973V150.082H250.155Z" fill="#F7F7F7"/>
<path d="M252.223 150.082H250.835V147.362C250.835 147.135 251.033 146.937 251.26 146.937H251.827C252.053 146.937 252.252 147.135 252.252 147.362V150.082H252.223Z" fill="#F7F7F7"/>
<path d="M254.858 150.082H252.932V144.16C252.932 143.848 253.187 143.593 253.498 143.593H254.292C254.603 143.593 254.858 143.848 254.858 144.16V150.082Z" fill="#F7F7F7"/>
<path opacity="0.32" d="M256.417 150.082H245.707V150.988H256.417V150.082Z" fill="#161616"/>
<path d="M157.93 232.192C157.42 230.888 156.797 229.613 156.003 228.452C155.522 227.743 155.493 226.808 155.89 226.072L157.647 222.898L153.51 219.385L150.677 221.652C149.997 222.19 149.09 222.303 148.297 221.935C147.022 221.368 145.662 220.915 144.302 220.66C143.452 220.49 142.772 219.867 142.545 219.045L141.553 215.588L136.142 216.042L135.717 219.64C135.632 220.49 135.037 221.227 134.243 221.538C132.94 222.048 131.665 222.672 130.503 223.465C129.795 223.947 128.86 223.975 128.123 223.578L124.95 221.822L121.437 225.958L123.703 228.792C124.242 229.472 124.355 230.378 123.987 231.172C123.42 232.447 122.967 233.807 122.712 235.167C122.542 236.017 121.918 236.697 121.097 236.923L117.612 237.915L118.065 243.327L121.663 243.752C122.513 243.837 123.25 244.432 123.562 245.225C124.072 246.528 124.695 247.803 125.488 248.965C125.97 249.673 125.998 250.608 125.602 251.345L123.845 254.518L127.982 258.032L130.815 255.765C131.495 255.227 132.402 255.113 133.195 255.482C134.47 256.048 135.83 256.502 137.19 256.757C138.04 256.927 138.72 257.55 138.947 258.372L139.938 261.857L145.35 261.403L145.775 257.805C145.86 256.955 146.455 256.218 147.248 255.907C148.552 255.397 149.827 254.773 150.988 253.98C151.697 253.498 152.632 253.47 153.368 253.867L156.542 255.623L160.055 251.487L157.788 248.653C157.25 247.973 157.137 247.067 157.505 246.273C158.072 244.998 158.525 243.638 158.78 242.278C158.95 241.428 159.573 240.748 160.395 240.522L163.88 239.53L163.427 234.118L159.828 233.693C158.978 233.58 158.242 232.985 157.93 232.192ZM141.893 252.45C134.3 253.073 127.642 247.435 126.99 239.842C126.367 232.248 132.005 225.59 139.598 224.938C147.192 224.315 153.85 229.953 154.502 237.547C155.125 245.14 149.487 251.798 141.893 252.45Z" fill="#FFBE55"/>
<path d="M131.58 239.473C131.155 234.402 134.923 229.953 139.967 229.528C145.038 229.103 149.487 232.872 149.912 237.915C150.337 242.987 146.568 247.435 141.525 247.86C136.453 248.285 132.005 244.545 131.58 239.473Z" fill="#FFBE55"/>
<path d="M202.045 194.905C200.685 193.687 199.212 192.61 197.597 191.732C196.605 191.193 196.038 190.145 196.067 189.04L196.208 184.337L189.352 182.75L187.425 187.028C186.972 188.048 185.98 188.728 184.847 188.785C183.033 188.87 181.22 189.182 179.463 189.692C178.387 190.003 177.225 189.692 176.46 188.87L173.258 185.442L167.28 189.153L168.923 193.573C169.32 194.622 169.093 195.812 168.328 196.633C167.11 197.993 166.033 199.467 165.155 201.082C164.617 202.073 163.568 202.64 162.463 202.612L157.76 202.47L156.173 209.327L160.452 211.253C161.472 211.707 162.152 212.698 162.208 213.832C162.293 215.645 162.605 217.458 163.087 219.215C163.398 220.292 163.087 221.453 162.265 222.218L158.837 225.42L162.548 231.398L166.968 229.727C168.017 229.33 169.178 229.557 170.028 230.322C171.388 231.54 172.862 232.617 174.477 233.495C175.468 234.033 176.063 235.082 176.007 236.187L175.865 240.89L182.722 242.477L184.648 238.198C185.102 237.178 186.093 236.498 187.227 236.442C189.04 236.357 190.853 236.045 192.61 235.563C193.687 235.252 194.848 235.563 195.613 236.385L198.815 239.813L204.793 236.102L203.15 231.682C202.753 230.633 202.98 229.443 203.745 228.622C204.963 227.262 206.04 225.788 206.918 224.173C207.457 223.182 208.505 222.615 209.61 222.643L214.313 222.785L215.9 215.928L211.622 214.002C210.602 213.548 209.922 212.557 209.865 211.423C209.78 209.61 209.468 207.797 208.987 206.04C208.675 204.963 208.987 203.802 209.808 203.037L213.237 199.835L209.525 193.857L205.105 195.5C204.057 195.868 202.895 195.642 202.045 194.905ZM195.528 227.8C187.142 233.042 176.092 230.463 170.85 222.077C165.608 213.69 168.187 202.64 176.573 197.398C184.96 192.157 196.01 194.735 201.252 203.122C206.465 211.537 203.915 222.558 195.528 227.8Z" fill="#CCE9FF"/>
<path d="M175.922 218.903C172.437 213.322 174.137 205.955 179.747 202.47C185.357 198.985 192.695 200.685 196.18 206.295C199.665 211.877 197.965 219.243 192.355 222.728C186.773 226.213 179.407 224.513 175.922 218.903Z" fill="#CCE9FF"/>
<path d="M400.293 63.0133C399.188 64.43 398.282 65.96 397.545 67.6033C397.092 68.595 396.128 69.275 395.023 69.3317L390.405 69.5583L389.385 76.3867L393.72 77.945C394.74 78.3133 395.477 79.2483 395.618 80.325C395.845 82.11 396.27 83.8383 396.922 85.51C397.318 86.53 397.092 87.6917 396.355 88.5133L393.267 91.9133L397.375 97.4667L401.568 95.5117C402.56 95.0583 403.722 95.1717 404.6 95.8517C406.017 96.9567 407.547 97.8633 409.19 98.6C410.182 99.0533 410.862 100.017 410.918 101.122L411.145 105.74L417.973 106.76L419.532 102.425C419.9 101.405 420.835 100.668 421.912 100.527C423.697 100.3 425.425 99.875 427.097 99.2233C428.117 98.8267 429.278 99.0533 430.1 99.79L433.5 102.907L439.053 98.7983L437.098 94.605C436.645 93.6133 436.758 92.4517 437.438 91.5733C438.543 90.1567 439.45 88.6267 440.187 86.9833C440.64 85.9917 441.603 85.3117 442.708 85.255L447.327 85.0283L448.347 78.2L444.012 76.6417C442.992 76.2733 442.255 75.3383 442.113 74.2617C441.887 72.4767 441.462 70.7483 440.81 69.0767C440.413 68.0567 440.64 66.895 441.377 66.0733L444.493 62.6733L440.385 57.12L436.192 59.075C435.2 59.5283 434.038 59.415 433.16 58.735C431.743 57.63 430.213 56.7233 428.57 55.9867C427.578 55.5333 426.898 54.57 426.842 53.465L426.615 48.8467L419.787 47.8267L418.228 52.1617C417.86 53.1817 416.925 53.9183 415.848 54.06C414.063 54.2867 412.335 54.7117 410.663 55.3633C409.643 55.76 408.482 55.5333 407.66 54.7967L404.26 51.68L398.707 55.7883L400.662 59.9817C401.087 60.9733 400.973 62.135 400.293 63.0133ZM432.962 66.8383C438.713 74.63 437.07 85.6517 429.278 91.4033C421.487 97.155 410.465 95.5117 404.713 87.72C398.962 79.9283 400.605 68.9067 408.397 63.155C416.217 57.4033 427.21 59.0467 432.962 66.8383Z" fill="#FFBE55"/>
<path d="M425.793 86.7C420.58 90.5533 413.27 89.4483 409.417 84.235C405.563 79.0216 406.668 71.7116 411.882 67.8583C417.095 64.005 424.405 65.11 428.258 70.3233C432.112 75.5083 431.007 82.8466 425.793 86.7Z" fill="#FFBE55"/>
<path d="M330.367 40.12C329.942 42.415 329.8 44.7384 329.885 47.0617C329.942 48.4784 329.233 49.8384 327.987 50.5467L322.802 53.5217L325.663 62.0217L331.613 61.2567C333.03 61.0867 334.418 61.71 335.212 62.8717C336.543 64.7984 338.073 66.555 339.773 68.1134C340.822 69.0767 341.247 70.55 340.878 71.91L339.32 77.6617L347.338 81.6567L351.022 76.925C351.9 75.7917 353.317 75.2534 354.705 75.5084C357 75.9334 359.323 76.1034 361.647 75.99C363.063 75.9334 364.423 76.6417 365.132 77.8884L368.107 83.0734L376.607 80.2117L375.842 74.2617C375.672 72.845 376.295 71.4567 377.457 70.6634C379.383 69.36 381.14 67.8017 382.698 66.1017C383.662 65.0534 385.135 64.6284 386.495 64.9967L392.275 66.555L396.27 58.5084L391.51 54.825C390.377 53.9467 389.838 52.53 390.093 51.1417C390.518 48.8467 390.688 46.5234 390.575 44.2C390.518 42.7834 391.255 41.4234 392.473 40.715L397.658 37.74L394.797 29.24L388.847 30.005C387.43 30.175 386.042 29.5517 385.248 28.39C383.945 26.4634 382.387 24.7067 380.687 23.1484C379.638 22.185 379.213 20.7117 379.582 19.3517L381.14 13.5717L373.15 9.5767L369.467 14.3084C368.588 15.4417 367.172 15.98 365.783 15.725C363.488 15.3 361.165 15.13 358.842 15.2434C357.425 15.3 356.065 14.5917 355.357 13.345L352.382 8.16003L343.882 11.0217L344.647 16.9717C344.817 18.3884 344.193 19.7767 343.032 20.57C341.105 21.8734 339.348 23.4317 337.79 25.1317C336.827 26.18 335.353 26.605 333.993 26.2367L328.213 24.6784L324.218 32.725L328.95 36.4084C330.112 37.2867 330.65 38.7034 330.367 40.12ZM370.402 25.1884C381.678 30.7984 386.268 44.4834 380.687 55.76C375.077 67.0367 361.392 71.6267 350.115 66.045C338.838 60.435 334.248 46.75 339.83 35.4734C345.44 24.1967 359.125 19.6067 370.402 25.1884Z" fill="#CCE9FF"/>
<path d="M373.858 52.3883C370.118 59.8967 360.995 62.985 353.487 59.245C345.978 55.505 342.89 46.3817 346.63 38.8733C350.37 31.365 359.493 28.2767 367.002 32.0167C374.538 35.7283 377.598 44.8517 373.858 52.3883Z" fill="#CCE9FF"/>
</svg>
