<svg width="290" height="290" viewBox="0 0 290 290" fill="none" xmlns="http://www.w3.org/2000/svg">
<path d="M94.9352 152.085C86.2379 155.997 77.3633 160.358 71.2545 167.683C69.2165 170.127 67.463 173.094 67.6403 176.27C67.9705 182.194 74.7641 185.722 80.6956 185.733C86.6299 185.744 92.3977 183.52 98.3292 183.536C101.39 183.544 105.222 185.027 105.182 188.09C105.158 189.922 103.686 191.364 102.322 192.583C91.8526 201.941 81.383 211.299 70.9108 220.656C67.4228 223.774 63.8246 227.042 62.0094 231.354C60.1942 235.667 60.7179 241.348 64.4744 244.141C66.9475 245.98 70.2315 246.222 73.3141 246.276C87.3119 246.525 101.237 244.372 115.004 241.834C163.684 232.866 211.459 219.01 257.386 200.55C265.796 197.169 274.824 193.015 278.827 184.884C283.451 175.486 278.519 162.643 268.79 158.76C262.977 156.438 256.441 157.101 250.287 155.962C244.132 154.824 237.532 150.605 237.468 144.349C237.365 133.997 254.116 130.069 254.596 119.728C254.851 114.253 249.876 109.627 244.524 108.437C239.173 107.25 233.614 108.682 228.384 110.325C228.384 110.319 133.516 134.733 94.9352 152.085Z" fill="#F7F7F7"/>
<path d="M189.794 111.333H30.1304C28.9329 111.333 27.9528 110.353 27.9528 109.155V78.8344C27.9528 77.6368 28.9329 76.6567 30.1304 76.6567H189.794C190.992 76.6567 191.972 77.6368 191.972 78.8344V109.153C191.972 110.353 190.992 111.333 189.794 111.333Z" fill="#F2F2F2"/>
<path d="M181.191 81.5894H174.779C173.871 81.5894 173.135 82.3251 173.135 83.2327V94.8488H182.837V83.2327C182.837 82.3251 182.101 81.5894 181.191 81.5894Z" fill="white"/>
<path d="M177.136 105.31L168.901 94.4353C168.428 93.8096 168.874 92.9128 169.658 92.9128H186.126C186.91 92.9128 187.356 93.8096 186.883 94.4353L178.648 105.31C178.269 105.81 177.515 105.81 177.136 105.31Z" fill="white"/>
<path d="M155.29 105.686H148.877C147.97 105.686 147.234 104.95 147.234 104.043V92.4241H156.936V104.04C156.936 104.95 156.197 105.686 155.29 105.686Z" fill="white"/>
<path d="M151.232 81.9653L142.997 92.8403C142.524 93.4659 142.97 94.3628 143.754 94.3628H160.222C161.006 94.3628 161.452 93.4659 160.98 92.8403L152.744 81.9653C152.368 81.4632 151.614 81.4632 151.232 81.9653Z" fill="white"/>
<path d="M45.0359 104.295C51.042 104.295 55.9109 99.4264 55.9109 93.4203C55.9109 87.4142 51.042 82.5453 45.0359 82.5453C39.0298 82.5453 34.1609 87.4142 34.1609 93.4203C34.1609 99.4264 39.0298 104.295 45.0359 104.295Z" fill="white"/>
<path d="M135.352 89.6503H61.327C60.5402 89.6503 59.8958 89.0059 59.8958 88.2191C59.8958 87.4324 60.5402 86.7879 61.327 86.7879H135.352C136.139 86.7879 136.783 87.4324 136.783 88.2191C136.783 89.0059 136.139 89.6503 135.352 89.6503Z" fill="white"/>
<path d="M135.352 95.265H61.327C60.5402 95.265 59.8958 94.6206 59.8958 93.8338C59.8958 93.047 60.5402 92.4026 61.327 92.4026H135.352C136.139 92.4026 136.783 93.047 136.783 93.8338C136.783 94.6206 136.139 95.265 135.352 95.265Z" fill="white"/>
<path d="M109.129 100.877H61.327C60.5402 100.877 59.8958 100.233 59.8958 99.4459C59.8958 98.6591 60.5402 98.0146 61.327 98.0146H109.126C109.913 98.0146 110.557 98.6591 110.557 99.4459C110.56 100.233 109.915 100.877 109.129 100.877Z" fill="white"/>
<path d="M189.794 151.412H30.1304C28.9329 151.412 27.9528 150.432 27.9528 149.235V118.916C27.9528 117.718 28.9329 116.738 30.1304 116.738H189.794C190.992 116.738 191.972 117.718 191.972 118.916V149.235C191.972 150.432 190.992 151.412 189.794 151.412Z" fill="#F2F2F2"/>
<path d="M181.191 121.668H174.779C173.871 121.668 173.135 122.404 173.135 123.312V134.928H182.837V123.312C182.837 122.404 182.101 121.668 181.191 121.668Z" fill="white"/>
<path d="M177.136 145.389L168.901 134.514C168.428 133.889 168.874 132.992 169.658 132.992H186.126C186.91 132.992 187.356 133.889 186.883 134.514L178.648 145.389C178.269 145.891 177.515 145.891 177.136 145.389Z" fill="white"/>
<path d="M155.29 145.765H148.877C147.97 145.765 147.234 145.029 147.234 144.122V132.506H156.936V144.122C156.936 145.029 156.197 145.765 155.29 145.765Z" fill="white"/>
<path d="M151.232 122.047L142.997 132.922C142.524 133.548 142.97 134.445 143.754 134.445H160.222C161.006 134.445 161.452 133.548 160.98 132.922L152.744 122.047C152.368 121.545 151.614 121.545 151.232 122.047Z" fill="white"/>
<path d="M45.0359 144.374C51.042 144.374 55.9109 139.505 55.9109 133.499C55.9109 127.493 51.042 122.624 45.0359 122.624C39.0298 122.624 34.1609 127.493 34.1609 133.499C34.1609 139.505 39.0298 144.374 45.0359 144.374Z" fill="white"/>
<path d="M135.352 129.732H61.327C60.5402 129.732 59.8958 129.088 59.8958 128.301C59.8958 127.514 60.5402 126.87 61.327 126.87H135.352C136.139 126.87 136.783 127.514 136.783 128.301C136.783 129.088 136.139 129.732 135.352 129.732Z" fill="white"/>
<path d="M135.352 135.344H61.327C60.5402 135.344 59.8958 134.7 59.8958 133.913C59.8958 133.126 60.5402 132.482 61.327 132.482H135.352C136.139 132.482 136.783 133.126 136.783 133.913C136.783 134.7 136.139 135.344 135.352 135.344Z" fill="white"/>
<path d="M109.129 140.956H61.327C60.5402 140.956 59.8958 140.312 59.8958 139.525C59.8958 138.738 60.5402 138.094 61.327 138.094H109.126C109.913 138.094 110.557 138.738 110.557 139.525C110.56 140.314 109.915 140.956 109.129 140.956Z" fill="white"/>
<path d="M269.576 275.932H25.7939C24.1613 275.932 22.8241 274.595 22.8241 272.962V257.523C22.8241 255.89 24.1613 254.553 25.7939 254.553H269.579C271.212 254.553 272.549 255.89 272.549 257.523V272.962C272.546 274.595 271.209 275.932 269.576 275.932Z" fill="#F2F2F2"/>
<path d="M258.828 211.217H31.1723C29.4001 211.217 27.9501 209.767 27.9501 207.994V161.302C27.9501 159.53 29.4001 158.08 31.1723 158.08H258.825C260.597 158.08 262.047 159.53 262.047 161.302V207.994C262.05 209.767 260.6 211.217 258.828 211.217Z" fill="#CCE9FF"/>
<path d="M217.207 149.801H235.464C238.05 149.801 240.144 151.896 240.144 154.481V187.555H212.527V154.481C212.527 151.896 214.621 149.801 217.207 149.801Z" fill="#FFBE55"/>
<path d="M228.756 217.331L252.198 186.371C253.546 184.59 252.276 182.037 250.042 182.037H203.158C200.924 182.037 199.654 184.59 201.002 186.371L224.444 217.331C225.529 218.757 227.674 218.757 228.756 217.331Z" fill="#FFBE55"/>
<path d="M182.362 198.046H189.783C190.833 198.046 191.687 197.195 191.687 196.142V182.695H180.458V196.142C180.46 197.195 181.312 198.046 182.362 198.046Z" fill="white"/>
<path d="M187.058 170.59L196.588 183.178C197.135 183.903 196.62 184.939 195.712 184.939H176.65C175.743 184.939 175.227 183.9 175.775 183.178L185.305 170.59C185.745 170.01 186.618 170.01 187.058 170.59Z" fill="white"/>
<path d="M53.5721 201.064C62.7755 201.064 70.2364 193.603 70.2364 184.4C70.2364 175.196 62.7755 167.735 53.5721 167.735C44.3687 167.735 36.9078 175.196 36.9078 184.4C36.9078 193.603 44.3687 201.064 53.5721 201.064Z" fill="#2A94F4"/>
<path d="M160.464 177.993H79.0975C77.8918 177.993 76.9037 177.007 76.9037 175.799C76.9037 174.593 77.8892 173.605 79.0975 173.605H160.464C161.67 173.605 162.658 174.591 162.658 175.799C162.655 177.005 161.67 177.993 160.464 177.993Z" fill="white"/>
<path d="M160.464 186.594H79.0975C77.8918 186.594 76.9037 185.608 76.9037 184.4C76.9037 183.194 77.8892 182.206 79.0975 182.206H160.464C161.67 182.206 162.658 183.191 162.658 184.4C162.655 185.605 161.67 186.594 160.464 186.594Z" fill="white"/>
<path d="M131.214 195.194H79.0948C77.8891 195.194 76.901 194.209 76.901 193C76.901 191.795 77.8865 190.807 79.0948 190.807H131.214C132.42 190.807 133.408 191.792 133.408 193C133.408 194.209 132.423 195.194 131.214 195.194Z" fill="white"/>
<path d="M226.313 122.823C226.313 122.823 233.778 125.21 236.959 127.826C236.605 130.712 225.649 129.16 224.6 129.257C223.55 129.353 215.956 130.72 220.024 121.196C224.366 119.287 226.313 122.823 226.313 122.823Z" fill="#0B2A3F"/>
<path d="M200.17 84.1832C200.17 84.1832 234.567 80.1179 235.587 82.2929C236.608 84.4679 226.313 122.823 226.313 122.823H219.742C219.742 122.823 225.381 90.7244 224.602 90.7244C223.824 90.7244 192.289 96.5297 192.289 96.5297L189.279 84.1832H200.17Z" fill="#0B466D"/>
<path d="M179.585 155.526C181.994 157.604 188.535 160.518 186.814 161.893C185.093 163.27 174.744 164.594 173.076 161.799C172.196 160.322 174.078 155.523 174.078 155.523H179.585V155.526Z" fill="#0B2A3F"/>
<path d="M200.17 84.1832L192.286 96.5297L180.649 156.992H173.076L182.337 86.4576L200.17 84.1832Z" fill="#0E538C"/>
<path d="M160.934 42.0688L150.816 44.8641C150.816 44.8641 143.733 40.6296 142.385 40.976C141.037 41.3223 138.843 42.0688 138.843 42.0688L144.071 46.7196C144.071 46.7196 138.507 47.901 138.843 48.575C142.046 48.7442 145.631 48.575 145.631 48.575L162.051 46.3222L160.934 42.0688Z" fill="#FCD2B1"/>
<path d="M228.885 53.8782L235.045 60.0891C235.045 60.0891 241.919 59.9602 242.751 60.7684C243.584 61.5767 244.859 63.024 244.859 63.024L239.153 64.2216C239.153 64.2216 242.69 67.3793 242.166 67.7284C239.779 66.5228 237.255 64.917 237.255 64.917L226.313 56.4882L228.885 53.8782Z" fill="#FCD2B1"/>
<path d="M193.621 50.068C193.621 50.068 175.829 35.0498 159.401 41.317C159.401 43.8464 159.401 46.9237 159.401 46.9237C159.401 46.9237 176.403 45.4817 182.899 53.3144L181.261 88.5521L203.008 83.9336L204.676 58.8083C204.676 58.8083 219.96 51.8859 228.364 58.8083C230.848 57.898 233.141 56.5608 233.141 56.5608C233.141 56.5608 221.922 39.9395 199.831 50.6373C191.494 57.1354 193.621 50.068 193.621 50.068Z" fill="#2A94F4"/>
<path d="M199.831 49.2543C199.163 49.8263 199.831 54.8959 199.831 54.8959L196.29 59.5681L192.283 51.1635L195.734 43.8464L199.831 49.2543Z" fill="#FCD2B1"/>
<path d="M207.055 33.342C207.055 33.342 199.375 30.4017 197.756 30.8286C196.134 31.2556 193.575 36.8864 193.32 38.8493C193.065 40.8121 194.381 45.8818 194.381 45.8818L207.055 33.342Z" fill="#0B4870"/>
<path d="M209.584 40.5624C209.584 40.5624 204.99 51.9852 202.801 51.9637C200.613 51.9423 193.83 47.8071 194.048 46.2631C194.265 44.7218 196.225 38.5942 196.225 38.5942L201.813 33.342L206.083 35.3102L209.584 40.5624Z" fill="#FFE3CA"/>
<path d="M200.637 36.8891C203.105 39.722 212.06 44.9312 212.61 40.0871C213.158 35.2431 211.544 32.7405 211.544 32.7405C211.544 33.9273 207.055 33.3393 202.831 32.7754C199.737 32.3619 200.637 36.8891 200.637 36.8891Z" fill="#0B4870"/>
<path d="M201.813 36.5454L195.621 38.7633L199.716 32.7405L201.813 36.5454Z" fill="#0B4870"/>
<path d="M195.135 43.1886C195.89 43.1886 196.502 42.1979 196.502 40.976C196.502 39.754 195.89 38.7634 195.135 38.7634C194.38 38.7634 193.768 39.754 193.768 40.976C193.768 42.1979 194.38 43.1886 195.135 43.1886Z" fill="#FFE3CA"/>
</svg>
