<svg width="544" height="306" viewBox="0 0 544 306" fill="none" xmlns="http://www.w3.org/2000/svg">
<rect y="62" width="544" height="244" rx="20" fill="white"/>
<g opacity="0.19">
<path d="M323.694 80.1058C357.578 47.4913 413.464 63.6736 423.934 109.283C424.082 109.936 424.23 110.599 424.373 111.267C438.5 178.138 356.446 273.584 257.363 251.323C158.28 229.061 101.176 128.464 122.494 81.4777C143.812 34.4914 190.349 43.3705 242.491 90.9841C271.944 117.892 302.6 100.409 323.694 80.1058Z" fill="#CCE9FF"/>
</g>
<g opacity="0.39">
<path d="M358.272 161.905C387.036 132.09 410.745 153.648 421.445 193.458C421.598 194.03 421.751 194.606 421.894 195.192C436.511 253.603 293.165 276.527 205.215 260.156C117.271 243.79 142.205 156.045 142.205 156.045C174.738 52.6832 226.544 110.833 273.999 151.052C300.81 173.772 340.365 180.469 358.272 161.905Z" fill="#CCE9FF"/>
</g>
<path d="M303.36 207.193H272.908V219.014H303.36V207.193Z" fill="#F2F2F3"/>
<path d="M214.39 100.496H361.882C364.937 100.496 367.416 102.974 367.416 106.029V201.659C367.416 204.714 364.937 207.193 361.882 207.193H214.39C211.336 207.193 208.857 204.714 208.857 201.659V106.029C208.857 102.974 211.336 100.496 214.39 100.496Z" fill="#F7F7F7"/>
<path d="M367.411 105.177C367.411 102.592 365.315 100.496 362.729 100.496H213.539C210.953 100.496 208.857 102.592 208.857 105.177V194.31H367.411V105.177Z" fill="#084970"/>
<path d="M319.858 221.406H256.409C255.604 221.406 254.946 220.754 254.946 219.943V218.418C254.946 217.612 255.598 216.954 256.409 216.954H319.864C320.669 216.954 321.327 217.607 321.327 218.418V219.943C321.322 220.754 320.669 221.406 319.858 221.406Z" fill="#D3D3D3"/>
<path d="M361.765 107.906H215.13V187.053H361.765V107.906Z" fill="#CCE9FF"/>
<path d="M298.245 147.482H197.382C194.368 147.482 191.93 145.039 191.93 142.03V77.3874C191.93 74.3733 194.373 71.9355 197.382 71.9355H298.25C301.264 71.9355 303.702 74.3784 303.702 77.3874V142.025C303.697 145.039 301.259 147.482 298.245 147.482Z" fill="#2A94F4"/>
<path d="M373.403 197.171H302.274C299.127 197.171 296.572 194.616 296.572 191.469V147.094C296.572 143.947 299.127 141.392 302.274 141.392H373.398C376.545 141.392 379.1 143.947 379.1 147.094V191.469C379.105 194.621 376.55 197.171 373.403 197.171Z" fill="#0B4870"/>
<path d="M181.852 146.941C181.852 146.941 176.008 160.64 176.008 168.061C176.008 175.476 186.034 176.246 186.034 176.246L187.717 172.222C187.717 172.222 180.45 170.922 181.317 162.247L181.852 146.941Z" fill="#FFBE55"/>
<path d="M196.862 242.689C208.007 242.689 217.042 241.134 217.042 239.216C217.042 237.297 208.007 235.742 196.862 235.742C185.716 235.742 176.681 237.297 176.681 239.216C176.681 241.134 185.716 242.689 196.862 242.689Z" fill="#D3D3D3"/>
<path d="M191.007 138.409V141.755C191.007 141.755 192.007 143.458 193.353 143.575C194.699 143.693 195.898 142.112 195.898 142.112V138.649L191.007 138.409Z" fill="#FEE3CA"/>
<path d="M199.417 132.049C199.402 132.243 199.386 132.437 199.366 132.636C199.315 133.136 199.249 133.646 199.157 134.156C199.152 134.176 199.152 134.191 199.147 134.207C198.698 136.67 198.82 138.939 195.515 139.873C190.482 141.296 188.829 137.409 188.125 134.941C188.049 134.666 187.978 134.365 187.916 134.038C187.916 134.028 187.911 134.013 187.906 133.997C187.84 133.635 187.779 133.243 187.728 132.845C187.692 132.549 187.656 132.248 187.631 131.942C187.559 131.208 187.513 130.468 187.483 129.81C187.411 128.311 188.309 126.934 189.712 126.398C191.731 125.623 194.801 125.006 197.708 126.653C198.784 127.26 199.458 128.387 199.478 129.622C199.488 130.315 199.478 131.152 199.417 132.049Z" fill="#FEE3CA"/>
<path d="M188.676 137.736C188.676 137.736 187.172 134.854 186.402 132.213C185.698 129.79 185.779 127.985 186.346 126.689C186.907 125.394 188.263 123.966 190.369 123.456C192.476 122.951 195.24 122.997 196.637 122.676C199.004 122.125 200.508 122.798 201.176 123.588C202.39 125.027 201.605 128.168 199.335 128.694C199.335 128.694 197.907 129.096 198.361 130.254C198.825 131.448 198.116 132.549 198.116 132.549C198.116 132.549 197.601 131.335 196.632 131.422C196.632 131.422 195.036 131.422 195.291 133.819C195.5 135.783 196.627 135.997 197.326 135.686C197.326 135.686 197.158 137.119 196.362 137.853C195.842 138.333 194.567 139.373 193.628 139.659C192.333 140.036 189.956 140.556 188.676 137.736Z" fill="#084970"/>
<path d="M186.891 240.43C187.269 240.481 187.723 240.506 188.105 240.414L188.676 240.231L189.615 239.95C189.615 239.95 192.955 239.262 194.149 238.104C195.342 236.946 195.311 236.013 193.455 235.391C191.599 234.769 189.773 234.381 188.783 233.983C188.783 233.983 185.81 234.233 185.973 235.824C185.938 237.303 185.846 238.084 186.045 239.578C186.101 240.022 186.448 240.368 186.891 240.43Z" fill="#084970"/>
<path d="M189.747 231.938V235.064C188.768 235.294 187.712 235.406 186.886 235.018L186.697 231.703L189.747 231.938Z" fill="#FEE3CA"/>
<path d="M192.455 229.393C192.333 225.328 193.052 217.969 192.919 212.237C192.777 205.938 192.343 197.095 192.037 191.087H192.032C191.91 188.685 191.803 186.869 191.757 186.125L182.475 186.247C182.495 186.619 182.592 188.404 182.745 190.893C183.148 197.727 183.903 209.875 184.346 212.604C184.8 215.404 184.596 224.589 184.448 229.393C184.448 229.393 184.275 234.029 184.663 233.983C185.05 233.937 192.241 234.157 192.241 233.488C192.241 232.82 192.455 229.393 192.455 229.393Z" fill="#0B538C"/>
<path d="M191.762 186.125L182.48 186.247C182.5 186.619 182.597 188.404 182.75 190.893C185.902 191.281 189.181 191.444 192.037 191.087C191.915 188.68 191.808 186.864 191.762 186.125Z" fill="#0A4A72"/>
<path d="M198.417 240.43C198.795 240.481 199.249 240.506 199.631 240.414L200.202 240.231L201.141 239.95C201.141 239.95 204.481 239.262 205.675 238.104C206.868 236.946 206.837 236.013 204.981 235.391C203.125 234.769 201.299 234.381 200.309 233.983C200.309 233.983 197.336 234.233 197.499 235.824C197.464 237.303 197.372 238.084 197.571 239.578C197.627 240.022 197.974 240.368 198.417 240.43Z" fill="#084970"/>
<path d="M201.273 231.938V235.064C200.294 235.294 199.238 235.406 198.412 235.018L198.223 231.703L201.273 231.938Z" fill="#FEE3CA"/>
<path d="M203.981 229.393C203.859 225.328 204.578 217.969 204.445 212.237C204.303 205.938 203.869 197.095 203.563 191.087H203.558C203.436 188.685 203.329 186.869 203.283 186.125L194.001 186.247C194.021 186.619 194.118 188.404 194.271 190.893C194.674 197.727 195.429 209.875 195.872 212.604C196.326 215.404 196.122 224.589 195.974 229.393C195.974 229.393 195.801 234.029 196.189 233.983C196.576 233.937 203.767 234.157 203.767 233.488C203.767 232.82 203.981 229.393 203.981 229.393Z" fill="#0B538C"/>
<path d="M203.293 186.125L194.011 186.247C194.031 186.619 194.128 188.404 194.281 190.893C197.433 191.281 200.712 191.444 203.568 191.087C203.441 188.68 203.334 186.864 203.293 186.125Z" fill="#0A4A72"/>
<path d="M205.802 187.201C197.402 189.317 189.018 189.322 180.639 187.201C180.608 184.885 180.572 177.419 180.654 169.529C180.659 169.167 180.664 168.81 180.664 168.448C180.664 168.361 180.664 168.275 180.669 168.193C180.674 167.841 180.679 167.489 180.685 167.132C180.685 166.918 180.69 166.709 180.695 166.5C180.695 166.398 180.7 166.296 180.7 166.194C180.7 166.077 180.705 165.959 180.705 165.837C180.71 165.618 180.71 165.398 180.715 165.179C180.715 165.072 180.72 164.96 180.72 164.853C180.72 164.74 180.725 164.633 180.725 164.521C180.73 164.307 180.736 164.098 180.736 163.889C180.741 163.669 180.741 163.45 180.746 163.231C180.751 163.103 180.751 162.981 180.756 162.853C180.756 162.757 180.761 162.665 180.761 162.568C180.771 162.349 180.771 162.129 180.776 161.91C180.781 161.777 180.781 161.645 180.787 161.512C180.787 161.436 180.792 161.359 180.792 161.283C180.797 161.084 180.802 160.88 180.807 160.681C180.812 160.579 180.817 160.482 180.817 160.385V160.37C180.822 160.242 180.822 160.115 180.827 159.992V159.972C181.006 153.204 181.322 147.686 181.858 146.947C182.48 146.09 184.367 144.973 186.31 143.922C188.253 142.867 190.262 141.877 191.129 141.26C191.129 141.26 193.134 142.086 195.571 141.5C195.571 141.5 195.724 141.474 195.816 141.357L196.087 141.535C198.213 142.841 203.104 145.167 204.257 146.748C204.792 147.487 205.154 153.107 205.394 159.972C205.409 160.405 205.425 160.844 205.44 161.288C205.44 161.364 205.445 161.441 205.445 161.517C205.45 161.65 205.455 161.782 205.455 161.915C205.465 162.134 205.471 162.348 205.476 162.573C205.481 162.67 205.481 162.762 205.486 162.858C205.491 162.986 205.496 163.108 205.496 163.236C205.501 163.455 205.511 163.674 205.516 163.894C205.522 164.103 205.527 164.312 205.532 164.526C205.537 164.638 205.537 164.746 205.542 164.858C205.542 164.965 205.547 165.077 205.552 165.184C205.557 165.403 205.562 165.623 205.567 165.842C205.573 165.959 205.573 166.077 205.578 166.199C205.578 166.301 205.583 166.403 205.583 166.505C205.588 166.714 205.593 166.928 205.598 167.137C205.608 167.489 205.613 167.846 205.624 168.198C205.624 168.285 205.629 168.372 205.629 168.453C205.639 168.815 205.644 169.177 205.649 169.534C205.797 177.445 205.828 184.906 205.802 187.201Z" fill="#FFBE55"/>
<path d="M227.885 143.738C227.589 143.718 226.977 144.57 226.442 145.401C226.411 145.386 226.381 145.365 226.35 145.35C226.947 144.146 227.9 142.04 227.253 142.071C226.829 142.091 225.957 143.861 225.463 144.947C225.401 144.922 225.345 144.901 225.284 144.881C225.85 143.58 226.88 141.025 226.146 141.097C225.656 141.143 224.733 143.381 224.29 144.539C224.233 144.524 224.182 144.509 224.131 144.488C224.57 143.366 225.33 141.188 224.601 141.26C223.938 141.321 222.953 144.743 222.953 144.743L222.428 145.972C222.428 145.972 221.979 145.85 221.933 144.85C221.882 143.851 221.347 143.249 221.097 144.442C220.816 145.789 220.985 147.053 220.76 147.987C220.658 148.41 220.771 148.849 220.924 149.206C221.102 149.619 221.398 149.976 221.765 150.241C222.744 150.95 224.106 150.782 224.871 149.848C225.758 148.777 226.778 147.344 227.069 146.161C227.707 145.095 228.395 143.769 227.885 143.738Z" fill="#FEE3CA"/>
<path d="M224.228 150.374C224.228 150.374 221.122 160.293 215.257 164.812C214.319 165.536 213.008 165.801 211.897 165.388C209.994 164.679 207.113 163.537 205.44 161.283C205.44 161.283 202.4 150.97 204.257 146.742C204.257 146.742 207.587 153.913 213.049 158.33C213.064 158.345 213.085 158.36 213.1 158.37C213.182 158.437 213.258 158.498 213.34 158.559C213.34 158.559 213.442 158.478 213.615 158.34C213.631 158.325 213.651 158.314 213.666 158.299C214.436 157.677 216.405 156.045 217.609 154.632C219.128 152.847 220.888 149.124 220.888 149.124C221.826 149.915 222.923 150.363 224.228 150.374Z" fill="#FFBE55"/>
<path d="M213.86 161.614C213.768 161.639 213.676 161.619 213.605 161.563C213.564 161.527 213.529 161.481 213.513 161.42C213.238 160.456 213.095 159.406 213.049 158.324C213.064 158.34 213.085 158.355 213.1 158.365C213.182 158.432 213.258 158.493 213.34 158.554C213.34 158.554 213.442 158.472 213.615 158.335C213.656 159.36 213.789 160.354 214.049 161.262C214.095 161.42 214.008 161.573 213.86 161.614Z" fill="#FDBD56"/>
<path d="M356.043 95.8035H298.275C296.046 95.8035 294.236 97.614 294.236 99.8427V117.647C294.236 119.875 296.046 121.686 298.275 121.686H346.271L342.416 129.892L354.35 121.686H356.043C358.272 121.686 360.082 119.875 360.082 117.647V99.8427C360.082 97.614 358.277 95.8035 356.043 95.8035Z" fill="#FFBE55"/>
<path d="M354.375 103.03H299.464V104.652H354.375V103.03Z" fill="white"/>
<path d="M354.375 107.569H299.464V109.191H354.375V107.569Z" fill="white"/>
<path d="M354.375 112.511H299.464V114.133H354.375V112.511Z" fill="white"/>
<path d="M226.829 162.93H284.597C286.826 162.93 288.636 164.74 288.636 166.969V184.773C288.636 187.002 286.826 188.812 284.597 188.812H236.601L240.457 197.018L228.523 188.812H226.829C224.601 188.812 222.79 187.002 222.79 184.773V166.969C222.79 164.735 224.601 162.93 226.829 162.93Z" fill="#2A94F4"/>
<path d="M283.108 170.044H228.196V171.666H283.108V170.044Z" fill="white"/>
<path d="M283.108 174.583H228.196V176.205H283.108V174.583Z" fill="white"/>
<path d="M283.108 179.52H228.196V181.142H283.108V179.52Z" fill="white"/>
<path d="M250.988 80.0242C250.988 80.0242 246.245 79.1266 242.338 81.6511C238.437 84.1756 238.641 88.7095 235.209 89.8468C231.776 90.9841 231.164 95.6557 232.541 99.0982C233.918 102.541 233.23 107.365 230.399 108.513C227.569 109.66 229.915 116.933 235.209 115.785C240.502 114.638 239.202 110.614 245.398 113.965C251.595 117.315 257.705 111.139 257.705 111.139C257.705 111.139 264.263 114.949 266.166 110.93C268.068 106.911 261.866 106.769 263.697 101.76C265.528 96.7522 262.743 88.4341 261.494 86.5981C260.244 84.7621 256.68 79.7029 250.988 80.0242Z" fill="#0E538C"/>
<path d="M261.117 99.1133C262.274 99.1133 263.213 98.1749 263.213 97.0172C263.213 95.8596 262.274 94.9211 261.117 94.9211C259.959 94.9211 259.021 95.8596 259.021 97.0172C259.021 98.1749 259.959 99.1133 261.117 99.1133Z" fill="#FCD2B1"/>
<path d="M237.983 99.1133C239.141 99.1133 240.079 98.1749 240.079 97.0172C240.079 95.8596 239.141 94.9211 237.983 94.9211C236.825 94.9211 235.887 95.8596 235.887 97.0172C235.887 98.1749 236.825 99.1133 237.983 99.1133Z" fill="#FCD2B1"/>
<path d="M249.545 110.196C256.147 110.196 261.499 103.976 261.499 96.3033C261.499 88.6307 256.147 82.4109 249.545 82.4109C242.943 82.4109 237.59 88.6307 237.59 96.3033C237.59 103.976 242.943 110.196 249.545 110.196Z" fill="#FEE3CA"/>
<path d="M252.559 107.07H246.531V120.855H252.559V107.07Z" fill="#FEE3CA"/>
<path d="M254.634 89.9487C254.634 89.9487 244.7 98.4657 237.442 97.3845C230.185 96.3033 242.466 79.3968 247.846 80.0445C253.232 80.6922 258.505 81.3348 261.305 90.2751C261.31 90.27 259.587 84.3489 254.634 89.9487Z" fill="#0E538C"/>
<path d="M255.843 88.7502C255.843 88.7502 258.041 93.9879 261.239 94.7682C264.437 95.5485 260.872 87.4701 259.041 85.3587C257.205 83.2473 255.843 88.7502 255.843 88.7502Z" fill="#0E538C"/>
<path d="M211.698 105.075C211.698 105.075 208.265 94.6101 209.362 94.2429C210.458 93.8757 211.295 97.8843 211.295 97.8843C211.295 97.8843 208.632 92.361 209.678 92.31C210.723 92.259 212.182 97.4763 212.182 97.4763C212.182 97.4763 209.413 90.6372 210.147 90.219C210.341 90.1068 210.657 90.5352 211.014 91.2237C212.009 93.126 213.33 97.0122 213.33 97.0122C213.33 97.0122 211.086 90.9993 211.448 90.7902C211.815 90.5811 215.364 96.0126 215.574 98.5677C215.783 101.128 216.772 95.6454 217.716 95.5383C218.654 95.4363 217.088 101.908 217.088 101.908L216.39 106.034L213.579 110.522H211.764L211.698 105.075Z" fill="#FEE3CA"/>
<path d="M231.965 120.855C231.965 120.855 239.008 115.224 246.525 115.413C246.525 115.413 247.658 118.137 249.54 118.131C251.421 118.126 252.554 115.408 252.554 115.408C252.554 115.408 260.403 115.694 265.084 118.968C269.761 122.242 287.82 147.411 287.82 147.411H273.316L262.932 130.29C262.932 130.29 267.145 137.588 266.115 143.484C265.084 149.379 264.896 147.416 264.896 147.416L234.862 147.732C234.862 147.732 230.088 138.185 234.112 131.575C234.112 131.575 211.937 143.769 203.42 140.403C194.908 137.037 210.999 104.943 210.999 104.943L216.894 106.162C216.894 106.162 207.444 129.27 210.438 130.3C213.442 131.32 231.965 120.855 231.965 120.855Z" fill="#084970"/>
<path d="M327.121 160.686C328 160.686 328.712 159.973 328.712 159.095C328.712 158.216 328 157.503 327.121 157.503C326.242 157.503 325.53 158.216 325.53 159.095C325.53 159.973 326.242 160.686 327.121 160.686Z" fill="#FCD2B1"/>
<path d="M344.655 160.686C345.533 160.686 346.246 159.973 346.246 159.095C346.246 158.216 345.533 157.503 344.655 157.503C343.776 157.503 343.063 158.216 343.063 159.095C343.063 159.973 343.776 160.686 344.655 160.686Z" fill="#FCD2B1"/>
<path d="M335.893 169.08C340.898 169.08 344.955 164.365 344.955 158.549C344.955 152.732 340.898 148.017 335.893 148.017C330.888 148.017 326.83 152.732 326.83 158.549C326.83 164.365 330.888 169.08 335.893 169.08Z" fill="#FEE3CA"/>
<path d="M333.608 177.162L338.178 177.162L338.178 166.712L333.608 166.712L333.608 177.162Z" fill="#FEE3CA"/>
<path d="M364.585 165.199C364.585 165.199 367.186 157.264 366.355 156.988C365.524 156.713 364.891 159.752 364.891 159.752C364.891 159.752 366.911 155.565 366.12 155.525C365.33 155.484 364.223 159.441 364.223 159.441C364.223 159.441 366.319 154.26 365.768 153.944C365.621 153.862 365.381 154.183 365.111 154.703C364.356 156.147 363.356 159.095 363.356 159.095C363.356 159.095 365.06 154.54 364.779 154.382C364.504 154.224 361.811 158.34 361.653 160.278C361.495 162.216 360.745 158.059 360.031 157.983C359.317 157.901 360.505 162.812 360.505 162.812L361.036 165.939L363.162 169.34H364.539L364.585 165.199Z" fill="#FEE3CA"/>
<path d="M349.219 177.164C349.219 177.164 343.879 172.895 338.183 173.038C338.183 173.038 337.326 175.104 335.898 175.098C334.47 175.093 333.613 173.033 333.613 173.033C333.613 173.033 327.661 173.247 324.117 175.731C320.572 178.215 311.811 197.294 311.811 197.294H317.874L325.749 184.314C325.749 184.314 325.723 186.237 325.484 191.704C325.341 194.953 325.203 197.304 325.203 197.304L347.021 197.533C347.021 197.533 347.648 196.029 347.587 185.283C347.587 185.283 364.397 194.529 370.848 191.974C377.3 189.419 365.106 165.092 365.106 165.092L360.638 166.015C360.638 166.015 367.803 183.534 365.534 184.314C363.259 185.094 349.219 177.164 349.219 177.164Z" fill="#FFBE55"/>
<path d="M344.91 157.524C344.91 157.524 336.046 156.213 332.838 153.928C332.838 153.928 327.83 158.717 326.606 157.59C325.382 156.463 328.426 147.609 334.761 147.609C341.095 147.609 346.373 152.424 345.506 156.861C344.639 161.298 344.91 157.524 344.91 157.524Z" fill="#0E538C"/>
<path d="M244.042 115.551C244.042 115.551 243.639 118.198 245.873 119.651C248.107 121.105 249.545 118.131 249.545 118.131C249.545 118.131 247.342 117.611 246.531 115.413C246.531 115.413 244.904 115.418 244.042 115.551Z" fill="#CDE8F9"/>
<path d="M252.559 115.408L255.257 115.668C255.257 115.668 253.946 119.167 252.237 119.84C250.529 120.513 249.545 118.136 249.545 118.136C249.545 118.136 251.416 117.667 252.559 115.408Z" fill="#CDE8F9"/>
<path d="M237.59 96.3035C237.59 96.3035 241.854 85.9607 247.811 85.2875C253.768 84.6194 258.913 85.0682 261.31 93.4118C261.31 93.4118 261.066 84.2216 250.631 83.9411C240.196 83.6606 237.738 95.2223 237.59 96.3035Z" fill="#FDBD56"/>
<path opacity="0.75" d="M249.672 144.723C252.303 144.723 254.436 142.59 254.436 139.959C254.436 137.329 252.303 135.196 249.672 135.196C247.041 135.196 244.909 137.329 244.909 139.959C244.909 142.59 247.041 144.723 249.672 144.723Z" fill="#FDBD56"/>
<path opacity="0.75" d="M264.197 144.723C266.828 144.723 268.96 142.59 268.96 139.959C268.96 137.329 266.828 135.196 264.197 135.196C261.566 135.196 259.434 137.329 259.434 139.959C259.434 142.59 261.566 144.723 264.197 144.723Z" fill="#FDBD56"/>
<path opacity="0.75" d="M234.51 144.723C237.141 144.723 239.273 142.59 239.273 139.959C239.273 137.329 237.141 135.196 234.51 135.196C231.879 135.196 229.746 137.329 229.746 139.959C229.746 142.59 231.879 144.723 234.51 144.723Z" fill="#FDBD56"/>
<path d="M251.656 139.189L250.83 139.506V139.251C250.83 139.026 250.646 138.843 250.422 138.843H247.928C247.704 138.843 247.52 139.026 247.52 139.251V140.668C247.52 140.893 247.704 141.076 247.928 141.076H250.422C250.646 141.076 250.83 140.893 250.83 140.668V140.459L251.661 140.73C251.748 140.76 251.84 140.694 251.84 140.602V139.317C251.84 139.22 251.748 139.154 251.656 139.189Z" fill="#F7F7F7"/>
<path d="M234.51 141.209C234.005 141.209 233.597 140.801 233.597 140.296V138.297C233.597 137.792 234.005 137.384 234.51 137.384C235.015 137.384 235.423 137.792 235.423 138.297V140.296C235.423 140.801 235.015 141.209 234.51 141.209Z" fill="#F7F7F7"/>
<path d="M233.291 139.465V140.49C233.291 141.163 233.837 141.714 234.515 141.714C235.188 141.714 235.739 141.168 235.739 140.49V139.465" stroke="#F7F7F7" stroke-width="0.25" stroke-miterlimit="10"/>
<path d="M234.867 139.959H234.107V142.341H234.867V139.959Z" fill="#F7F7F7"/>
<path d="M235.632 142.168H233.347V142.509H235.632V142.168Z" fill="#F7F7F7"/>
<path d="M266.329 141.071L265.656 140.398C265.523 140.266 265.299 140.271 265.161 140.408L264.819 140.745C264.799 140.735 264.773 140.719 264.753 140.709C264.539 140.592 264.248 140.429 263.937 140.118C263.626 139.807 263.463 139.516 263.345 139.302C263.33 139.281 263.32 139.256 263.31 139.235L263.539 139.006L263.651 138.894C263.789 138.756 263.794 138.532 263.661 138.399L262.988 137.726C262.856 137.593 262.631 137.598 262.494 137.736L262.305 137.925L262.31 137.93C262.249 138.011 262.193 138.103 262.152 138.205C262.116 138.302 262.091 138.394 262.08 138.486C261.994 139.225 262.33 139.898 263.243 140.811C264.508 142.076 265.523 141.979 265.569 141.974C265.666 141.964 265.758 141.938 265.849 141.903C265.951 141.862 266.043 141.811 266.125 141.745L266.13 141.75L266.324 141.561C266.461 141.423 266.461 141.204 266.329 141.071Z" fill="#F7F7F7"/>
<path opacity="0.75" d="M336.097 194.912C337.784 194.912 339.152 193.544 339.152 191.857C339.152 190.17 337.784 188.802 336.097 188.802C334.41 188.802 333.042 190.17 333.042 191.857C333.042 193.544 334.41 194.912 336.097 194.912Z" fill="#0B538C"/>
<path opacity="0.75" d="M345.409 194.912C347.097 194.912 348.464 193.544 348.464 191.857C348.464 190.17 347.097 188.802 345.409 188.802C343.722 188.802 342.354 190.17 342.354 191.857C342.354 193.544 343.722 194.912 345.409 194.912Z" fill="#0B538C"/>
<path opacity="0.75" d="M326.376 194.912C328.063 194.912 329.431 193.544 329.431 191.857C329.431 190.17 328.063 188.802 326.376 188.802C324.689 188.802 323.321 190.17 323.321 191.857C323.321 193.544 324.689 194.912 326.376 194.912Z" fill="#0B538C"/>
<path d="M337.367 191.362L336.836 191.566V191.403C336.836 191.26 336.719 191.143 336.576 191.143H334.98C334.837 191.143 334.72 191.26 334.72 191.403V192.311C334.72 192.454 334.837 192.571 334.98 192.571H336.576C336.719 192.571 336.836 192.454 336.836 192.311V192.178L337.372 192.352C337.428 192.372 337.484 192.326 337.484 192.27V191.449C337.489 191.383 337.428 191.337 337.367 191.362Z" fill="#F7F7F7"/>
<path d="M326.504 192.658H326.254C325.999 192.658 325.795 192.454 325.795 192.199V190.669C325.795 190.414 325.999 190.21 326.254 190.21H326.504C326.759 190.21 326.963 190.414 326.963 190.669V192.199C326.963 192.454 326.759 192.658 326.504 192.658Z" fill="#F7F7F7"/>
<path d="M325.596 191.536V192.194C325.596 192.627 325.948 192.979 326.381 192.979C326.815 192.979 327.167 192.627 327.167 192.194V191.536" stroke="#F7F7F7" stroke-width="0.25" stroke-miterlimit="10"/>
<path d="M326.606 191.852H326.121V193.377H326.606V191.852Z" fill="#F7F7F7"/>
<path d="M327.095 193.27H325.632V193.489H327.095V193.27Z" fill="#F7F7F7"/>
<path d="M346.776 192.566L346.343 192.132C346.256 192.046 346.113 192.051 346.026 192.137L345.807 192.357C345.792 192.352 345.782 192.341 345.766 192.331C345.629 192.255 345.44 192.153 345.241 191.954C345.042 191.755 344.94 191.566 344.864 191.429C344.853 191.413 344.848 191.398 344.838 191.388L344.986 191.24L345.057 191.168C345.144 191.082 345.149 190.939 345.063 190.852L344.629 190.419C344.542 190.332 344.4 190.337 344.313 190.424L344.19 190.546L344.196 190.551C344.155 190.602 344.119 190.664 344.094 190.73C344.068 190.791 344.058 190.852 344.048 190.908C343.992 191.383 344.206 191.811 344.792 192.398C345.603 193.208 346.256 193.147 346.281 193.142C346.343 193.137 346.404 193.122 346.46 193.096C346.526 193.071 346.582 193.035 346.638 192.994H346.644L346.766 192.872C346.858 192.795 346.858 192.653 346.776 192.566Z" fill="#F7F7F7"/>
</svg>
