<svg width="544" height="306" viewBox="0 0 544 306" fill="none" xmlns="http://www.w3.org/2000/svg">
<rect y="62" width="544" height="244" rx="20" fill="white"/>
<g opacity="0.05">
<path d="M431.617 208.877C401.814 187.113 393.929 174.758 393.929 174.758C508.209 37.7246 277.284 -7.01 232.294 87.2068C213.541 126.48 175.352 125.643 110.408 137.981C50.4262 149.376 52.2973 211.261 101.739 259.687H459.256C467.645 230.497 445.218 218.808 431.617 208.877Z" fill="#2A94F4"/>
</g>
<path opacity="0.1" d="M207.78 56.9906C207.78 56.9906 204.513 52.6865 202.511 50.7141C198.904 47.1619 194.769 40.8835 181.542 45.511C180.514 45.8706 179.518 46.3475 178.529 46.828C177.363 47.3938 173.751 47.4086 170.052 44.0448C164.174 38.6993 161.875 34.6659 153.822 34.5407C144.452 34.3947 142.978 47.7731 135.695 51.1971C131.061 53.3764 118.833 55.5422 116.304 56.5076L207.78 56.9906Z" fill="#2A94F4"/>
<path d="M113.143 236.677C113.761 236.715 129.352 234.838 130.061 220.3C130.77 205.762 120.834 202.161 123.449 185.977C126.064 169.792 132.924 165.142 117.55 153.329C117.55 153.329 110.695 148.573 110.376 141.9C109.994 133.914 96.2439 124.644 87.0215 129.972C77.7991 135.3 79.9664 143.531 87.8631 156.851C95.7598 170.17 88.1501 172.496 86.6322 176.802C85.115 181.108 81.595 185.626 89.6552 195.918C97.7153 206.21 88.1128 218.776 94.9739 228.631C94.9739 228.631 100.995 235.926 113.143 236.677Z" fill="#2A94F4"/>
<path d="M110.708 258.961C110.374 258.875 110.158 258.543 110.224 258.199C118.599 213.824 101.527 153.308 101.353 152.702C101.253 152.352 101.455 151.986 101.804 151.886C102.153 151.784 102.519 151.987 102.619 152.338C102.793 152.947 119.95 213.765 111.517 258.444C111.45 258.802 111.105 259.037 110.748 258.97C110.735 258.967 110.721 258.964 110.708 258.961Z" fill="#0B4870"/>
<path d="M107.212 176.456C107.176 176.446 107.14 176.434 107.105 176.418C106.773 176.269 106.624 175.879 106.773 175.546C106.807 175.468 110.288 167.625 111.716 160.929C111.792 160.573 112.141 160.346 112.497 160.422C112.856 160.497 113.079 160.849 113.003 161.205C111.547 168.04 108.01 176.005 107.975 176.085C107.842 176.382 107.517 176.533 107.212 176.456Z" fill="#0B4870"/>
<path d="M109.464 189.88C109.373 189.857 109.284 189.813 109.207 189.749C105.897 187.004 97.5721 181.837 97.4883 181.785C97.1792 181.594 97.0831 181.187 97.2747 180.877C97.465 180.567 97.869 180.467 98.1805 180.663C98.5251 180.876 106.666 185.929 110.046 188.732C110.326 188.964 110.365 189.38 110.133 189.661C109.966 189.865 109.703 189.941 109.464 189.88Z" fill="#0B4870"/>
<path d="M111.333 202.951C111.287 202.939 111.242 202.922 111.197 202.9C110.873 202.735 110.743 202.338 110.907 202.012L115.547 192.822C115.711 192.497 116.106 192.365 116.432 192.532C116.756 192.697 116.886 193.094 116.721 193.419L112.081 202.61C111.94 202.89 111.625 203.025 111.333 202.951Z" fill="#0B4870"/>
<path d="M255.287 90.5013L254.712 88.8535L254.136 90.5013C253.65 91.8908 252.497 93.0636 250.935 93.7559C252.497 94.4488 253.65 95.6216 254.136 97.0104L254.712 98.6589L255.287 97.0104C255.773 95.621 256.927 94.4488 258.489 93.7559C256.927 93.0636 255.773 91.8908 255.287 90.5013Z" fill="white"/>
<path d="M351.803 71.8568L350.836 69.0933L349.871 71.8568C349.057 74.1865 347.123 76.1529 344.504 77.3146C347.123 78.4764 349.057 80.4428 349.871 82.7724L350.836 85.536L351.803 82.7724C352.617 80.4428 354.551 78.4764 357.17 77.3146C354.551 76.1522 352.617 74.1859 351.803 71.8568Z" fill="white"/>
<g opacity="0.5">
<path d="M400.562 245.234H158.177V114.013C158.177 112.831 159.131 111.874 160.31 111.874H398.429C399.607 111.874 400.562 112.831 400.562 114.013V245.234Z" fill="#2A94F4"/>
<path d="M411.895 259.335H146.843C145.63 259.335 144.647 258.349 144.647 257.133V245.235H414.092V257.133C414.091 258.349 413.108 259.335 411.895 259.335Z" fill="#2A94F4"/>
<path d="M247.88 245.234L250.717 247.97C251.842 249.056 253.343 249.662 254.905 249.662H304.249C305.988 249.662 307.643 248.911 308.79 247.599L310.859 245.234H247.88Z" fill="white"/>
<path d="M391.544 120.696H167.194V237.599H391.544V120.696Z" fill="#F7F7F7"/>
</g>
<path d="M82.9539 259.335H479" stroke="#102236" stroke-width="0.3749" stroke-miterlimit="10" stroke-linecap="round" stroke-linejoin="round"/>
<path d="M285.264 90.2142C302.01 90.2142 315.585 76.6018 315.585 59.81C315.585 43.0182 302.01 29.4058 285.264 29.4058C268.517 29.4058 254.942 43.0182 254.942 59.81C254.942 76.6018 268.517 90.2142 285.264 90.2142Z" fill="#FFBE55"/>
<path d="M285.264 85.5352C271.117 85.5352 259.608 73.9948 259.608 59.8099C259.608 45.6251 271.117 34.0847 285.264 34.0847C299.41 34.0847 310.919 45.6251 310.919 59.8099C310.919 73.9948 299.41 85.5352 285.264 85.5352Z" fill="#FFBE55"/>
<path d="M290.699 58.9031C292.566 58.2471 293.752 56.3139 293.752 53.9222C293.752 50.5842 291.483 48.3816 287.857 48.1447V45.1626H284.217V48.1226H282.547V45.1626H278.907V48.1226H276.195V52.8095H278.79V66.4052H276.195V71.0897H278.907V74.456H282.547V71.0897H284.217V74.456H287.857V71.0836C291.824 70.9541 294.332 68.5269 294.332 64.7028C294.332 61.7532 292.944 59.4935 290.699 58.9031ZM283.381 52.8095H286.94C287.281 52.8095 287.59 52.8666 287.857 52.9783C288.579 53.279 289.008 53.9682 289.008 54.9704C289.008 56.0217 288.579 56.7588 287.857 57.0816C287.59 57.2001 287.281 57.2639 286.94 57.2639H283.381V52.8095ZM287.857 66.3242C287.579 66.3991 287.272 66.4384 286.94 66.4384L283.381 66.4052V61.5888H286.94C287.273 61.5888 287.579 61.628 287.857 61.7029C288.927 61.9883 289.564 62.8021 289.564 63.9479C289.564 65.1962 288.927 66.0327 287.857 66.3242Z" fill="white"/>
<path d="M158.128 135.475C168.97 135.475 177.759 126.661 177.759 115.79C177.759 104.918 168.97 96.1047 158.128 96.1047C147.285 96.1047 138.496 104.918 138.496 115.79C138.496 126.661 147.285 135.475 158.128 135.475Z" fill="#FFBE55"/>
<path d="M158.128 132.446C148.968 132.446 141.517 124.974 141.517 115.79C141.517 106.606 148.969 99.1343 158.128 99.1343C167.286 99.1343 174.738 106.606 174.738 115.79C174.738 124.974 167.287 132.446 158.128 132.446Z" fill="#FFBE55"/>
<path d="M167.846 114.628C167.559 112.907 165.934 111.68 164.205 111.874C162.749 112.038 161.625 113.122 161.332 114.479L160.064 114.632C158.818 114.781 157.572 114.349 156.685 113.46L155.782 112.555C156.388 111.306 156.172 109.758 155.128 108.727C153.888 107.503 151.855 107.461 150.568 108.636C149.158 109.924 149.119 112.115 150.453 113.453C151.481 114.483 153.014 114.693 154.251 114.09L154.876 114.716C155.854 115.696 156.271 117.106 155.985 118.463L155.781 119.43C154.407 119.602 153.231 120.629 152.939 122.069C152.593 123.779 153.668 125.51 155.351 125.951C157.197 126.432 159.049 125.269 159.439 123.419C159.74 121.993 159.079 120.59 157.899 119.88C158.26 118.162 159.674 116.866 161.412 116.656L161.589 116.635C162.19 117.876 163.525 118.661 164.969 118.487C166.841 118.261 168.162 116.515 167.846 114.628Z" fill="white"/>
<path d="M308.182 286.812H268.92V292.426H308.182V286.812Z" fill="#FFBE55"/>
<path d="M288.551 278.851C277.709 278.851 268.92 284.929 268.92 292.425C268.92 299.922 277.709 306 288.551 306C299.393 306 308.182 299.922 308.182 292.425C308.183 284.929 299.394 278.851 288.551 278.851Z" fill="#FFBE55"/>
<path d="M288.551 300.386C299.394 300.386 308.183 294.309 308.183 286.811C308.183 279.314 299.394 273.237 288.551 273.237C277.709 273.237 268.92 279.314 268.92 286.811C268.92 294.309 277.709 300.386 288.551 300.386Z" fill="#FFBE55"/>
<path d="M288.551 298.297C279.392 298.297 271.941 293.145 271.941 286.811C271.941 280.478 279.393 275.326 288.551 275.326C297.71 275.326 305.162 280.478 305.162 286.811C305.162 293.145 297.711 298.297 288.551 298.297Z" fill="#FFBE55"/>
<path d="M298.27 286.01C297.983 284.823 296.358 283.978 294.629 284.112C293.172 284.224 292.049 284.972 291.755 285.908L290.487 286.013C289.241 286.117 287.996 285.819 287.109 285.205L286.205 284.58C286.811 283.719 286.596 282.652 285.551 281.941C284.311 281.097 282.278 281.068 280.991 281.878C279.581 282.766 279.542 284.278 280.876 285.2C281.904 285.91 283.437 286.055 284.675 285.639L285.299 286.071C286.277 286.747 286.694 287.719 286.409 288.654L286.204 289.322C284.83 289.44 283.654 290.149 283.362 291.142C283.017 292.321 284.091 293.515 285.774 293.818C287.62 294.151 289.472 293.348 289.862 292.072C290.163 291.088 289.502 290.121 288.322 289.631C288.683 288.447 290.097 287.553 291.835 287.408L292.012 287.394C292.614 288.25 293.948 288.791 295.392 288.671C297.265 288.516 298.585 287.311 298.27 286.01Z" fill="white"/>
<path opacity="0.16" d="M277.685 170.268H189.748C189.4 170.268 189.117 169.984 189.117 169.635V141.62C189.117 141.271 189.399 140.987 189.748 140.987H277.684C278.033 140.987 278.315 141.271 278.315 141.62V169.635C278.316 169.984 278.033 170.268 277.685 170.268Z" fill="#B8B8B8"/>
<path d="M284.569 162.086H200.225C199.883 162.086 199.606 161.809 199.606 161.466V133.425C199.606 133.082 199.883 132.805 200.225 132.805H284.569C284.911 132.805 285.188 133.082 285.188 133.425V161.466C285.187 161.809 284.91 162.086 284.569 162.086Z" fill="#FFBE55"/>
<path d="M271.254 143.68H210.852C210.328 143.68 209.904 143.255 209.904 142.729C209.904 142.203 210.328 141.779 210.852 141.779H271.254C271.778 141.779 272.202 142.203 272.202 142.729C272.202 143.255 271.778 143.68 271.254 143.68Z" fill="white"/>
<path d="M238.761 153.113H210.852C210.328 153.113 209.904 152.689 209.904 152.163C209.904 151.637 210.328 151.212 210.852 151.212H238.761C239.286 151.212 239.709 151.637 239.709 152.163C239.709 152.689 239.286 153.113 238.761 153.113Z" fill="white"/>
<path opacity="0.16" d="M239.733 220.641H158.177V189.843C158.177 189.496 158.457 189.214 158.804 189.214H239.733C240.08 189.214 240.361 189.496 240.361 189.843V220.011C240.361 220.359 240.08 220.641 239.733 220.641Z" fill="#B8B8B8"/>
<path d="M253.964 211.859H138.901C138.488 211.859 138.153 211.524 138.153 211.11V181.182C138.153 180.768 138.488 180.433 138.901 180.433H253.964C254.377 180.433 254.712 180.768 254.712 181.182V211.11C254.712 211.524 254.377 211.859 253.964 211.859Z" fill="#FFBE55"/>
<path d="M240.888 192.104H176.061C175.498 192.104 175.044 191.648 175.044 191.084C175.044 190.52 175.498 190.064 176.061 190.064H240.888C241.451 190.064 241.906 190.52 241.906 191.084C241.906 191.648 241.451 192.104 240.888 192.104Z" fill="white"/>
<path d="M206.015 202.229H176.061C175.498 202.229 175.044 201.773 175.044 201.209C175.044 200.645 175.498 200.189 176.061 200.189H206.015C206.577 200.189 207.032 200.645 207.032 201.209C207.032 201.773 206.578 202.229 206.015 202.229Z" fill="white"/>
<path d="M166.21 204.927H147.455C147.087 204.927 146.789 204.628 146.789 204.26V187.303C146.789 186.934 147.087 186.635 147.455 186.635H166.21C166.577 186.635 166.875 186.934 166.875 187.303V204.26C166.875 204.629 166.577 204.927 166.21 204.927Z" fill="white"/>
<path d="M372.546 229.695H287.295C286.841 229.695 286.472 229.326 286.472 228.87V179.38C286.472 178.924 286.841 178.554 287.295 178.554H372.546C373.001 178.554 373.369 178.924 373.369 179.38V228.87C373.369 229.326 373.001 229.695 372.546 229.695Z" fill="#EBEDFD"/>
<path d="M353.836 189.999H353.23V220.345H353.836V189.999Z" fill="white"/>
<path d="M344.702 189.999H344.097V220.345H344.702V189.999Z" fill="white"/>
<path d="M335.568 189.999H334.963V220.345H335.568V189.999Z" fill="white"/>
<path d="M326.435 189.999H325.83V220.345H326.435V189.999Z" fill="white"/>
<path d="M317.302 189.999H316.696V220.345H317.302V189.999Z" fill="white"/>
<path d="M308.168 189.999H307.562V220.345H308.168V189.999Z" fill="white"/>
<path d="M360.323 223.837H300.331V224.443H360.323V223.837Z" fill="white"/>
<path d="M321.607 219.336C321.365 219.336 321.117 219.306 320.867 219.244C317.387 218.386 315.592 215.18 314.147 212.605C313.141 210.808 312.19 209.11 311.15 209.11C307.761 209.11 305.629 213.124 303.914 216.35C303.583 216.974 303.272 217.557 302.976 218.068C302.659 218.617 301.96 218.811 301.405 218.483C300.857 218.165 300.671 217.458 300.991 216.909C301.273 216.421 301.57 215.862 301.887 215.267C303.784 211.696 306.382 206.806 311.15 206.806C313.536 206.806 314.806 209.075 316.152 211.476C317.505 213.891 318.903 216.388 321.416 217.007C321.626 217.06 321.771 217.037 321.941 216.925C323.426 215.943 324.288 210.733 324.98 206.547C326.022 200.248 326.849 195.255 329.929 195.255C329.97 195.255 330.012 195.255 330.054 195.259C333.151 195.391 334.079 199.439 335.059 203.725C335.878 207.304 336.806 211.362 338.81 211.656C341.18 212.006 342.101 211.198 343.271 210.182C344.357 209.239 345.718 208.071 348.174 208.293C350.368 208.496 351.61 209.945 352.704 211.224C354.203 212.972 355.603 214.621 359.619 214.216C360.255 214.177 360.814 214.614 360.879 215.246C360.942 215.878 360.484 216.444 359.851 216.509C354.649 217.039 352.606 214.647 350.962 212.727C349.855 211.436 349.172 210.7 347.963 210.587C346.471 210.448 345.763 211.068 344.776 211.925C343.488 213.045 341.889 214.433 338.476 213.936C334.917 213.415 333.851 208.752 332.819 204.243C332.143 201.292 331.303 197.619 329.956 197.561C329.952 197.561 329.947 197.561 329.941 197.561C328.798 197.561 327.751 203.881 327.248 206.925C326.363 212.268 325.529 217.313 323.206 218.849C322.716 219.172 322.173 219.336 321.607 219.336Z" fill="#FFBE55"/>
<path d="M242.401 284.113L183.174 274.755C182.67 274.676 182.327 274.202 182.406 273.697C182.486 273.192 182.958 272.847 183.461 272.927L242.689 282.286C243.192 282.365 243.536 282.839 243.456 283.343C243.376 283.848 242.904 284.193 242.401 284.113Z" fill="#FFBE55"/>
<path d="M222.519 288.12H169.225C168.773 288.12 168.405 287.752 168.405 287.297C168.405 286.843 168.773 286.475 169.225 286.475H222.519C222.972 286.475 223.34 286.843 223.34 287.297C223.34 287.752 222.972 288.12 222.519 288.12Z" fill="#FFBE55"/>
<path opacity="0.1" d="M303.189 9.85929C303.189 9.85929 304.828 7.96904 305.832 7.10309C307.641 5.54302 309.716 2.78558 316.35 4.81822C316.866 4.97594 317.366 5.18583 317.862 5.39695C318.447 5.64551 320.259 5.65164 322.115 4.17442C325.063 1.82695 326.216 0.0557606 330.256 0.000525955C334.956 -0.0639145 335.696 5.81183 339.348 7.31544C341.673 8.27223 347.807 9.22348 349.076 9.64756L303.189 9.85929Z" fill="#2A94F4"/>
<path d="M426.787 273.022C426.787 273.022 429.124 279.936 429.605 281.081C430.001 282.026 430.852 282.66 431.659 283.291C431.917 283.493 432.174 283.949 432.392 284.333C432.567 284.642 432.556 285.007 432.415 285.333C429.968 291.032 423.342 293.011 423.213 292.566C422.982 291.764 424.033 290.232 425.439 289.514C426.854 288.791 427.728 287.313 427.876 285.728C427.993 284.466 427.784 283.196 427.269 282.04L424.899 276.857L426.787 273.022Z" fill="#FA968C"/>
<path d="M416.977 280.973L414.958 288.108C414.34 290.289 414.525 292.625 415.475 294.682L415.475 294.684C416.009 295.834 415.404 297.189 414.19 297.55C410.267 298.713 402.665 300.918 402.348 300.616C400.732 299.082 405.344 296.956 408.794 294.642C411.12 293.082 412.406 285.283 412.935 279.277L416.439 280.37C416.71 280.463 416.914 280.691 416.977 280.973Z" fill="#FA968C"/>
<path d="M409.435 296.738C407.813 297.175 406.058 297.249 404.447 297.358C404.262 297.37 404.083 297.432 403.93 297.538C402.33 298.646 401.489 299.803 402.346 300.616C402.691 300.943 411.626 298.316 415.111 297.275C415.84 297.057 416.198 296.244 415.878 295.553L415.294 294.293C413.445 295.335 411.49 296.183 409.435 296.738Z" fill="#0B4870"/>
<path d="M418.376 200.382C422.581 201.196 425.921 206.293 424.875 211.72C424.275 214.838 420.74 225.925 417.044 234.639C415.625 237.983 415.915 241.879 418.067 244.804C418.418 245.28 418.718 245.77 418.95 246.263C420.152 248.805 424.496 263.675 426.982 273.575C426.671 274.835 425.825 276.408 424.843 276.918C419.982 268.36 412.168 252.795 410.891 250.09C410.181 248.588 409.411 246.854 408.868 245.235C405.678 240.478 407.747 214.997 408.717 209.962C409.763 204.535 414.171 199.568 418.376 200.382Z" fill="#0B4870"/>
<path d="M425.445 170.094C425.702 165.435 422.989 161.496 419.387 161.296C415.785 161.097 412.657 164.713 412.4 169.372C412.144 174.032 414.856 177.971 418.458 178.17C422.061 178.37 425.189 174.754 425.445 170.094Z" fill="#0B4870"/>
<path d="M420.421 170.69C420.781 166.026 424.768 162.31 429.433 162.3C433.572 162.292 436.995 165.024 438.129 168.717C438.527 170.012 439.721 170.906 441.071 170.961C441.632 170.983 442.204 171.067 442.785 171.219C446.155 172.108 448.642 175.142 448.81 178.632C448.962 181.78 447.346 184.507 444.911 185.98C443.872 186.608 443.24 187.709 443.008 188.903C441.934 194.427 436.64 198.235 430.893 197.28C425.978 196.464 422.245 192.164 422.097 187.171C422.007 184.108 423.204 181.37 425.154 179.395C422.108 177.738 420.134 174.405 420.421 170.69Z" fill="#0B4870"/>
<path d="M419.521 158.528C419.521 158.528 415.723 160.641 415.998 163.786C415.998 163.786 414.115 162.286 413.935 157.467C413.81 154.128 419.521 158.528 419.521 158.528Z" fill="#0B4870"/>
<path d="M416.14 177.411C416.053 178.504 415.814 179.715 415.166 180.915C414.826 181.511 414.384 182.08 413.846 182.558C413.302 183.026 412.692 183.385 412.077 183.633C410.84 184.113 409.667 184.198 408.609 184.158C407.543 184.117 406.559 183.949 405.62 183.725C403.745 183.267 402.033 182.596 400.378 181.861C398.724 181.124 397.136 180.307 395.592 179.426C392.506 177.669 389.565 175.738 386.705 173.704C383.845 171.669 381.076 169.532 378.455 167.167C378.168 166.907 378.145 166.463 378.403 166.175C378.645 165.906 379.045 165.867 379.332 166.073L379.341 166.08C380.725 167.082 382.171 168.025 383.629 168.94C385.086 169.858 386.554 170.758 388.043 171.619C391.018 173.342 394.055 174.95 397.151 176.348C398.701 177.037 400.254 177.698 401.82 178.253C403.381 178.809 404.964 179.27 406.485 179.523C407.243 179.652 407.985 179.719 408.654 179.697C409.326 179.683 409.908 179.552 410.279 179.365C410.648 179.168 410.804 178.987 410.971 178.656C411.123 178.307 411.24 177.778 411.251 177.14C411.274 175.784 412.39 174.703 413.743 174.726C415.095 174.75 416.173 175.868 416.15 177.225C416.149 177.274 416.147 177.322 416.143 177.37L416.14 177.411Z" fill="#FAB9AF"/>
<path d="M413.478 193.48C412.254 188.961 409.817 179.402 410.239 176.345C410.509 174.387 412.231 172.971 414.2 173.08L426.973 173.786C429.091 173.903 430.731 175.683 430.676 177.809C430.58 181.524 428.411 189.873 427.209 194.239L413.478 193.48Z" fill="#FFBE55"/>
<path d="M412.926 280.839C412.732 280.706 412.633 280.471 412.653 280.236C413.441 270.83 414.672 258.854 415.006 256.564C415.044 256.302 415.09 256.045 415.142 255.792C413.742 244.545 414.754 220.588 414.784 216.384C414.825 210.857 418.478 204.82 422.76 204.852C427.043 204.883 431.435 209.573 432.529 214.699C433.25 218.082 428.775 235.625 424.277 248.27C423.33 250.932 423.048 253.771 423.296 256.586C423.468 258.533 423.441 260.528 423.221 262.041C422.893 264.295 419.856 273.377 417.049 281.141C416.968 281.366 416.776 281.537 416.54 281.575C415.298 281.778 414.023 281.596 412.926 280.839Z" fill="#0B4870"/>
<path d="M428.36 199.944C427.801 198.047 427.712 196.046 428.097 194.107C428.992 189.603 430.588 181.114 430.684 177.479C430.735 175.535 429.234 173.912 427.298 173.804L425.404 173.699C424.591 175.337 422.991 176.549 420.614 176.417C418.241 176.286 416.784 174.905 416.154 173.188L414.375 173.089C416.08 177.345 415.084 182.781 411.583 185.791C412.08 188.015 412.479 190.248 412.769 192.056C413.163 194.504 412.791 197.013 411.716 199.246C409.867 203.084 408.227 209.313 408.475 211.831C421.701 216.393 431.365 210.148 431.365 210.148L428.36 199.944Z" fill="#FFBE55"/>
<path d="M418.658 174.211L424.486 173.921L423.003 167.462L419.229 167.719L418.658 174.211Z" fill="#FAB9AF"/>
<path d="M419.229 167.719L423.002 167.462L423.466 169.478C422.575 170.38 421.384 172.37 420.02 172.294C419.587 172.27 419.2 172.126 418.858 171.881L419.229 167.719Z" fill="#FA968C"/>
<path d="M418.931 170.786C420.203 170.856 421.614 170.293 423.602 168.738C424.743 167.844 425.641 166.226 425.702 165.103L426.044 158.889L416.504 158.362C416.504 158.362 415.606 161.621 416.121 164.933C416.509 167.418 417.93 170.731 418.931 170.786Z" fill="#FAB9AF"/>
<path d="M424.15 163.838C424.083 165.05 424.608 166.065 425.322 166.105C426.036 166.144 426.911 164.598 426.977 163.386C427.044 162.174 426.278 161.754 425.563 161.715C424.85 161.675 424.217 162.625 424.15 163.838Z" fill="#FAB9AF"/>
<path d="M427.179 159.707C427.286 157.767 425.803 156.108 423.869 156.002L420.649 155.825C419.728 155.775 418.848 155.483 418.089 154.995C416.989 154.285 415.54 154.421 414.707 155.433C413.807 156.526 413.361 158.032 415.408 159.562C416.425 160.323 418.012 159.631 419.022 160.025C419.085 160.025 419.142 160.018 419.208 160.022L422.047 160.179C423.033 160.234 423.743 161.084 423.717 162.074C423.7 162.7 424.184 163.229 424.812 163.264L424.938 163.271L425.473 161.836L426.939 164.066L427.179 159.707Z" fill="#0B4870"/>
<path d="M379.011 163.25C379.011 163.25 380.54 166.256 379.779 167.028C379.019 167.8 378.367 168.178 377.205 167.11C376.043 166.043 374.956 164.023 374.546 162.681C374.136 161.338 374.396 158.798 374.603 158.545C375.357 157.622 375.844 160.132 376.14 161.335C376.436 162.539 376.889 163.869 377.426 163.563C377.963 163.256 377.225 160.994 377.725 160.439C378.224 159.884 379.011 163.25 379.011 163.25Z" fill="#FAB9AF"/>
<path d="M406.674 201.983C406.674 201.983 410.02 201.624 410.468 202.612C410.916 203.599 411.036 204.345 409.627 205.052C408.217 205.76 405.948 206.058 404.551 205.963C403.154 205.868 400.88 204.718 400.718 204.434C400.127 203.399 402.639 203.837 403.865 203.989C405.092 204.142 406.492 204.193 406.399 203.579C406.305 202.967 403.934 202.852 403.595 202.185C403.256 201.519 406.674 201.983 406.674 201.983Z" fill="#FAB9AF"/>
<path d="M417.222 158.292C417.464 159.729 416.949 160.479 421.468 162.951C425.986 165.424 427.506 164.558 428.824 167.023C428.824 167.023 428.408 163.037 425.92 161.54C423.432 160.042 419.036 158.91 417.784 155.691C417.784 155.691 417.057 157.31 417.222 158.292Z" fill="#0B4870"/>
<path d="M430.18 176.664C430.833 177.638 431.353 178.53 431.883 179.488C432.402 180.434 432.901 181.391 433.355 182.375C434.259 184.343 435.049 186.383 435.631 188.533C436.194 190.685 436.555 192.96 436.406 195.353C436.322 196.547 436.095 197.771 435.657 198.955C435.232 200.141 434.547 201.265 433.691 202.202C432.838 203.145 431.825 203.896 430.77 204.462C429.712 205.03 428.614 205.425 427.52 205.716C426.423 206.005 425.328 206.166 424.241 206.288C423.154 206.375 422.074 206.425 421.006 206.396C416.731 206.325 412.61 205.571 408.582 204.586C408.206 204.494 407.975 204.113 408.067 203.736C408.151 203.389 408.479 203.165 408.823 203.203L408.831 203.204C412.888 203.642 416.967 203.939 420.915 203.623C422.883 203.455 424.814 203.132 426.567 202.531C428.308 201.921 429.839 200.99 430.788 199.728C431.751 198.481 432.172 196.904 432.189 195.175C432.198 193.442 431.804 191.611 431.233 189.811C430.67 188.003 429.904 186.214 429.022 184.473C428.584 183.601 428.126 182.734 427.638 181.885C427.155 181.051 426.622 180.171 426.136 179.432L426.104 179.384C425.359 178.252 425.67 176.73 426.799 175.983C427.922 175.241 429.431 175.547 430.18 176.664Z" fill="#FAB9AF"/>
<path d="M418.1 158.606C418.1 158.606 417.661 163.378 413.368 165.444C413.368 165.444 415.403 161.931 415.408 159.562C415.413 157.192 418.465 156.988 418.1 158.606Z" fill="#0B4870"/>
<path d="M433.859 287.077C434.152 286.774 434.184 286.304 433.931 285.968C433.724 285.692 433.175 284.938 432.763 284.371C432.584 284.125 432.219 284.16 432.073 284.427C430.421 287.452 427.814 289.737 424.565 290.004C423.48 290.655 422.725 292.22 422.908 292.855C422.951 293.004 424.381 293.104 425.934 292.324C432.825 288.858 433.859 287.077 433.859 287.077Z" fill="#0B4870"/>
<path d="M374.981 164.885C386.661 164.885 396.129 155.391 396.129 143.68C396.129 131.969 386.661 122.476 374.981 122.476C363.302 122.476 353.834 131.969 353.834 143.68C353.834 155.391 363.302 164.885 374.981 164.885Z" fill="#FFBE55"/>
<path d="M374.981 161.621C365.115 161.621 357.089 153.573 357.089 143.679C357.089 133.787 365.115 125.738 374.981 125.738C384.847 125.738 392.874 133.786 392.874 143.679C392.874 153.573 384.847 161.621 374.981 161.621Z" fill="#FFBE55"/>
<path d="M374.981 132.23L368.475 142.722L374.981 145.782L381.488 142.722L374.981 132.23Z" fill="white"/>
<path d="M374.981 155.129L381.488 144.637L374.981 148.907L368.475 144.637L374.981 155.129Z" fill="white"/>
</svg>
