<svg width="544" height="306" viewBox="0 0 544 306" fill="none" xmlns="http://www.w3.org/2000/svg">
<rect y="62" width="544" height="244" rx="20" fill="white"/>
<path d="M454.539 306H89.4612C87.0076 306 85 303.992 85 301.538V284.063C85 281.609 87.0076 279.601 89.4612 279.601H454.539C456.992 279.601 459 281.609 459 284.063V301.538C459 303.992 456.992 306 454.539 306Z" fill="#F7F7F7"/>
<path d="M274.974 285.922C343.552 285.922 399.145 230.323 399.145 161.738C399.145 93.1523 343.552 37.553 274.974 37.553C206.396 37.553 150.803 93.1523 150.803 161.738C150.803 230.323 206.396 285.922 274.974 285.922Z" fill="#F3FAFF"/>
<path d="M428.887 249.448C431.526 242.718 434.203 235.244 431.712 228.477C431.117 226.842 430.188 225.094 430.746 223.421C431.489 221.153 434.463 220.372 435.43 218.216C436.545 215.836 434.798 213.085 435.244 210.519C435.69 207.916 438.255 206.206 440.746 205.276C443.237 204.347 445.951 203.752 447.959 202.042C451.788 198.695 451.342 192.709 450.487 187.653C449.631 182.633 448.999 176.684 452.68 173.152C445.914 174.453 438.999 175.792 433.125 179.361C427.251 182.931 422.567 189.251 422.901 196.13C423.087 199.588 424.426 203.269 422.864 206.318C421.154 209.627 416.581 210.928 415.429 214.46C414.09 218.513 418.068 222.231 419.63 226.209C421.117 229.965 420.41 234.166 420.745 238.145C421.08 242.16 423.161 246.696 427.139 247.291L428.887 249.448Z" fill="#FFBE55"/>
<g opacity="0.31">
<path d="M428.887 249.448C431.526 242.718 434.203 235.244 431.712 228.477C431.117 226.842 430.188 225.094 430.746 223.421C431.489 221.153 434.463 220.372 435.43 218.216C436.545 215.836 434.798 213.085 435.244 210.519C435.69 207.916 438.255 206.206 440.746 205.276C443.237 204.347 445.951 203.752 447.959 202.042C451.788 198.695 451.342 192.709 450.487 187.653C449.631 182.633 448.999 176.684 452.68 173.152C445.914 174.453 438.999 175.792 433.125 179.361C427.251 182.931 422.567 189.251 422.901 196.13C423.087 199.588 424.426 203.269 422.864 206.318C421.154 209.627 416.581 210.928 415.429 214.46C414.09 218.513 418.068 222.231 419.63 226.209C421.117 229.965 420.41 234.166 420.745 238.145C421.08 242.16 423.161 246.696 427.139 247.291L428.887 249.448Z" fill="white"/>
</g>
<path d="M426.173 240.636C426.098 221.078 429.891 180.142 452.457 173.301" stroke="white" stroke-width="0.75" stroke-miterlimit="10" stroke-linecap="round"/>
<path d="M413.161 247.812C409.146 240.301 404.982 231.935 406.952 223.644C407.436 221.636 408.253 219.48 407.398 217.583C406.246 215.055 402.64 214.497 401.19 212.118C399.591 209.515 401.227 206.02 400.335 203.083C399.443 200.071 396.208 198.472 393.197 197.692C390.185 196.948 386.914 196.651 384.311 194.866C379.367 191.482 379.07 184.381 379.367 178.395C379.664 172.409 379.59 165.344 374.794 161.738C382.899 162.332 391.189 162.965 398.55 166.348C405.911 169.731 412.306 176.498 412.826 184.604C413.086 188.657 412.008 193.156 414.276 196.539C416.73 200.183 422.269 201.075 424.128 205.053C426.247 209.627 422.12 214.497 420.819 219.368C419.63 223.941 421.005 228.775 421.154 233.497C421.303 238.219 419.481 243.833 414.908 245.097L413.161 247.812Z" fill="#FFBE55"/>
<path d="M415.131 237.103C412.529 214.163 402.491 166.757 375.092 161.886" stroke="white" stroke-width="0.75" stroke-miterlimit="10" stroke-linecap="round"/>
<path d="M438.553 291.871H403.235C400.781 291.871 398.773 289.863 398.773 287.41L395.799 236.471C395.799 234.018 397.807 232.01 400.26 232.01H441.527C443.981 232.01 445.988 234.018 445.988 236.471L443.014 287.41C443.014 289.863 441.006 291.871 438.553 291.871Z" fill="#CCE9FF"/>
<path d="M141.08 126.644L118.291 130.098L133.79 232.292L156.58 228.838L141.08 126.644Z" fill="#FFBE55"/>
<path d="M141.072 126.652L129.678 128.38L145.17 230.575L156.565 228.847L141.072 126.652Z" fill="#FFBE55"/>
<path d="M141.1 126.75L118.311 130.208L123.664 116.488L126.713 108.755L131.917 115.261L141.1 126.75Z" fill="#FFEBC2"/>
<path d="M131.917 115.261L123.664 116.488L126.712 108.755L131.917 115.261Z" fill="#0E538C"/>
<path d="M182.355 105.3L159.397 103.244L150.18 206.194L173.137 208.25L182.355 105.3Z" fill="#FFBE55"/>
<path d="M182.377 105.308L170.898 104.281L161.681 207.23L173.159 208.258L182.377 105.308Z" fill="#FFBE55"/>
<path d="M182.366 105.408L159.391 103.363L167.867 91.3168L172.663 84.5127L176.158 92.0605L182.366 105.408Z" fill="#FFEBC2"/>
<path d="M176.158 92.0605L167.867 91.3168L172.663 84.5127L176.158 92.0605Z" fill="#0E538C"/>
<path d="M197.46 292.243H106.897L95.0377 152.071H204.71L197.46 292.243Z" fill="#CCE9FF"/>
<path opacity="0.5" d="M149.874 292.243H197.46L204.71 152.071H149.874V292.243Z" fill="#CCE9FF"/>
<path d="M399.889 252.682H169.763V284.323H399.889V252.682Z" fill="#FFEBC2"/>
<path d="M170.73 252.682V284.323H412.157V286.703C412.157 289.64 409.592 292.02 406.432 292.02H171.771C164.298 292.02 158.239 286.443 158.239 279.527V258.371C158.239 251.455 164.298 245.878 171.771 245.878H406.432C409.592 245.878 412.157 248.258 412.157 251.195V252.719H170.73V252.682Z" fill="#FFBE55"/>
<path d="M399.889 266.774H169.763V284.286H399.889V266.774Z" fill="#FFEBC2"/>
<path d="M386.505 214.163H199.505V241.677H386.505V214.163Z" fill="#CCE9FF"/>
<path d="M199.505 214.163V241.677H393.569V243.759C393.569 246.324 391.487 248.369 388.959 248.369H200.323C194.337 248.369 189.467 243.499 189.467 237.512V219.108C189.467 213.122 194.337 208.251 200.323 208.251H388.959C391.487 208.251 393.569 210.333 393.569 212.861V214.2H199.505V214.163Z" fill="#2A94F4"/>
<path d="M280.328 120.504C277.762 117.12 277.539 112.473 279.956 108.941C281.889 106.115 283.19 102.62 283.042 100.054C282.744 95.4439 279.882 91.2053 275.978 88.677C270.848 85.3307 264.007 84.8473 258.468 87.45C252.928 90.0527 248.913 95.6298 248.207 101.69C247.686 106.041 248.69 110.8 246.459 114.592C244.824 117.306 241.812 118.905 238.838 119.983C235.827 121.024 232.667 121.731 229.916 123.33C227.165 124.928 224.822 127.68 224.86 130.877C224.897 133.294 226.272 135.525 226.421 137.905C226.644 141.4 224.19 144.486 221.588 146.791C218.949 149.096 215.937 151.104 214.153 154.116C211.216 159.098 212.591 165.828 216.309 170.289C220.027 174.751 225.603 177.242 231.18 178.692C246.422 182.708 262.483 180.105 278.209 179.845C283.079 179.771 288.06 179.919 292.782 178.692C297.503 177.465 302.113 174.64 304.084 170.178C306.091 165.716 305.087 160.288 302.411 156.235C299.734 152.182 295.533 149.245 291.109 147.163C287.912 145.638 284.491 144.449 281.889 142.069C279.287 139.689 277.762 135.637 279.51 132.551C280.179 131.361 281.294 130.431 281.926 129.241C283.19 126.936 282.67 123.999 281.257 121.768C280.997 121.396 280.699 120.987 280.328 120.504Z" fill="#0E538C"/>
<path d="M386.505 226.432H199.505V241.677H386.505V226.432Z" fill="#CCE9FF"/>
<path d="M283.897 187.393L306.946 203.752L335.201 262.126H329.996L298.396 210.445C298.396 210.445 287.614 210.817 283.897 207.47C280.179 204.124 258.802 189.623 258.802 189.623L283.897 187.393Z" fill="#0B4870"/>
<path d="M243.113 182.708C238.912 194.085 241.887 210.073 256.014 210.817C270.141 211.56 274.602 210.817 274.602 210.817L302.113 266.588H308.433L286.871 204.124L260.661 189.623L243.113 182.708Z" fill="#0E538C"/>
<path d="M264.565 117.864C268.282 122.697 277.205 136.082 280.551 150.955C283.897 165.827 293.191 187.392 293.191 187.392H282.41L272 152.07L262.334 118.979L264.565 117.864Z" fill="#4EA3FB"/>
<path d="M276.015 98.1209C276.573 107.23 272.595 113.477 266.907 113.774C261.219 114.072 257.501 105.817 259.211 98.1209C263.189 91.2796 268.617 90.7219 268.617 90.7219H272.037L276.015 98.1209Z" fill="#FFE3CA"/>
<path d="M272.223 92.6925C271.182 95.89 268.877 98.6414 265.903 100.203C262.929 101.765 259.36 102.136 256.125 101.17L264.23 89.6064H271.182L277.837 94.8862L276.833 100.947C274.231 98.9761 272.223 92.6925 272.223 92.6925Z" fill="#0E538C"/>
<path d="M265.197 112.696C264.007 117.306 264.379 122.14 264.379 122.884C263.263 124.371 258.059 123.999 257.315 118.794C258.43 112.101 260.661 104.665 260.661 104.665L262.52 108.755L265.197 112.696Z" fill="#FFE3CA"/>
<path d="M258.059 114.852C253.412 116.377 237.797 123.441 237.054 124.928C238.169 129.018 243.746 189.623 243.746 189.623H269.026C269.026 189.623 265.68 156.16 267.539 153.93C269.398 151.699 275.346 143.891 274.602 142.775C273.859 141.66 264.416 117.678 264.416 117.678L258.059 114.852Z" fill="#2A94F4"/>
<path d="M237.054 124.928C233.41 127.717 218.093 152.814 222.926 166.199C227.759 179.584 243.56 187.467 243.56 187.467V180.105C243.56 180.105 230.734 169.917 231.477 162.481C232.221 155.045 241.143 139.801 241.143 139.801L237.054 124.928Z" fill="#4EA3FB"/>
<path d="M296.946 193.899H242.221C240.511 193.899 239.098 192.486 239.098 190.776L237.611 155.752C237.611 154.041 239.024 152.628 240.734 152.628H297.689C299.399 152.628 300.812 154.041 300.812 155.752L300.069 190.776C300.069 192.486 298.656 193.899 296.946 193.899Z" fill="#FFBE55"/>
<path d="M307.541 266.588C311.222 267.406 316.203 271.459 318.583 273.541C319.066 273.95 318.769 274.768 318.099 274.768C314.27 274.693 305.608 274.284 303.6 272.574C300.998 270.343 301.742 266.625 301.742 266.625H307.541V266.588Z" fill="#1A87D8"/>
<path d="M335.126 261.978C338.398 262.87 342.711 266.662 344.867 268.707C345.35 269.153 344.978 269.934 344.346 269.897C340.74 269.637 333.007 268.93 331.26 267.257C328.955 265.101 329.81 261.717 329.81 261.717L335.126 261.978Z" fill="#1A87D8"/>
<path d="M269.398 178.841C272.477 178.841 274.974 176.344 274.974 173.264C274.974 170.184 272.477 167.687 269.398 167.687C266.318 167.687 263.821 170.184 263.821 173.264C263.821 176.344 266.318 178.841 269.398 178.841Z" fill="white"/>
<path d="M220.324 252.459L213.26 248.369L206.197 252.459V226.432H220.324V252.459Z" fill="#FFBE55"/>
<path d="M329.847 98.3438C329.847 99.0502 329.587 99.6823 329.141 100.203C329.587 100.686 329.847 101.355 329.847 102.062V104.367C329.847 104.85 329.699 105.334 329.476 105.743C329.699 106.152 329.847 106.635 329.847 107.119V109.424C329.847 110.948 328.62 112.175 327.096 112.175H303.154C301.63 112.175 300.403 110.948 300.403 109.424V107.081C300.403 106.598 300.552 106.115 300.775 105.706C300.552 105.297 300.403 104.813 300.403 104.33V102.025C300.403 101.318 300.663 100.686 301.11 100.166C300.663 99.6823 300.403 99.0131 300.403 98.3066V96.0014C300.403 94.477 301.63 93.25 303.154 93.25H327.096C328.62 93.25 329.847 94.477 329.847 96.0014V98.3438Z" fill="#FFBE55"/>
<path d="M348.956 46.2163C348.956 59.6387 341.149 71.202 329.847 76.7048V89.1976C329.847 90.1271 329.067 90.9079 328.137 90.9079H302.113C301.184 90.9079 300.403 90.1271 300.403 89.1976V76.7048C289.101 71.2392 281.294 59.6387 281.294 46.2163C281.294 27.5143 296.425 12.3816 315.125 12.3816C333.825 12.3816 348.956 27.5515 348.956 46.2163Z" fill="#FFBE55"/>
<path opacity="0.23" d="M326.65 100.389H303.972" stroke="#7F7F7F" stroke-width="2" stroke-miterlimit="10" stroke-linecap="round"/>
<path opacity="0.23" d="M326.65 105.594H303.972" stroke="#7F7F7F" stroke-width="2" stroke-miterlimit="10" stroke-linecap="round"/>
<path d="M320.925 50.3804C320.516 50.0086 319.921 49.8227 319.289 49.897C318.508 49.9714 317.765 50.4175 317.281 51.0496C316.872 51.6073 316.649 52.2766 316.538 52.9087C316.203 52.7228 315.831 52.5369 315.497 52.3138L315.385 52.2394H314.902L314.791 52.3138C314.419 52.5369 314.084 52.7228 313.75 52.9087C313.638 52.2766 313.415 51.6073 313.006 51.0496C312.56 50.4175 311.779 49.9714 310.999 49.897C310.366 49.8227 309.809 50.0086 309.363 50.3804C308.805 50.9009 308.619 51.6445 308.805 52.4253C309.102 53.4664 309.958 54.3216 310.961 54.5075C311.593 54.619 312.188 54.5818 312.82 54.4331C313.75 66.5169 314.121 78.7495 313.861 90.8333H314.976C315.237 78.7123 314.865 66.4426 313.935 54.3587C313.935 54.2472 313.935 54.1356 313.898 54.0241C314.344 53.8382 314.753 53.6151 315.162 53.3548C315.571 53.5779 315.98 53.8382 316.426 54.0241C316.426 54.1356 316.426 54.2472 316.389 54.3587C315.46 66.4426 315.088 78.7123 315.348 90.8333H316.463C316.203 78.7495 316.575 66.4798 317.504 54.4331C318.099 54.5818 318.731 54.6562 319.363 54.5075C320.33 54.3216 321.222 53.4664 321.52 52.4253C321.668 51.6445 321.482 50.9009 320.925 50.3804ZM311.147 53.4664C310.59 53.3548 310.032 52.7971 309.846 52.1651C309.772 51.9048 309.734 51.4958 310.069 51.2355C310.255 51.0496 310.515 51.0124 310.701 51.0124C310.738 51.0124 310.775 51.0124 310.85 51.0124C311.296 51.0496 311.779 51.3099 312.077 51.7189C312.411 52.1651 312.597 52.7228 312.671 53.3548C312.151 53.5036 311.668 53.5408 311.147 53.4664ZM320.404 52.1651C320.218 52.7971 319.698 53.3548 319.103 53.4664C318.62 53.5779 318.099 53.5036 317.616 53.3548C317.728 52.7228 317.876 52.1651 318.211 51.7189C318.471 51.3471 318.954 51.0868 319.438 51.0124C319.661 50.9753 319.958 51.0124 320.218 51.2355C320.479 51.4958 320.441 51.9048 320.404 52.1651Z" fill="white"/>
<path d="M306.203 18.5906C298.024 21.5651 284.64 32.3476 285.755 49.8226" stroke="white" stroke-width="4" stroke-miterlimit="10" stroke-linecap="round"/>
<path d="M261.405 79.1957C266.64 79.1957 270.885 74.9509 270.885 69.7146C270.885 64.4783 266.64 60.2334 261.405 60.2334C256.169 60.2334 251.924 64.4783 251.924 69.7146C251.924 74.9509 256.169 79.1957 261.405 79.1957Z" fill="#FFBE55"/>
<path d="M362.898 42.7582C365.259 42.7582 367.173 40.8438 367.173 38.4824C367.173 36.1209 365.259 34.2065 362.898 34.2065C360.536 34.2065 358.622 36.1209 358.622 38.4824C358.622 40.8438 360.536 42.7582 362.898 42.7582Z" fill="#FFBE55"/>
<path d="M348.956 112.659C352.857 112.659 356.02 109.496 356.02 105.594C356.02 101.693 352.857 98.5298 348.956 98.5298C345.055 98.5298 341.893 101.693 341.893 105.594C341.893 109.496 345.055 112.659 348.956 112.659Z" fill="#FFBE55"/>
<path d="M281.294 14.1288C285.195 14.1288 288.358 10.966 288.358 7.0644C288.358 3.16284 285.195 0 281.294 0C277.393 0 274.231 3.16284 274.231 7.0644C274.231 10.966 277.393 14.1288 281.294 14.1288Z" fill="#FFBE55"/>
<path opacity="0.14" d="M220.324 252.459L213.26 248.369L206.197 252.459V226.432H220.324V252.459Z" fill="#0C0C0C"/>
</svg>
