<svg width="544" height="306" viewBox="0 0 544 306" fill="none" xmlns="http://www.w3.org/2000/svg">
<rect y="62" width="544" height="244" rx="20" fill="white"/>
<path opacity="0.1" d="M339.932 285.26C347.874 281.506 474.477 283.28 454.341 190.899C434.205 98.5179 305.59 109.523 274.252 45.3334C242.913 -18.8501 158.709 8.65875 111.114 56.3381C62.7646 104.777 15.9252 324.091 294.071 225.227C402.318 186.754 334.61 281.88 334.61 281.88" fill="#2A94F4"/>
<path d="M268.075 16.4334C252.919 13.9061 237.893 21.7799 231.434 35.7454C229.548 39.8198 227.89 44.5826 226.677 50.1218C220.373 78.8971 216.892 98.5491 190.61 118.201C164.328 137.853 221.869 198.824 251.245 173.604C280.621 148.385 330.359 180.084 341.57 161.424C352.777 142.766 332.508 122.411 342.271 106.973C352.031 91.5309 361.234 34.6829 334.612 15.7336C307.988 -3.21855 274.447 -7.42889 268.075 16.4334Z" fill="#0B4870"/>
<path d="M260.236 135.748C260.236 135.748 196.555 129.957 209.162 281.506H347.874C347.874 281.506 361.01 138.904 296.778 135.748H260.236Z" fill="#2A94F4"/>
<path d="M264.509 91.7065C264.509 91.7065 259.605 139.958 260.306 149.784C261.008 159.61 290.576 168.031 296.034 153.995C299.34 145.492 290.576 91.7065 290.576 91.7065H264.509Z" fill="#FCD2B1"/>
<path d="M319.982 31.9004C319.982 31.9004 355.716 114.43 301.73 122.029C287.798 123.989 267.657 108.551 264.506 97.3192C261.743 87.4819 257.034 95.0384 253.448 86.6517C248.553 75.1966 251.924 42.2336 262.405 63.4552C270.111 79.0641 286.223 34.4447 301.636 41.4629C317.05 48.4839 319.982 31.9004 319.982 31.9004Z" fill="#FFE3CA"/>
<path d="M238.445 303.025L187.793 142.732C187.793 142.732 147.221 161.435 122.831 177.276C122.831 177.276 137.741 218.257 148.805 240.683C159.868 263.109 165.581 270.374 183.936 279.789C202.29 289.207 238.445 303.025 238.445 303.025Z" fill="#0E538C"/>
<path d="M238.445 303.025L187.793 142.732C187.793 142.732 231.717 134.637 260.762 133.529C260.762 133.529 272.108 175.641 275.943 200.359C279.778 225.077 279.277 234.314 269.676 252.597C260.074 270.881 238.445 303.025 238.445 303.025Z" fill="#0E538C"/>
<path d="M129.885 179.665C134.025 190.788 145.301 220.493 153.994 238.116C164.441 259.298 169.365 265.804 186.574 274.629C200.738 281.894 226.12 291.998 236.208 295.942L189.555 148.305C184.538 150.643 152.08 165.909 129.885 179.665Z" fill="#F9F3ED"/>
<path d="M264.554 249.897C273.556 232.758 273.847 224.595 270.225 201.252C267.213 181.835 259.367 151.036 256.367 139.55C230.314 141.097 194.999 147.325 189.555 148.305L236.205 295.942C242.192 286.9 257.145 264.007 264.554 249.897Z" fill="#F9F3ED"/>
<path d="M134.141 181.135C139.019 194.137 149.144 220.433 157.105 236.575C167.128 256.895 171.489 262.984 188.155 271.535C201.074 278.162 223.487 287.201 234.859 291.677L190.61 151.648C185.525 154.028 155.643 168.136 134.141 181.135Z" fill="#0E538C"/>
<path d="M261.483 248.276C270.202 231.676 270.27 224.185 266.794 201.784C264.037 184.002 257.21 156.658 253.728 143.205C228.677 144.97 196.136 150.662 190.61 151.648L234.859 291.675C241.584 281.463 254.721 261.151 261.483 248.276Z" fill="#0E538C"/>
<path d="M297.965 295.259L386.579 304.986C389.314 305.286 391.777 303.308 392.077 300.566L408.941 146.373C409.241 143.633 407.267 141.165 404.529 140.865L310.961 130.594L293.554 289.748C293.254 292.493 295.231 294.958 297.965 295.259Z" fill="#D3D3D3"/>
<path d="M402.637 140.661L399.323 140.298L310.961 130.597L307.646 130.234C303.865 129.818 300.463 132.555 300.047 136.343L283.596 286.739C283.18 290.527 285.912 293.936 289.693 294.352L374.52 303.665C378.301 304.082 381.704 301.345 382.119 297.557L389.636 228.823L392.951 229.186C396.732 229.602 400.134 226.865 400.55 223.077L408.732 148.274C409.15 144.486 406.419 141.077 402.637 140.661Z" fill="#F7F7F7"/>
<path d="M250.787 225.227V200.033C250.787 191.981 258.208 185.991 264.184 185.991H278.613C288.712 185.991 294.071 191.981 294.071 200.033V225.227H306.439V200.033C306.439 185.164 295.514 173.601 278.613 173.601H264.184C251.403 173.601 238.419 185.164 238.419 200.033V225.227H250.787Z" fill="#CCE9FF"/>
<path d="M312.624 289.657C312.624 296.471 308.5 301.634 301.699 301.634H245.221C238.419 301.634 232.234 296.471 232.234 289.657V228.945C232.234 222.13 238.417 221.096 245.221 221.096H301.699C308.5 221.096 312.624 222.128 312.624 228.945V289.657Z" fill="#FFBE55"/>
<path d="M283.559 252.694C283.559 246.911 279.026 242.162 273.254 242.162C267.481 242.162 263.154 246.911 263.154 252.694C263.154 256.825 265.216 260.128 269.337 261.987V281.398C269.337 284.081 270.779 286.147 273.46 286.147C276.141 286.147 277.583 284.081 277.583 281.398V261.987C281.704 260.125 283.559 256.822 283.559 252.694Z" fill="#333333"/>
<path d="M218.733 279.715L235.306 275.42C235.306 275.42 237.322 267.52 241.106 264.523C244.89 261.525 249.426 259.253 251.443 259.505C253.459 259.757 249.175 265.316 247.155 267.841C245.136 270.365 248.165 271.124 256.234 265.568C264.302 260.012 271.11 258.224 273.126 269.6C275.143 280.976 263.544 286.283 249.424 286.283C235.303 286.283 224.217 294.244 224.217 294.244C224.217 294.244 203.167 292.346 218.733 279.715Z" fill="#FFE3CA"/>
<path d="M148.805 240.683C148.805 240.683 142.611 241.023 137.006 252.252C131.4 263.48 138.55 317.169 236.205 295.939L229.774 275.593C229.777 275.593 154.393 252.764 148.805 240.683Z" fill="#2A94F4"/>
<path d="M328.877 279.715L312.304 275.42C312.304 275.42 310.288 267.52 306.504 264.523C302.72 261.525 298.183 259.253 296.167 259.505C294.15 259.757 298.435 265.316 300.454 267.841C302.474 270.365 299.445 271.124 291.376 265.568C283.307 260.012 276.5 258.224 274.484 269.6C272.467 280.976 284.065 286.283 298.186 286.283C312.307 286.283 323.393 294.244 323.393 294.244C323.393 294.244 344.44 292.346 328.877 279.715Z" fill="#FFE3CA"/>
<path d="M398.655 240.683C398.655 240.683 404.849 241.023 410.454 252.252C416.06 263.48 408.91 317.169 311.255 295.939L317.686 275.593C317.683 275.593 393.067 252.764 398.655 240.683Z" fill="#2A94F4"/>
</svg>
