<svg width="290" height="290" viewBox="0 0 290 290" fill="none" xmlns="http://www.w3.org/2000/svg">
<path d="M186.604 16.0037C194.603 16.0977 202.605 17.8162 209.85 21.2291C214.995 23.6511 219.667 26.825 223.405 30.842C230.883 38.8761 233.837 50.6319 228.735 59.4554C224.476 66.8182 215.102 72.0999 214.989 80.577C214.858 90.4558 227.39 97.0372 238.313 99.078C249.239 101.119 261.489 101.511 269.692 108.549C276.751 114.606 278.634 124.311 276.287 132.433C273.94 140.556 268.003 147.32 261.389 153.099C244.822 167.58 223.555 177.101 201.757 184.609C155.703 200.473 105.748 208.207 55.4303 207.261C42.8663 207.025 28.8389 205.669 20.0288 197.2C11.1462 188.661 10.8616 175.128 16.6723 165.348C22.4831 155.569 33.1835 148.993 44.3566 144.208C55.5296 139.423 67.5163 136.074 78.394 130.806C86.6053 126.829 95.0314 119.23 91.5407 111.081C89.0622 105.291 81.7854 102.499 75.3785 100.144C66.3268 96.817 57.3126 92.9477 49.9122 87.0967C42.5119 81.2483 36.8327 73.1337 36.2661 64.5304C35.7398 56.4963 39.722 48.8355 45.6079 43.0838C51.4938 37.3321 59.1573 33.2775 67.0142 29.8163C98.0442 16.146 165.007 15.7513 186.604 16.0037Z" fill="#F7F7F7"/>
<path d="M100.442 147.836L99.7601 148.859L100.442 149.879L99.7601 150.899L100.442 151.922L99.7601 152.94L100.442 153.96L99.7601 154.984L100.442 156.001L99.4191 157.022L99.7601 158.039L99.5587 158.343L99.0808 159.06L99.4191 159.567L99.7601 160.08L99.0808 161.098L99.7601 162.121L99.0808 163.138L99.7601 164.159L99.6876 164.266L99.0808 165.179L99.7601 166.2L99.0808 167.22L99.7601 168.238L99.0808 169.255L99.7601 170.278L99.0808 171.296L99.1398 171.385L99.7601 172.316L99.7279 172.365L99.0808 173.339L99.7601 174.36L99.7064 174.438L99.0808 175.378L99.7601 176.401L99.0808 177.418L99.7601 178.439L99.0808 179.459L99.7601 180.482L99.6984 180.573L99.0808 181.5L99.7601 182.52L99.4191 183.543L100.442 184.564L99.7601 185.581L100.442 186.604L99.7601 187.625L100.442 188.645L99.7601 189.668L100.203 190.334H70.744L71.1548 189.722L70.4755 188.701L71.1602 187.684L70.4809 186.661L71.1629 185.64L70.4835 184.62L71.1656 183.602L69.8096 182.577L70.4889 181.559L69.8122 180.538L70.4943 179.518L69.8149 178.495L70.4997 177.477L69.8203 176.452L70.5023 175.434L69.823 174.414L70.505 173.39L69.8257 172.37L70.5131 171.35L69.8337 170.327L70.5158 169.306L69.8364 168.283L70.5185 167.263L69.8391 166.243L70.5238 165.219L69.8445 164.199L70.5265 163.179L69.8472 162.153L70.5292 161.135L69.8525 160.115L70.5373 159.095L69.8579 158.072L71.222 157.054L70.5426 156.028L71.2247 155.008L70.5453 153.987L71.2273 152.964L70.548 151.941L71.2327 150.918L71.2005 150.867L70.5561 149.895L71.2381 148.877L70.5587 147.852L71.9228 146.831L71.2435 145.806L71.9255 144.783L71.9121 144.761H71.896L71.7375 144.49L71.0985 143.421L100.754 143.996L100.442 144.78L101.119 145.798L99.7601 146.818L100.442 147.836Z" fill="#CCE9FF"/>
<path d="M100.931 143.998L100.754 143.996L100.759 143.977L101.054 144.006L100.931 143.998Z" fill="#CCE9FF"/>
<path d="M71.7347 144.49C74.1272 144.458 76.5197 144.458 78.9122 144.458L86.0897 144.498L93.2646 144.6L96.852 144.672L100.439 144.774L96.8493 144.804L93.2619 144.807L86.0844 144.766L78.9096 144.664C76.5197 144.619 74.1272 144.57 71.7347 144.49Z" fill="#B4E0FC"/>
<path d="M71.92 146.831C74.24 146.775 76.56 146.748 78.88 146.727L85.84 146.692L92.8 146.719L96.28 146.753L99.76 146.818L96.28 146.885L92.8 146.925L85.84 146.96L78.88 146.933C76.56 146.909 74.24 146.885 71.92 146.831Z" fill="#B4E0FC"/>
<path d="M70.9775 150.867C73.3754 150.813 75.776 150.792 78.1738 150.773L85.3701 150.749L92.5664 150.789L96.1646 150.83L99.7627 150.899L96.1646 150.961L92.5664 150.993L85.3701 151.015L78.1738 150.975C75.7733 150.953 73.3754 150.926 70.9775 150.867Z" fill="#B4E0FC"/>
<path d="M71.2352 148.875C73.6116 148.818 75.988 148.791 78.3671 148.767L85.4989 148.732L92.6308 148.759L96.1967 148.794L99.7626 148.859L96.1967 148.926L92.6308 148.966L85.4989 149.001L78.3671 148.974C75.9907 148.955 73.6143 148.928 71.2352 148.875Z" fill="#B4E0FC"/>
<path d="M71.2272 152.964C73.6036 152.908 75.9826 152.878 78.359 152.854L85.4909 152.817L92.6227 152.841L96.1887 152.876L99.7546 152.937L96.1887 153.007L92.6227 153.047L85.4909 153.085L78.359 153.061C75.9826 153.042 73.6062 153.018 71.2272 152.964Z" fill="#B4E0FC"/>
<path d="M70.5452 153.985C73.037 153.928 75.5289 153.899 78.018 153.875L85.4909 153.837L92.9638 153.861L96.7016 153.896L100.439 153.958L96.7016 154.028L92.9638 154.068L85.4909 154.105L78.018 154.081C75.5289 154.062 73.037 154.038 70.5452 153.985Z" fill="#B4E0FC"/>
<path d="M70.6096 159.062C73.0209 158.947 75.4322 158.861 77.8435 158.78L85.0801 158.568L92.3167 158.421L95.9363 158.369L99.5559 158.345L95.939 158.501L92.322 158.627L85.0855 158.837L77.8489 158.984C75.4376 159.022 73.0236 159.057 70.6096 159.062Z" fill="#B4E0FC"/>
<path d="M69.9249 160.08C72.3819 159.983 74.8388 159.914 77.2958 159.849L84.6693 159.691L92.0428 159.594L95.7296 159.567L99.4163 159.57L95.7296 159.699L92.0428 159.801L84.6693 159.959L77.2958 160.056C74.8415 160.077 72.3846 160.093 69.9249 160.08Z" fill="#B4E0FC"/>
<path d="M71.2191 157.051C73.5687 156.992 75.9182 156.965 78.2677 156.941L85.3163 156.903L92.3649 156.928L95.8906 156.963L99.4162 157.024L95.8906 157.094L92.3703 157.134L85.3217 157.172L78.2731 157.148C75.9209 157.129 73.5713 157.105 71.2191 157.051Z" fill="#B4E0FC"/>
<path d="M70.6096 171.366C72.986 171.312 75.3651 171.288 77.7415 171.266L84.8733 171.24L92.0052 171.275L95.5711 171.315L99.137 171.382L95.5711 171.446L92.0052 171.481L84.8733 171.508L77.7415 171.473C75.3651 171.452 72.9887 171.425 70.6096 171.366Z" fill="#B4E0FC"/>
<path d="M69.9249 172.386C72.4168 172.33 74.9086 172.3 77.3978 172.276L84.8707 172.239L92.3435 172.263L96.0813 172.298L99.8191 172.359L96.0813 172.429L92.3435 172.469L84.8707 172.507L77.3978 172.483C74.9059 172.464 72.4168 172.44 69.9249 172.386Z" fill="#B4E0FC"/>
<path d="M70.5505 169.355C72.9269 169.301 75.306 169.277 77.6824 169.255L84.8142 169.228L91.9461 169.263L95.512 169.304L99.0779 169.371L95.512 169.435L91.9461 169.47L84.8142 169.497L77.6824 169.462C75.306 169.438 72.9296 169.411 70.5505 169.355Z" fill="#B4E0FC"/>
<path d="M70.5505 177.407C72.9269 177.354 75.306 177.33 77.6824 177.308L84.8142 177.281L91.9461 177.316L95.512 177.356L99.0779 177.424L95.512 177.491L91.9461 177.526L84.8142 177.552L77.6824 177.518C75.306 177.493 72.9296 177.467 70.5505 177.407Z" fill="#B4E0FC"/>
<path d="M70.5505 167.257C72.9269 167.204 75.306 167.18 77.6824 167.158L84.8142 167.131L91.9461 167.166L95.512 167.206L99.0779 167.274L95.512 167.338L91.9461 167.373L84.8142 167.4L77.6824 167.365C75.306 167.341 72.9296 167.314 70.5505 167.257Z" fill="#B4E0FC"/>
<path d="M71.2433 145.806C73.7325 145.749 76.2243 145.722 78.7135 145.701L86.1837 145.669L93.6538 145.698L97.3889 145.736L101.124 145.8L97.3889 145.867L93.6538 145.905L86.1837 145.937L78.7135 145.908C76.2216 145.886 73.7325 145.862 71.2433 145.806Z" fill="#B4E0FC"/>
<path d="M70.5505 163.23C72.9269 163.176 75.306 163.152 77.6824 163.13L84.8142 163.104L91.9461 163.138L95.512 163.179L99.0779 163.246L95.512 163.31L91.9461 163.345L84.8142 163.372L77.6824 163.337C75.306 163.313 72.9296 163.286 70.5505 163.23Z" fill="#B4E0FC"/>
<path d="M70.5505 165.252C72.9269 165.198 75.306 165.174 77.6824 165.152L84.8142 165.125L91.9461 165.16L95.512 165.201L99.0779 165.268L95.512 165.332L91.9461 165.367L84.8142 165.394L77.6824 165.359C75.306 165.338 72.9296 165.311 70.5505 165.252Z" fill="#B4E0FC"/>
<path d="M69.984 164.231C72.4651 164.178 74.9462 164.156 77.4273 164.137L84.8707 164.116L92.314 164.156L96.0357 164.199L99.7573 164.269L96.0357 164.331L92.314 164.363L84.8707 164.384L77.4273 164.344C74.9462 164.32 72.4651 164.29 69.984 164.231Z" fill="#B4E0FC"/>
<path d="M70.5505 179.534C72.9269 179.48 75.306 179.456 77.6824 179.435L84.8142 179.408L91.9461 179.443L95.512 179.483L99.0779 179.55L95.512 179.615L91.9461 179.65L84.8142 179.676L77.6824 179.642C75.306 179.62 72.9296 179.591 70.5505 179.534Z" fill="#B4E0FC"/>
<path d="M70.5505 181.559C72.9269 181.505 75.306 181.481 77.6824 181.459L84.8142 181.433L91.9461 181.467L95.512 181.508L99.0779 181.575L95.512 181.639L91.9461 181.674L84.8142 181.701L77.6824 181.666C75.306 181.645 72.9296 181.615 70.5505 181.559Z" fill="#B4E0FC"/>
<path d="M71.1627 185.643C73.5445 185.584 75.9289 185.552 78.3107 185.525L85.4587 185.479L92.6093 185.495L96.1833 185.525L99.7573 185.584L96.1833 185.656L92.6093 185.702L85.4613 185.748L78.3107 185.732C75.9289 185.713 73.5445 185.691 71.1627 185.643Z" fill="#B4E0FC"/>
<path d="M69.8068 182.576C72.2771 182.601 74.7448 182.657 77.2125 182.716L84.6156 182.926L92.0186 183.197L95.7188 183.355L99.419 183.54L95.7161 183.487L92.0132 183.404L84.6102 183.194L77.2071 182.923C74.7394 182.821 72.2744 182.713 69.8068 182.576Z" fill="#B4E0FC"/>
<path d="M71.1575 187.681C73.5419 187.622 75.9237 187.59 78.3081 187.563L85.4588 187.517L92.6094 187.533L96.1834 187.563L99.7574 187.622L96.1834 187.694L92.6094 187.74L85.4588 187.786L78.3081 187.77C75.9264 187.754 73.5419 187.732 71.1575 187.681Z" fill="#B4E0FC"/>
<path d="M70.4753 188.701C72.9726 188.642 75.4698 188.61 77.967 188.586L85.4587 188.54L92.9503 188.556L96.6962 188.586L100.442 188.645L96.6962 188.717L92.9503 188.76L85.4587 188.806L77.967 188.787C75.4698 188.774 72.9726 188.752 70.4753 188.701Z" fill="#B4E0FC"/>
<path d="M69.984 180.538C72.4651 180.485 74.9462 180.463 77.4273 180.444L84.8707 180.423L92.314 180.463L96.0357 180.506L99.7573 180.576L96.0357 180.638L92.314 180.67L84.8707 180.691L77.4273 180.651C74.9462 180.624 72.4651 180.598 69.984 180.538Z" fill="#B4E0FC"/>
<path d="M70.5505 173.398C72.9269 173.345 75.306 173.321 77.6824 173.299L84.8142 173.272L91.9461 173.307L95.512 173.347L99.0779 173.415L95.512 173.479L91.9461 173.514L84.8142 173.541L77.6824 173.506C75.306 173.484 72.9296 173.455 70.5505 173.398Z" fill="#B4E0FC"/>
<path d="M70.5505 175.423C72.9269 175.369 75.306 175.345 77.6824 175.324L84.8142 175.297L91.9461 175.332L95.512 175.372L99.0779 175.439L95.512 175.504L91.9461 175.539L84.8142 175.565L77.6824 175.531C75.306 175.509 72.9296 175.48 70.5505 175.423Z" fill="#B4E0FC"/>
<path d="M69.984 174.403C72.4651 174.349 74.9462 174.328 77.4273 174.309L84.8707 174.287L92.314 174.328L96.0357 174.371L99.7573 174.44L96.0357 174.502L92.314 174.534L84.8707 174.556L77.4273 174.516C74.9462 174.489 72.4651 174.462 69.984 174.403Z" fill="#B4E0FC"/>
<path d="M109.526 86.4576C109.526 86.4576 102.988 96.4787 100.227 105.471C100.227 105.471 89.0784 99.8459 84.6156 100.053C84.6156 100.053 89.3388 85.5957 94.7844 76.6567C94.7817 76.6594 106.129 85.2788 109.526 86.4576Z" fill="#B6E7FF"/>
<path d="M89.0864 103.482C89.3415 103.6 89.5912 103.723 89.849 103.836C90.1014 103.957 90.3565 104.072 90.6116 104.185C91.1218 104.408 91.632 104.631 92.1502 104.835C92.6658 105.044 93.1894 105.227 93.7157 105.41C93.9815 105.496 94.2447 105.582 94.5159 105.651C94.7817 105.74 95.0556 105.791 95.3268 105.869C94.7656 105.839 94.2071 105.745 93.6593 105.608C93.1115 105.471 92.5745 105.292 92.0509 105.085C91.5299 104.873 91.0144 104.639 90.5203 104.37C90.0262 104.102 89.5402 103.815 89.0864 103.482Z" fill="#CCE9FF"/>
<path d="M89.0864 104.736C89.508 104.942 89.9349 105.125 90.3619 105.308C90.7888 105.488 91.2185 105.659 91.6561 105.812C92.0911 105.971 92.5315 106.116 92.9746 106.247C93.4176 106.382 93.8687 106.497 94.3225 106.621C93.8553 106.602 93.3827 106.554 92.9236 106.451C92.4617 106.36 92.0079 106.223 91.5649 106.068C91.1218 105.906 90.6895 105.718 90.2733 105.498C89.8571 105.278 89.4543 105.028 89.0864 104.736Z" fill="#CCE9FF"/>
<path d="M77.0863 125.331C77.0863 125.331 91.0278 134.839 105.015 132.758C105.015 132.758 99.7922 139.904 91.3366 141.101C91.3366 141.101 80.6925 136.3 70.7761 125.175C70.7761 125.178 75.3329 128.706 77.0863 125.331Z" fill="#CCE9FF"/>
<path d="M102.628 130.554C103.466 130.632 104.285 130.811 105.09 131.042C105.493 131.163 105.89 131.292 106.28 131.453C106.669 131.612 107.05 131.797 107.399 132.031C107.005 131.888 106.605 131.773 106.21 131.649L105.015 131.298C104.217 131.064 103.417 130.838 102.628 130.554Z" fill="#CCE9FF"/>
<path d="M102.628 129.37C103.466 129.447 104.285 129.627 105.09 129.858C105.493 129.979 105.89 130.108 106.28 130.269C106.669 130.428 107.05 130.613 107.399 130.846C107.005 130.704 106.605 130.589 106.21 130.465L105.015 130.113C104.217 129.88 103.417 129.654 102.628 129.37Z" fill="#CCE9FF"/>
<path d="M266.891 275.932H23.1087C21.4761 275.932 20.1389 274.595 20.1389 272.962V257.523C20.1389 255.89 21.4761 254.553 23.1087 254.553H266.894C268.527 254.553 269.864 255.89 269.864 257.523V272.962C269.861 274.595 268.524 275.932 266.891 275.932Z" fill="#F2F2F2"/>
<path d="M157.118 128.811C157.403 125.395 158.257 120.841 157.118 117.995C155.98 115.149 153.703 113.156 151.426 112.302C149.149 111.449 146.018 109.741 143.171 110.025C140.325 110.31 136.056 113.156 134.632 114.58C133.209 116.003 131.217 121.126 131.217 123.118C131.217 125.111 132.925 127.672 133.494 129.38C134.063 131.088 133.494 135.358 137.194 137.065C140.894 138.773 141.464 140.196 146.302 139.058C151.141 137.919 155.695 135.357 155.98 134.219C156.264 133.078 157.118 128.811 157.118 128.811Z" fill="#0E538C"/>
<path d="M145 135.161C159.905 135.161 172.102 147.358 172.102 162.263V207.299C172.102 209.179 170.566 210.714 168.686 210.714H121.314C119.434 210.714 117.898 209.179 117.898 207.299V162.263C117.898 147.358 130.095 135.161 145 135.161Z" fill="#E2E2E2"/>
<path d="M234.033 189.555H55.97V194.595H234.033V189.555Z" fill="#DCF2FF"/>
<path d="M221.232 194.598H68.7676V264.281H221.232V194.598Z" fill="#B6E7FF"/>
<path d="M164.707 173.756L167.01 136.491C159.358 136.509 148.037 138.488 148.037 138.488C146.3 138.488 143.459 138.488 141.724 138.488C141.724 138.488 124.783 133.765 124.096 139.466L127.221 175.56C132.138 188.266 129.78 185.337 134.775 186.771H154.699C164.016 183.718 166.111 184.174 164.707 173.756Z" fill="#0E538C"/>
<path d="M169.927 156.133L169.921 156.329L169.081 191.499C168.643 191.862 168.079 192.077 167.464 192.077H121.73C121.591 192.077 121.454 192.066 121.322 192.044L120.404 156.13H169.927V156.133Z" fill="#2A94F4"/>
<path d="M138.515 134.313L140.406 143.827L145.099 152.03L149.009 143.827L150.572 134.176L138.515 134.313Z" fill="#FCD2B1"/>
<path d="M155.776 125.242C155.776 135.572 153.987 139.624 147.5 141.995C145.851 142.597 144.084 142.538 142.398 142.046C136.056 140.193 134.222 135.489 134.222 125.242C134.222 118.669 138.075 116.572 144.025 116.572C149.978 116.572 155.776 118.669 155.776 125.242Z" fill="#FFE3CA"/>
<path d="M134.884 133.063C136.076 132.94 136.866 131.134 136.649 129.029C136.432 126.924 135.29 125.317 134.098 125.44C132.907 125.563 132.116 127.369 132.333 129.474C132.55 131.579 133.692 133.186 134.884 133.063Z" fill="#FFE3CA"/>
<path d="M165.007 136.998C171.967 135.911 190.364 123.9 164.255 118.653C164 115.071 164.255 111.65 164.255 111.65C164.277 111.618 212.084 120.269 166.546 150.37C155.456 144.742 165.007 136.998 165.007 136.998Z" fill="#0E538C"/>
<path d="M157.994 129.492C158.211 127.387 157.42 125.581 156.229 125.458C155.037 125.335 153.895 126.942 153.678 129.047C153.461 131.152 154.251 132.958 155.443 133.081C156.635 133.204 157.777 131.597 157.994 129.492Z" fill="#FFE3CA"/>
<path d="M171.301 158.592L170.013 189.528C170.013 190.321 169.65 191.029 169.081 191.497C168.643 191.859 168.079 192.074 167.464 192.074H121.73C121.591 192.074 121.454 192.063 121.322 192.042C120.108 191.846 119.182 190.793 119.182 189.526L117.896 158.59C117.896 157.183 119.037 156.041 120.444 156.041H168.753C168.981 156.041 169.199 156.071 169.411 156.127C169.588 156.176 169.757 156.24 169.921 156.323C170.74 156.753 171.301 157.61 171.301 158.592Z" fill="#2A94F4"/>
<path d="M144.517 178.887C147.182 178.887 149.342 176.727 149.342 174.062C149.342 171.397 147.182 169.236 144.517 169.236C141.852 169.236 139.691 171.397 139.691 174.062C139.691 176.727 141.852 178.887 144.517 178.887Z" fill="white"/>
<path d="M111.798 190.852H108.299C106.492 190.852 105.028 189.389 105.028 187.582V177.077H115.068V187.582C115.068 189.389 113.602 190.852 111.798 190.852Z" fill="#B6E7FF"/>
<path d="M110.46 175.855C110.297 175.869 110.125 175.799 109.982 175.7C109.837 175.6 109.719 175.466 109.62 175.318C109.427 175.02 109.322 174.663 109.338 174.268C109.351 173.86 109.558 173.447 109.792 173.176C110.025 172.894 110.246 172.719 110.366 172.574C110.493 172.432 110.549 172.349 110.603 172.19C110.656 172.032 110.681 171.822 110.681 171.599C110.694 171.164 110.514 170.643 110.366 170.018C110.665 170.133 110.93 170.289 111.175 170.504C111.416 170.716 111.629 170.998 111.765 171.326C111.902 171.65 111.972 172.016 111.932 172.416C111.913 172.614 111.849 172.827 111.763 173.02C111.669 173.213 111.545 173.385 111.422 173.525C111.164 173.801 110.925 173.965 110.772 174.097C110.614 174.231 110.517 174.319 110.434 174.473C110.348 174.634 110.291 174.859 110.278 175.096C110.272 175.334 110.275 175.595 110.46 175.855Z" fill="#B6E7FF"/>
<path d="M113.906 185.337V184.483C115.184 184.483 116.091 184.077 116.456 183.342C116.736 182.783 116.658 182.099 116.25 181.559C115.761 180.906 114.931 180.632 113.981 180.807L113.828 179.966C115.092 179.733 116.252 180.138 116.934 181.046C117.536 181.846 117.646 182.872 117.222 183.723C116.921 184.325 116.091 185.337 113.906 185.337Z" fill="#B6E7FF"/>
<path d="M181.419 175.181L179.36 175.557L177.348 164.551L177.998 162.276L179.408 164.172L181.419 175.181Z" fill="#2A94F4"/>
<path d="M188.162 177.518L186.129 177.015L188.809 166.151L190.331 164.341L190.842 166.651L188.162 177.518Z" fill="#DCF2FF"/>
<path d="M187.332 176.261L185.251 176.019L186.543 164.905L187.829 162.921L188.624 165.147L187.332 176.261Z" fill="#80D5FF"/>
<path d="M190.474 169.234L190.329 172.923L189.99 181.462L189.62 190.852H177.899L177.405 181.462L176.954 172.923L176.758 169.234H190.474Z" fill="#B6E7FF"/>
<path d="M190.329 172.923L189.99 181.462H177.405L176.954 172.923H190.329Z" fill="#80D5FF"/>
<path d="M152.28 121.411L155.41 127.957L157.118 120.272L152.28 121.411Z" fill="#0E538C"/>
<path d="M136.628 122.834C136.058 123.403 135.204 129.38 135.204 129.38L132.922 122.372L136.628 122.834Z" fill="#0E538C"/>
<path d="M221.155 194.679H68.8455V197.114H221.155V194.679Z" fill="#80D5FF"/>
<path d="M134.775 123.672C134.775 123.672 156.262 122.136 155.778 121.419C155.295 120.702 153.037 113.616 149.962 113.828C146.888 114.042 141.05 114.247 140.435 114.451C139.82 114.655 132.957 117.324 132.957 117.324L134.775 123.672Z" fill="#0E538C"/>
<path d="M164.159 113.828L159.387 113.121L151.396 109.432L147.825 110.85L155.837 116.389L164.707 118.747L164.159 113.828Z" fill="#FFE3CA"/>
<path d="M127.125 136.91C120.165 135.822 100.286 123.902 126.394 118.656C126.649 115.074 126.394 111.653 126.394 111.653C126.373 111.62 79.597 121.397 125.135 151.498C136.228 145.867 127.125 136.91 127.125 136.91Z" fill="#0E538C"/>
<path d="M126.491 113.828L131.265 113.121L139.256 109.432L142.825 110.85L134.812 116.389L125.943 118.747L126.491 113.828Z" fill="#FFE3CA"/>
<path d="M145.975 104.14L153.082 94.7602L154.245 93.2269L154.632 95.2059L155.308 98.6671L153.633 98.1166L165.598 85.9447L167.518 87.9156L155.021 99.5425L153.598 100.866L153.343 98.992L152.87 95.4986L154.42 95.9443L145.975 104.14Z" fill="#FFBE55"/>
<path d="M139.818 104.14L128.215 92.8779L130.344 92.2656L129.692 97.0667L129.343 99.6445L127.388 97.824L110.216 81.8471L112.853 79.1378L129.297 95.8638L126.993 96.621L127.922 91.8628L128.454 89.1454L130.052 91.2506L139.818 104.14Z" fill="#FFBE55"/>
<path d="M39.8159 261.564C43.6021 261.564 45.1997 258.54 45.8308 255.332C46.5396 251.712 46.0187 247.861 46.0187 247.861H33.6132C33.6132 247.861 33.5944 248.009 33.5675 248.27C33.3366 250.547 32.5901 261.564 39.8159 261.564Z" fill="#B6E7FF"/>
<path d="M33.6132 247.861C33.6132 248.133 36.3896 248.353 39.8159 248.353C43.2422 248.353 46.0187 248.133 46.0187 247.861C46.0187 247.59 43.2422 247.37 39.8159 247.37C36.3896 247.37 33.6132 247.59 33.6132 247.861Z" fill="#85DDFF"/>
<path d="M23.0201 213.47C23.0201 213.47 29.5613 223.424 33.487 229.497C37.4127 235.571 38.4412 236.833 38.9084 238.796C39.3756 240.759 39.7972 248.001 39.7972 248.001H40.0872C40.0872 248.001 39.9851 241.855 39.6334 239.784C39.2924 237.784 39.6575 237.067 39.9395 234.964C40.2188 232.862 40.5947 229.497 38.468 227.161C36.3413 224.825 36.9025 222.535 36.1561 220.993C35.4096 219.452 29.615 217.583 28.8658 215.994C28.1139 214.404 24.8407 213.424 23.0201 213.47Z" fill="#2A94F4"/>
<path d="M23.0201 213.469C23.0201 213.469 25.077 215.806 26.4787 216.6C27.8803 217.395 28.5355 216.694 29.6096 218.609C30.6837 220.523 30.7266 221.367 31.7094 222.347C32.6922 223.327 33.8602 223.375 33.9542 225.523C34.0482 227.671 33.487 229.495 33.487 229.495C33.487 229.495 23.439 213.982 23.0201 213.469Z" fill="#41AAF7"/>
<path d="M39.2763 248.001H38.9836C38.9836 248.001 38.895 246.011 38.1056 245.045C37.5954 244.422 35.4311 243.713 33.2883 242.864C32.1095 242.397 30.9388 241.887 30.0554 241.326C27.5662 239.744 25.1952 234.65 24.9911 233.743C24.9186 233.426 24.8864 233.235 24.8891 233.104V233.101C24.8944 232.857 25.0153 232.819 25.2247 232.575C25.3241 232.456 25.6275 232.497 25.9981 232.61C27.0721 232.937 27.977 233.67 28.5382 234.642C29.0565 235.542 29.8862 236.664 30.9039 236.935C32.66 237.405 32.515 237.695 33.1621 239.481C33.8093 241.267 35.4418 241.559 37.4906 243.667C39.5394 245.775 39.2763 248.001 39.2763 248.001Z" fill="#2A94F4"/>
<path d="M33.2883 242.864C32.1095 242.397 30.9388 241.887 30.0554 241.326C27.5662 239.744 25.1952 234.65 24.9911 233.743C24.9186 233.426 24.8864 233.235 24.8891 233.104C24.8971 233.163 25.0126 233.968 26.3068 234.505C27.6521 235.061 27.9153 235.061 28.0925 235.91C28.267 236.758 28.4147 237.666 29.1182 237.843C29.8218 238.017 30.2594 237.228 30.8153 238.517C31.3711 239.803 31.6369 240.243 32.1471 240.418C32.6573 240.593 33.0467 240.329 33.1594 241.326C33.2319 241.935 33.2695 242.51 33.2883 242.864Z" fill="#41AAF7"/>
<path d="M41.4271 248.001H41.7735C41.7735 248.001 42.4528 235.679 43.3873 234.535C43.9914 233.796 45.9811 232.473 48.516 231.468C49.9123 230.915 51.3005 230.311 52.345 229.645C55.2934 227.774 58.1021 221.74 58.3411 220.666C58.427 220.293 58.4646 220.064 58.4619 219.909V219.903C58.4565 219.613 58.3115 219.57 58.0645 219.28C57.9463 219.138 57.5865 219.189 57.1488 219.321C55.8787 219.707 54.8047 220.577 54.1414 221.729C53.5265 222.793 52.5437 224.124 51.3408 224.444C49.2598 225 49.4343 225.343 48.6663 227.459C47.9011 229.575 45.965 229.919 43.5403 232.416C41.1156 234.916 41.4271 248.001 41.4271 248.001Z" fill="#2A94F4"/>
<path d="M48.5187 231.468C49.915 230.915 51.3032 230.311 52.3477 229.645C55.2961 227.774 58.1048 221.74 58.3438 220.666C58.4297 220.293 58.4673 220.064 58.4646 219.909C58.4565 219.978 58.3196 220.934 56.7837 221.568C55.1914 222.226 54.8772 222.226 54.6704 223.233C54.4637 224.237 54.2865 225.314 53.4567 225.521C52.6243 225.727 52.1034 224.793 51.4482 226.318C50.7877 227.843 50.4735 228.364 49.8693 228.571C49.2652 228.778 48.8033 228.466 48.669 229.648C48.5885 230.365 48.5428 231.049 48.5187 231.468Z" fill="#41AAF7"/>
<path d="M39.8159 261.564C43.6021 261.564 45.1997 258.54 45.8308 255.332C42.1198 253.925 37.4449 251.669 33.5675 248.27C33.3366 250.547 32.5901 261.564 39.8159 261.564Z" fill="#CCE9FF"/>
<path d="M252.351 261.564C257.442 261.564 259.593 257.496 260.439 253.183C261.395 248.318 260.694 243.135 260.694 243.135H244.011C244.011 243.135 243.984 243.332 243.949 243.686C243.635 246.747 242.631 261.564 252.351 261.564Z" fill="#B6E7FF"/>
<path d="M244.008 243.135C244.008 243.501 247.743 243.796 252.351 243.796C256.959 243.796 260.694 243.501 260.694 243.135C260.694 242.77 256.959 242.475 252.351 242.475C247.743 242.475 244.008 242.77 244.008 243.135Z" fill="#85DDFF"/>
<path d="M252.689 243.323H253.156C253.156 243.323 254.069 226.753 255.329 225.215C256.14 224.221 258.817 222.441 262.227 221.09C264.104 220.346 265.97 219.535 267.377 218.639C271.341 216.12 275.119 208.008 275.444 206.561C275.559 206.056 275.607 205.752 275.605 205.543V205.538C275.597 205.148 275.403 205.089 275.07 204.697C274.909 204.506 274.426 204.574 273.838 204.753C272.127 205.274 270.685 206.445 269.791 207.992C268.964 209.423 267.643 211.211 266.024 211.644C263.226 212.39 263.46 212.855 262.426 215.701C261.397 218.547 258.795 219.012 255.533 222.368C252.268 225.725 252.689 243.323 252.689 243.323Z" fill="#2A94F4"/>
<path d="M262.224 221.087C264.101 220.344 265.968 219.533 267.375 218.636C271.338 216.117 275.116 208.005 275.441 206.558C275.556 206.053 275.605 205.75 275.602 205.54C275.591 205.634 275.406 206.92 273.341 207.772C271.198 208.655 270.779 208.655 270.497 210.008C270.218 211.359 269.982 212.806 268.865 213.086C267.745 213.365 267.047 212.105 266.161 214.157C265.275 216.208 264.85 216.907 264.037 217.186C263.223 217.465 262.603 217.046 262.423 218.633C262.318 219.605 262.257 220.524 262.224 221.087Z" fill="#41AAF7"/>
<path d="M251.849 243.323H251.486C251.486 243.323 250.778 230.44 249.797 229.242C249.166 228.469 247.085 227.086 244.435 226.036C242.974 225.459 241.524 224.828 240.432 224.13C237.349 222.172 234.414 215.865 234.162 214.74C234.073 214.348 234.033 214.111 234.035 213.948V213.942C234.041 213.639 234.191 213.593 234.452 213.29C234.575 213.142 234.951 213.193 235.41 213.333C236.739 213.738 237.862 214.648 238.555 215.851C239.196 216.963 240.225 218.354 241.484 218.69C243.659 219.27 243.479 219.632 244.282 221.845C245.082 224.057 247.104 224.417 249.642 227.027C252.174 229.64 251.849 243.323 251.849 243.323Z" fill="#2A94F4"/>
<path d="M244.432 226.036C242.972 225.459 241.522 224.828 240.429 224.13C237.346 222.172 234.411 215.865 234.159 214.74C234.07 214.348 234.03 214.111 234.033 213.948C234.041 214.023 234.186 215.019 235.791 215.682C237.459 216.37 237.784 216.37 238.001 217.422C238.219 218.472 238.401 219.597 239.271 219.815C240.141 220.032 240.686 219.052 241.374 220.647C242.064 222.242 242.392 222.784 243.025 223.002C243.659 223.219 244.14 222.892 244.279 224.127C244.36 224.884 244.408 225.596 244.432 226.036Z" fill="#41AAF7"/>
<path d="M252.351 261.564C257.442 261.564 259.593 257.496 260.439 253.183C255.447 251.29 249.161 248.256 243.946 243.686C243.635 246.747 242.631 261.564 252.351 261.564Z" fill="#CCE9FF"/>
<path d="M226.716 190.702L225.864 189.198L226.514 188.167L225.835 187.144L226.514 186.121L225.153 185.098L225.835 184.077L225.153 183.054L225.835 182.031L225.153 181.011L225.835 179.988L225.153 178.965L226.514 177.945L225.835 176.921L226.514 175.901L225.835 174.881L226.514 173.86L225.835 172.84L226.514 171.82L225.835 170.797L226.514 169.776L225.835 168.753L226.514 167.733L225.835 166.71L227.196 165.689L226.514 164.669L227.196 163.646L226.514 162.626L227.196 161.605L226.514 160.582L227.196 159.562L226.514 158.541L227.196 157.521L226.514 156.498L227.196 155.478L226.514 154.457L227.196 153.437L226.173 152.416L226.514 151.396L225.835 150.376L226.514 149.353L225.835 148.332L226.514 147.312L225.835 146.292L226.514 145.274L225.835 144.253L226.514 143.233L225.835 142.213L226.514 141.19L225.835 140.169L226.514 139.152L225.835 138.131L226.514 137.111L225.835 136.093L226.514 135.073L225.835 134.052L226.514 133.035L225.835 132.012L226.514 130.991L225.835 129.971L226.514 128.953L225.835 127.933L226.514 126.915L226.173 125.898L227.196 124.875L226.514 123.854L227.196 122.834L226.514 121.813L227.196 120.793L226.514 119.773L227.196 118.752L226.514 117.732L227.196 116.712L226.514 115.691L227.876 114.671L227.196 113.65L227.513 112.85L227.808 112.88L227.685 112.872L197.852 112.294L198.65 113.634H198.666L198.679 113.656L197.997 114.679L198.677 115.705L197.313 116.725L197.992 117.751L197.307 118.768L197.987 119.794L197.305 120.815L197.984 121.838L197.299 122.858L197.979 123.884L197.297 124.901L197.973 125.924L196.612 126.945L197.289 127.968L196.607 128.988L197.286 130.009L196.604 131.029L197.281 132.052L196.598 133.072L197.278 134.095L196.596 135.116L197.272 136.139L196.59 137.157L197.27 138.18L196.588 139.2L197.264 140.223L196.582 141.243L197.262 142.264L196.58 143.284L197.256 144.307L196.574 145.328L197.254 146.348L196.569 147.368L197.248 148.391L196.566 149.412L197.246 150.432L196.561 151.452L197.922 152.473L197.238 153.493L197.917 154.516L197.235 155.534L197.914 156.557L197.23 157.575L197.909 158.595L197.227 159.615L197.903 160.636L197.221 161.656L197.901 162.679L197.219 163.697L197.895 164.717L197.213 165.735L197.893 166.755L196.529 167.773L197.208 168.793L196.526 169.814L197.203 170.834L196.521 171.855L197.2 172.878L196.518 173.895L197.195 174.916L196.513 175.933L197.192 176.951L196.51 177.971L197.187 178.994L195.484 180.012L196.163 181.032L195.479 182.053L196.158 183.073L195.476 184.094L196.835 185.117L196.491 186.134L197.17 187.157L196.488 188.175L197.162 189.193L196.33 190.616L226.716 190.702Z" fill="#CCE9FF"/>
<path d="M198.489 113.363C200.881 113.331 203.274 113.331 205.666 113.331L212.844 113.371L220.019 113.473L223.606 113.546L227.194 113.648L223.603 113.677L220.016 113.68L212.839 113.64L205.664 113.538C203.274 113.492 200.881 113.444 198.489 113.363Z" fill="#B4E0FC"/>
<path d="M198.677 115.705C200.997 115.648 203.317 115.621 205.637 115.6L212.597 115.565L219.557 115.592L223.037 115.627L226.517 115.691L223.037 115.758L219.557 115.799L212.597 115.834L205.637 115.807C203.314 115.783 200.997 115.758 198.677 115.705Z" fill="#B4E0FC"/>
<path d="M197.732 119.74C200.13 119.687 202.53 119.665 204.928 119.646L212.124 119.622L219.321 119.663L222.919 119.703L226.517 119.773L222.919 119.834L219.321 119.867L212.124 119.888L204.928 119.848C202.53 119.826 200.13 119.8 197.732 119.74Z" fill="#B4E0FC"/>
<path d="M197.992 117.751C200.368 117.694 202.745 117.668 205.124 117.643L212.256 117.608L219.388 117.635L222.954 117.67L226.519 117.735L222.954 117.802L219.388 117.842L212.256 117.877L205.124 117.85C202.745 117.829 200.368 117.804 197.992 117.751Z" fill="#B4E0FC"/>
<path d="M197.984 121.838C200.361 121.781 202.74 121.752 205.116 121.728L212.248 121.69L219.38 121.714L222.946 121.749L226.512 121.811L222.946 121.881L219.38 121.921L212.248 121.958L205.116 121.934C202.737 121.915 200.361 121.891 197.984 121.838Z" fill="#B4E0FC"/>
<path d="M197.299 122.858C199.791 122.802 202.283 122.772 204.772 122.748L212.245 122.71L219.718 122.734L223.456 122.769L227.193 122.831L223.456 122.901L219.718 122.941L212.248 122.981L204.775 122.957C202.283 122.936 199.791 122.912 197.299 122.858Z" fill="#B4E0FC"/>
<path d="M197.364 127.936C199.775 127.82 202.186 127.734 204.598 127.654L211.834 127.442L219.071 127.294L222.69 127.243L226.31 127.219L222.693 127.374L219.076 127.501L211.84 127.71L204.603 127.858C202.192 127.895 199.778 127.93 197.364 127.936Z" fill="#B4E0FC"/>
<path d="M196.679 128.953C199.136 128.857 201.593 128.787 204.05 128.722L211.423 128.564L218.797 128.467L222.484 128.44L226.17 128.443L222.484 128.572L218.797 128.674L211.423 128.833L204.05 128.929C201.596 128.951 199.139 128.967 196.679 128.953Z" fill="#B4E0FC"/>
<path d="M197.364 187.227C199.791 187.08 202.219 186.961 204.646 186.849L211.931 186.54L219.218 186.293L222.862 186.191L226.509 186.118L222.868 186.322L219.227 186.497L211.942 186.803L204.654 187.047C202.227 187.125 199.797 187.19 197.364 187.227Z" fill="#B4E0FC"/>
<path d="M197.364 189.241C199.74 189.187 202.119 189.163 204.496 189.142L211.627 189.115L218.759 189.15L222.325 189.19L225.891 189.257L222.325 189.322L218.759 189.357L211.627 189.383L204.496 189.349C202.119 189.324 199.743 189.298 197.364 189.241Z" fill="#B4E0FC"/>
<path d="M196.679 188.248C199.106 188.1 201.534 187.982 203.964 187.869L211.252 187.563L218.542 187.319L222.188 187.219L225.835 187.147L222.194 187.351L218.55 187.525L211.262 187.831L203.972 188.076C201.542 188.146 199.112 188.21 196.679 188.248Z" fill="#B4E0FC"/>
<path d="M197.973 125.924C200.323 125.865 202.672 125.839 205.022 125.814L212.071 125.777L219.119 125.801L222.645 125.836L226.171 125.898L222.645 125.967L219.119 126.008L212.071 126.045L205.022 126.021C202.675 126.002 200.326 125.978 197.973 125.924Z" fill="#B4E0FC"/>
<path d="M197.364 140.239C199.74 140.185 202.119 140.161 204.496 140.14L211.627 140.113L218.759 140.148L222.325 140.188L225.891 140.255L222.325 140.32L218.759 140.355L211.627 140.381L204.496 140.347C202.119 140.325 199.743 140.298 197.364 140.239Z" fill="#B4E0FC"/>
<path d="M196.679 141.26C199.171 141.203 201.663 141.174 204.152 141.149L211.625 141.112L219.098 141.136L222.835 141.171L226.573 141.233L222.835 141.303L219.098 141.343L211.625 141.38L204.152 141.356C201.663 141.337 199.171 141.313 196.679 141.26Z" fill="#B4E0FC"/>
<path d="M197.305 138.228C199.681 138.174 202.06 138.15 204.437 138.129L211.568 138.102L218.7 138.137L222.266 138.177L225.832 138.244L222.266 138.309L218.7 138.343L211.568 138.37L204.437 138.335C202.06 138.311 199.684 138.284 197.305 138.228Z" fill="#B4E0FC"/>
<path d="M197.305 146.284C199.681 146.23 202.06 146.206 204.437 146.184L211.568 146.157L218.7 146.192L222.266 146.233L225.832 146.3L222.266 146.364L218.7 146.399L211.568 146.426L204.437 146.391C202.06 146.367 199.684 146.34 197.305 146.284Z" fill="#B4E0FC"/>
<path d="M197.305 136.131C199.681 136.077 202.06 136.053 204.437 136.031L211.568 136.005L218.7 136.04L222.266 136.08L225.832 136.147L222.266 136.211L218.7 136.246L211.568 136.273L204.437 136.238C202.06 136.214 199.684 136.187 197.305 136.131Z" fill="#B4E0FC"/>
<path d="M197.997 114.679C200.487 114.622 202.978 114.596 205.468 114.574L212.938 114.542L220.408 114.571L224.143 114.609L227.878 114.674L224.143 114.741L220.408 114.778L212.935 114.81L205.465 114.781C202.976 114.759 200.487 114.735 197.997 114.679Z" fill="#B4E0FC"/>
<path d="M197.305 132.103C199.681 132.049 202.06 132.025 204.437 132.004L211.568 131.977L218.7 132.012L222.266 132.052L225.832 132.119L222.266 132.184L218.7 132.219L211.568 132.245L204.437 132.21C202.06 132.186 199.684 132.159 197.305 132.103Z" fill="#B4E0FC"/>
<path d="M197.305 134.128C199.681 134.074 202.06 134.05 204.437 134.028L211.568 134.001L218.7 134.036L222.266 134.077L225.832 134.144L222.266 134.208L218.7 134.243L211.568 134.27L204.437 134.235C202.06 134.211 199.684 134.184 197.305 134.128Z" fill="#B4E0FC"/>
<path d="M196.738 133.105C199.219 133.051 201.7 133.029 204.182 133.011L211.625 132.989L219.068 133.029L222.79 133.072L226.511 133.142L222.79 133.204L219.068 133.236L211.625 133.258L204.182 133.217C201.7 133.193 199.219 133.164 196.738 133.105Z" fill="#B4E0FC"/>
<path d="M196.835 185.117C199.195 185.06 201.555 185.033 203.916 185.009L210.997 184.974L218.077 185.001L221.616 185.036L225.155 185.101L221.616 185.168L218.077 185.208L210.997 185.243L203.916 185.216C201.555 185.195 199.195 185.17 196.835 185.117Z" fill="#B4E0FC"/>
<path d="M196.158 183.073C198.575 183.017 200.992 182.987 203.408 182.966L210.658 182.928L217.908 182.955L221.533 182.99L225.158 183.054L221.533 183.122L217.908 183.162L210.658 183.197L203.408 183.17C200.992 183.154 198.575 183.127 196.158 183.073Z" fill="#B4E0FC"/>
<path d="M195.479 182.053C198.008 181.997 200.538 181.967 203.067 181.945L210.656 181.908L218.244 181.935L222.038 181.97L225.832 182.034L222.038 182.101L218.244 182.142L210.656 182.176L203.067 182.15C200.538 182.131 198.008 182.107 195.479 182.053Z" fill="#B4E0FC"/>
<path d="M197.305 148.408C199.681 148.354 202.06 148.33 204.437 148.308L211.568 148.281L218.7 148.316L222.266 148.357L225.832 148.424L222.269 148.491L218.703 148.526L211.571 148.553L204.439 148.518C202.06 148.493 199.684 148.467 197.305 148.408Z" fill="#B4E0FC"/>
<path d="M197.305 150.432C199.681 150.378 202.06 150.354 204.437 150.333L211.568 150.306L218.7 150.341L222.266 150.381L225.832 150.448L222.266 150.513L218.7 150.548L211.568 150.574L204.437 150.54C202.06 150.518 199.684 150.488 197.305 150.432Z" fill="#B4E0FC"/>
<path d="M197.917 154.516C200.299 154.457 202.683 154.425 205.065 154.398L212.213 154.353L219.364 154.369L222.938 154.398L226.512 154.457L222.938 154.53L219.364 154.575L212.216 154.621L205.065 154.605C202.683 154.586 200.301 154.567 197.917 154.516Z" fill="#B4E0FC"/>
<path d="M196.561 151.453C199.031 151.477 201.499 151.533 203.967 151.592L211.37 151.802L218.773 152.073L222.473 152.231L226.173 152.416L222.47 152.363L218.767 152.28L211.364 152.07L203.961 151.799C201.494 151.694 199.029 151.587 196.561 151.453Z" fill="#B4E0FC"/>
<path d="M197.914 156.557C200.299 156.498 202.681 156.466 205.065 156.439L212.216 156.393L219.366 156.409L222.94 156.439L226.517 156.498L222.943 156.57L219.369 156.616L212.218 156.662L205.068 156.646C202.681 156.627 200.296 156.605 197.914 156.557Z" fill="#B4E0FC"/>
<path d="M197.229 157.575C199.727 157.516 202.224 157.483 204.721 157.459L212.213 157.414L219.704 157.43L223.45 157.459L227.196 157.518L223.45 157.591L219.704 157.634L212.213 157.679L204.721 157.661C202.224 157.647 199.727 157.626 197.229 157.575Z" fill="#B4E0FC"/>
<path d="M197.364 162.709C199.74 162.655 202.119 162.631 204.496 162.609L211.627 162.583L218.759 162.617L222.325 162.658L225.891 162.725L222.325 162.789L218.759 162.824L211.627 162.851L204.496 162.816C202.119 162.795 199.743 162.768 197.364 162.709Z" fill="#B4E0FC"/>
<path d="M196.679 163.729C199.171 163.673 201.663 163.643 204.152 163.619L211.625 163.581L219.098 163.606L222.835 163.641L226.573 163.702L222.835 163.772L219.098 163.812L211.625 163.85L204.152 163.826C201.663 163.807 199.171 163.783 196.679 163.729Z" fill="#B4E0FC"/>
<path d="M197.305 160.698C199.681 160.644 202.06 160.62 204.437 160.598L211.568 160.571L218.7 160.606L222.266 160.647L225.832 160.714L222.266 160.778L218.7 160.813L211.568 160.84L204.437 160.805C202.06 160.781 199.684 160.754 197.305 160.698Z" fill="#B4E0FC"/>
<path d="M196.349 179.494C198.811 179.4 201.271 179.333 203.733 179.274L211.117 179.123L218.504 179.037L222.199 179.016L225.894 179.024L222.202 179.148L218.51 179.244L211.125 179.392L203.738 179.478C201.276 179.497 198.814 179.51 196.349 179.494Z" fill="#B4E0FC"/>
<path d="M195.484 180.012C198.014 179.956 200.543 179.926 203.072 179.902L210.661 179.864L218.249 179.889L222.043 179.924L225.837 179.985L222.043 180.055L218.249 180.095L210.661 180.133L203.072 180.109C200.543 180.09 198.014 180.066 195.484 180.012Z" fill="#B4E0FC"/>
<path d="M197.305 176.991C199.681 176.938 202.06 176.913 204.437 176.892L211.568 176.865L218.7 176.9L222.266 176.94L225.832 177.007L222.266 177.072L218.7 177.107L211.568 177.134L204.437 177.099C202.06 177.077 199.684 177.05 197.305 176.991Z" fill="#B4E0FC"/>
<path d="M197.305 172.91C199.681 172.856 202.06 172.832 204.437 172.81L211.568 172.784L218.7 172.819L222.266 172.859L225.832 172.926L222.266 172.99L218.7 173.025L211.568 173.052L204.437 173.017C202.06 172.996 199.684 172.966 197.305 172.91Z" fill="#B4E0FC"/>
<path d="M197.305 175.039C199.681 174.985 202.06 174.961 204.437 174.94L211.568 174.913L218.7 174.948L222.266 174.988L225.832 175.055L222.266 175.12L218.7 175.155L211.568 175.181L204.437 175.147C202.06 175.122 199.684 175.096 197.305 175.039Z" fill="#B4E0FC"/>
<path d="M196.738 149.412C199.219 149.358 201.7 149.337 204.182 149.318L211.625 149.296L219.068 149.337L222.79 149.38L226.511 149.449L222.79 149.511L219.068 149.543L211.628 149.565L204.184 149.525C201.7 149.5 199.219 149.471 196.738 149.412Z" fill="#B4E0FC"/>
<path d="M197.305 166.876C199.681 166.822 202.06 166.798 204.437 166.777L211.568 166.75L218.7 166.785L222.266 166.825L225.832 166.892L222.266 166.957L218.7 166.992L211.568 167.019L204.437 166.984C202.06 166.962 199.684 166.935 197.305 166.876Z" fill="#B4E0FC"/>
<path d="M197.305 168.901C199.681 168.847 202.06 168.823 204.437 168.802L211.568 168.775L218.7 168.81L222.266 168.85L225.832 168.917L222.266 168.981L218.7 169.016L211.568 169.043L204.437 169.008C202.06 168.987 199.684 168.96 197.305 168.901Z" fill="#B4E0FC"/>
<path d="M196.738 167.88C199.219 167.827 201.7 167.805 204.182 167.786L211.625 167.765L219.068 167.805L222.79 167.848L226.511 167.918L222.79 167.98L219.068 168.012L211.625 168.034L204.182 167.993C201.7 167.969 199.219 167.94 196.738 167.88Z" fill="#B4E0FC"/>
<path d="M196.738 173.919C199.219 173.866 201.7 173.844 204.182 173.825L211.625 173.804L219.068 173.844L222.79 173.887L226.511 173.957L222.79 174.019L219.068 174.051L211.625 174.073L204.182 174.032C201.7 174.008 199.219 173.979 196.738 173.919Z" fill="#B4E0FC"/>
<path d="M196.738 171.881C199.219 171.828 201.7 171.806 204.182 171.787L211.625 171.766L219.068 171.806L222.79 171.849L226.511 171.919L222.79 171.981L219.068 172.013L211.625 172.034L204.182 171.994C201.7 171.97 199.219 171.94 196.738 171.881Z" fill="#B4E0FC"/>
<path d="M197.305 142.272C199.681 142.218 202.06 142.194 204.437 142.172L211.568 142.146L218.7 142.181L222.266 142.221L225.832 142.288L222.266 142.352L218.7 142.387L211.568 142.414L204.437 142.379C202.06 142.358 199.684 142.331 197.305 142.272Z" fill="#B4E0FC"/>
<path d="M197.305 144.297C199.681 144.243 202.06 144.219 204.437 144.197L211.568 144.17L218.7 144.205L222.266 144.245L225.832 144.313L222.266 144.377L218.7 144.412L211.568 144.439L204.437 144.404C202.06 144.382 199.684 144.353 197.305 144.297Z" fill="#B4E0FC"/>
<path d="M196.738 143.276C199.219 143.222 201.7 143.201 204.182 143.182L211.625 143.161L219.068 143.201L222.79 143.244L226.511 143.314L222.79 143.375L219.068 143.408L211.625 143.429L204.182 143.389C201.7 143.365 199.219 143.335 196.738 143.276Z" fill="#B4E0FC"/>
<path d="M164.814 66.8235C164.814 66.8235 172.861 79.1593 176.261 90.2249C176.261 90.2249 189.985 83.2998 195.476 83.5549C195.476 83.5549 189.66 65.7629 182.96 54.759C182.96 54.7643 168.992 65.3735 164.814 66.8235Z" fill="#B6E7FF"/>
<path d="M189.969 87.7787C189.405 88.1788 188.803 88.5252 188.194 88.8474C187.584 89.1723 186.951 89.4569 186.309 89.7201C185.664 89.9752 185.007 90.1954 184.335 90.3699C183.664 90.5417 182.979 90.6653 182.289 90.7136C182.625 90.6223 182.963 90.5659 183.291 90.4612C183.624 90.3806 183.951 90.2732 184.279 90.1712C184.929 89.951 185.576 89.7281 186.21 89.4704C186.846 89.218 187.474 88.9414 188.103 88.6621C188.417 88.5225 188.728 88.3775 189.037 88.2271C189.351 88.0848 189.657 87.9291 189.969 87.7787Z" fill="#CCE9FF"/>
<path d="M189.969 89.32C189.743 89.4999 189.496 89.653 189.254 89.8114C189.005 89.9591 188.752 90.0987 188.497 90.233C187.984 90.5015 187.45 90.7297 186.908 90.9257C186.363 91.1191 185.807 91.2882 185.24 91.4037C184.958 91.4655 184.671 91.5138 184.386 91.5568C184.099 91.5944 183.812 91.6185 183.524 91.6373C184.083 91.495 184.641 91.3715 185.189 91.2023C185.737 91.0439 186.282 90.8694 186.816 90.6733C187.356 90.4854 187.882 90.2679 188.409 90.045C188.935 89.8221 189.453 89.5805 189.969 89.32Z" fill="#CCE9FF"/>
<path d="M202.165 101.457C202.165 101.457 219.009 100.437 228.791 90.2276C228.791 90.2276 229.038 99.0753 223.088 105.2C223.088 105.2 211.735 107.923 197.082 105.2C197.079 105.2 202.844 105.2 202.165 101.457Z" fill="#B6E7FF"/>
<path d="M210.513 108.009C210.513 108.009 216.294 108.597 222.588 107.362Z" fill="#B6E7FF"/>
<path d="M214.439 109.295C214.439 109.295 217.991 109.888 222.586 108.597Z" fill="#B6E7FF"/>
<path d="M69.455 181.035L68.8455 181.943V180.122L69.455 181.035Z" fill="#E2E2E2"/>
</svg>
