<svg width="290" height="290" viewBox="0 0 290 290" fill="none" xmlns="http://www.w3.org/2000/svg">
<path d="M59.3426 85.7648C72.556 85.7648 83.2676 75.0532 83.2676 61.8398C83.2676 48.6264 72.556 37.9148 59.3426 37.9148C46.1292 37.9148 35.4176 48.6264 35.4176 61.8398C35.4176 75.0532 46.1292 85.7648 59.3426 85.7648Z" stroke="#D3D3D3" stroke-miterlimit="10" stroke-dasharray="12.17 12.17"/>
<path d="M80.099 47.3935C72.6879 50.5889 65.3037 54.4824 60.1212 60.6315C54.9388 66.7805 52.3342 75.5611 55.449 82.9454C59.6111 92.8 72.7953 98.5194 72.849 109.206C72.9027 116.859 65.7333 122.686 58.5101 125.452C51.287 128.218 43.312 129.238 36.7333 133.293C26.825 139.415 22.1796 151.283 20.2731 162.669C18.2861 174.483 19.0916 187.936 27.5768 196.502C38.1027 207.162 55.5296 205.954 70.4592 203.671C90.3564 200.637 110.173 197.066 129.99 193.521C173.436 185.707 216.856 177.894 260.302 170.106C264.947 169.274 269.807 168.361 273.593 165.542C281.112 159.983 281.756 148.464 277.38 140.274C273.003 132.084 264.92 126.472 256.892 121.639C248.863 116.806 240.378 112.241 234.39 105.125C228.375 98.0093 225.394 87.4565 229.932 79.3204C233.799 72.4463 242.069 68.7676 245.668 61.7592C250.42 52.5222 244.943 40.7611 236.323 34.8537C227.704 29 119.303 30.5037 80.099 47.3935Z" fill="#F0FAFF"/>
<path d="M269.781 176.981C279.42 182.217 285.972 192.42 285.972 204.182C285.972 221.259 272.143 235.088 255.066 235.088C241.908 235.088 230.657 226.844 226.2 215.244L269.781 176.981Z" fill="#CCEEFF"/>
<path d="M221.984 215.406C249.004 215.406 270.908 193.502 270.908 166.482C270.908 139.461 249.004 117.557 221.984 117.557C194.964 117.557 173.06 139.461 173.06 166.482C173.06 193.502 194.964 215.406 221.984 215.406Z" fill="#B0E1FF"/>
<path d="M221.984 263.175C221.367 263.175 220.856 262.665 220.856 262.047V166.481C220.856 165.864 221.367 165.354 221.984 165.354C222.602 165.354 223.112 165.864 223.112 166.481V262.074C223.112 262.665 222.602 263.175 221.984 263.175Z" fill="#CCEEFF"/>
<path d="M221.984 192.931C221.689 192.931 221.42 192.823 221.206 192.608L207.511 178.914C207.081 178.484 207.081 177.759 207.511 177.33C207.941 176.9 208.666 176.9 209.095 177.33L222.79 191.024C223.219 191.454 223.219 192.179 222.79 192.608C222.575 192.823 222.28 192.931 221.984 192.931Z" fill="#CCEEFF"/>
<path d="M221.984 205.658C221.689 205.658 221.42 205.551 221.206 205.336L207.511 191.642C207.081 191.212 207.081 190.487 207.511 190.057C207.941 189.628 208.666 189.628 209.095 190.057L222.79 203.752C223.219 204.181 223.219 204.906 222.79 205.336C222.575 205.551 222.28 205.658 221.984 205.658Z" fill="#CCEEFF"/>
<path d="M254.878 263.148C254.341 263.041 253.965 262.531 253.965 261.994V211.915C253.965 211.297 254.421 210.76 255.012 210.733C255.656 210.706 256.193 211.217 256.193 211.861V262.074C256.193 262.745 255.576 263.282 254.878 263.148Z" fill="#CCEEFF"/>
<path d="M255.066 219.192C254.77 219.192 254.502 219.084 254.287 218.869C253.857 218.44 253.857 217.715 254.287 217.285L264.168 207.404C264.598 206.974 265.323 206.974 265.753 207.404C266.182 207.833 266.182 208.558 265.753 208.988L255.871 218.843C255.656 219.057 255.361 219.192 255.066 219.192Z" fill="#CCEEFF"/>
<path d="M255.066 228.348C254.77 228.348 254.502 228.241 254.287 228.026C253.857 227.596 253.857 226.871 254.287 226.442L264.168 216.56C264.598 216.131 265.323 216.131 265.753 216.56C266.182 216.99 266.182 217.715 265.753 218.144L255.871 228.026C255.656 228.241 255.361 228.348 255.066 228.348Z" fill="#CCEEFF"/>
<path d="M277.675 281.595H12.325C10.6065 281.595 9.21021 280.199 9.21021 278.481V263.148C9.21021 261.43 10.6065 260.033 12.325 260.033H277.702C279.42 260.033 280.817 261.43 280.817 263.148V278.481C280.79 280.199 279.394 281.595 277.675 281.595Z" fill="#F2F2F2"/>
<path d="M52.4954 253.294C52.6565 257.214 58.0806 265.431 57.1676 266.988C56.2547 268.545 46.9102 271.016 44.9232 266.988C42.963 262.96 46.7223 256.167 46.7223 253.294C46.776 250.447 52.4954 253.294 52.4954 253.294Z" fill="#1371B7"/>
<path d="M68.15 254.126C70.513 258.234 82.838 264.061 83.6972 266.182C84.5565 268.304 63.4778 266.102 58.9935 260.705C60.6046 255.844 61.8667 251.978 61.8667 251.978L68.15 254.126Z" fill="#1371B7"/>
<path d="M59.1009 150.102C56.3083 152.116 48.924 169.059 51.3676 209.955C44.6009 234.282 46.4537 255.281 46.4537 255.281H52.8981C52.8981 255.281 59.45 215.056 60.8731 212.022C62.2963 208.988 76.662 165.864 71.3185 150.182C65.975 134.501 59.1009 150.102 59.1009 150.102Z" fill="#0B577C"/>
<path d="M67.2639 145.215C64.4713 147.229 62.9944 167.233 65.4379 208.156C58.6713 232.483 60.7926 255.307 60.7926 255.307H68.0157C68.0157 255.307 73.5203 213.257 74.9435 210.223C76.3666 207.189 90.7324 165.891 85.3889 150.209C80.0453 134.501 67.2639 145.215 67.2639 145.215Z" fill="#0B577C"/>
<path d="M77.4139 105.635C77.4139 105.635 86.7852 110.737 87.5908 117.96C88.3964 125.21 87.9936 144.678 86.7852 146.02C85.5769 147.363 83.0528 149.269 82.0593 146.96C81.0658 144.651 77.4139 105.635 77.4139 105.635Z" fill="#FFA42C"/>
<path d="M51.3407 102.977C53.1398 100.399 60.712 100.319 60.712 100.319C63.9611 99.4056 66.9417 98.9491 66.9417 98.9491C66.9417 98.9491 79.025 105.743 79.8574 107.998C80.663 110.254 82.7037 121.129 84.3417 123.841C85.2278 125.318 83.0796 128.782 80.9315 131.601C78.9176 134.259 78.8102 137.884 80.6898 140.65L84.3417 146.047C84.3417 146.047 68.4454 153.297 59.1009 150.129C57.8657 139.71 55.4759 122.928 51.7972 121.129C40.788 142.342 55.3148 155.929 55.3148 155.929C55.3148 155.929 54.6167 157.459 52.5491 159.393C21.9648 139.415 49.5685 105.528 51.3407 102.977Z" fill="#FFA42C"/>
<path d="M73.5472 125.72L80.1259 128.459L84.1806 116.349L77.6019 113.637L73.5472 125.72Z" fill="#1371B7"/>
<path d="M84.3417 124.297C87.188 131.547 91.6722 148.732 83.1065 148.732C81.0657 148.732 80.663 127.466 80.663 125.64C81.8981 124.297 84.3417 124.297 84.3417 124.297Z" fill="#FFBB69"/>
<path d="M84.3417 124.297C84.3417 124.297 81.8982 118.873 80.2602 119.33C78.6223 119.786 73.7352 120.699 73.7352 122.042C73.7352 123.384 80.663 125.667 80.663 125.667H83.1065L84.3417 124.297Z" fill="#FFD4B0"/>
<path d="M54.3482 162.481C51.7436 161.245 49.8908 158.023 55.9056 155.741C58.7788 154.667 59.2352 162.293 59.2352 162.293L54.3482 162.481Z" fill="#FFD4B0"/>
<path d="M61.9204 79.4009C60.9269 83.7509 65.3037 83.2139 69.6537 84.1806C74.0037 85.1472 78.3 82.4621 79.2935 78.1121C80.2871 73.7621 77.575 69.4658 73.225 68.4722C68.875 67.4787 62.8871 75.0509 61.9204 79.4009Z" fill="#1371B7"/>
<path d="M78.3806 100.426C78.3806 97.9824 79.3741 96.1296 80.663 96.1296C81.9519 96.1296 82.9454 97.9824 82.9454 100.426C82.9454 102.869 81.9519 104.722 80.663 104.722C79.3741 104.722 78.3806 102.869 78.3806 100.426ZM79.1862 100.426C79.1862 102.494 79.9649 103.917 80.663 103.917C81.3612 103.917 82.1399 102.494 82.1399 100.426C82.1399 98.3583 81.3612 96.9352 80.663 96.9352C79.9649 96.9352 79.1862 98.3583 79.1862 100.426Z" fill="#FFA42C"/>
<path d="M84.8251 96.3982C89.927 92.1019 97.714 81.6296 78.9177 78.1389C60.1214 74.6482 69.7881 95.3241 69.7881 95.3241L84.8251 96.3982Z" fill="#1371B7"/>
<path d="M70.701 92.8269C69.4658 95.0825 62.2695 101.769 62.2695 101.769L72.4732 122.471L71.9093 103.917L73.9501 97.3649L70.701 92.8269Z" fill="#FFC99C"/>
<path d="M71.9362 87.2685C69.4927 91.7528 70.2983 99.701 73.9501 102.171C77.602 104.642 83.1335 100.936 85.577 96.4519C88.0205 91.9676 87.0538 86.3287 83.402 83.8584C79.7501 81.388 74.3798 82.7843 71.9362 87.2685Z" fill="#FFE3CA"/>
<path d="M88.4232 88.9871C83.5362 93.9547 71.3186 89.9 71.3186 86.7315C71.3186 83.563 74.5677 79.025 74.5677 79.025H80.2603L88.4232 88.9871Z" fill="#1371B7"/>
<path d="M71.9094 92.1556C72.6953 92.1556 73.3325 90.9414 73.3325 89.4435C73.3325 87.9457 72.6953 86.7315 71.9094 86.7315C71.1234 86.7315 70.4862 87.9457 70.4862 89.4435C70.4862 90.9414 71.1234 92.1556 71.9094 92.1556Z" fill="#FFE3CA"/>
<path d="M68.4454 94.7871C68.4454 92.3436 69.439 90.4908 70.7278 90.4908C72.0167 90.4908 73.0102 92.3436 73.0102 94.7871C73.0102 97.2306 72.0167 99.0834 70.7278 99.0834C69.439 99.0834 68.4454 97.2306 68.4454 94.7871ZM69.251 94.7871C69.251 96.8547 70.0297 98.2778 70.7278 98.2778C71.426 98.2778 72.2047 96.8547 72.2047 94.7871C72.2047 92.7195 71.426 91.2963 70.7278 91.2963C70.0297 91.2963 69.251 92.7195 69.251 94.7871Z" fill="#FFA42C"/>
<path d="M230.281 85.1741H124.512C122.74 85.1741 121.29 83.7241 121.29 81.9519V57.6509C121.29 55.8787 122.74 54.4287 124.512 54.4287H230.281C232.054 54.4287 233.504 55.8787 233.504 57.6509V81.9519C233.504 83.7241 232.054 85.1741 230.281 85.1741Z" fill="#B0E1FF"/>
<path d="M228.482 81.8176C228.858 83.2676 228.563 86.463 232.564 88.8259C228.214 88.8259 224.132 86.2482 224.132 81.8445C224.884 79.2667 228.482 81.8176 228.482 81.8176Z" fill="#B0E1FF"/>
<path d="M104.507 113.879H139.227C140.381 113.879 141.348 112.939 141.348 111.757V95.8074C141.348 94.6528 140.408 93.6861 139.227 93.6861H104.507C103.353 93.6861 102.386 94.6259 102.386 95.8074V111.757C102.386 112.939 103.353 113.879 104.507 113.879Z" fill="#1371B7"/>
<path d="M107.407 110.522C107.031 111.972 107.327 115.168 103.326 117.531C107.676 117.531 111.757 114.953 111.757 110.549C111.032 107.998 107.407 110.522 107.407 110.522Z" fill="#1371B7"/>
<path d="M135.038 78.4343C139.62 78.4343 143.335 74.7195 143.335 70.1371C143.335 65.5546 139.62 61.8398 135.038 61.8398C130.456 61.8398 126.741 65.5546 126.741 70.1371C126.741 74.7195 130.456 78.4343 135.038 78.4343Z" fill="white"/>
<path d="M222.79 64.5518H151.069C150.317 64.5518 149.726 63.9342 149.726 63.2092C149.726 62.4574 150.344 61.8666 151.069 61.8666H222.79C223.542 61.8666 224.132 62.4842 224.132 63.2092C224.132 63.9342 223.542 64.5518 222.79 64.5518Z" fill="white"/>
<path d="M222.79 71.1574H151.069C150.317 71.1574 149.726 70.5398 149.726 69.8148C149.726 69.063 150.344 68.4722 151.069 68.4722H222.79C223.542 68.4722 224.132 69.0898 224.132 69.8148C224.132 70.5398 223.542 71.1574 222.79 71.1574Z" fill="white"/>
<path d="M189.144 77.7629H150.719C150.182 77.7629 149.726 77.3065 149.726 76.7694V76.0713C149.726 75.5342 150.182 75.0778 150.719 75.0778H189.144C189.682 75.0778 190.138 75.5342 190.138 76.0713V76.7694C190.138 77.3333 189.682 77.7629 189.144 77.7629Z" fill="white"/>
<path d="M112.966 106.709C114.567 106.709 115.866 105.411 115.866 103.809C115.866 102.208 114.567 100.909 112.966 100.909C111.364 100.909 110.066 102.208 110.066 103.809C110.066 105.411 111.364 106.709 112.966 106.709Z" fill="white"/>
<path d="M121.854 106.709C123.455 106.709 124.754 105.411 124.754 103.809C124.754 102.208 123.455 100.909 121.854 100.909C120.252 100.909 118.954 102.208 118.954 103.809C118.954 105.411 120.252 106.709 121.854 106.709Z" fill="white"/>
<path d="M130.768 106.709C132.37 106.709 133.668 105.411 133.668 103.809C133.668 102.208 132.37 100.909 130.768 100.909C129.167 100.909 127.868 102.208 127.868 103.809C127.868 105.411 129.167 106.709 130.768 106.709Z" fill="white"/>
</svg>
