<svg width="179" height="24" viewBox="0 0 179 24" fill="none" xmlns="http://www.w3.org/2000/svg">
<path d="M9.40799 23.04V4.25598H-1.46031e-05V-2.28882e-05H23.04V4.25598H13.664V23.04H9.40799ZM25.4972 23.04V-2.28882e-05H46.7132V4.25598H29.7532V9.37598H43.3852V13.664H29.7532V18.784H46.7132V23.04H25.4972ZM49.9332 23.04V-2.28882e-05H54.5732L68.7172 16.832V-2.28882e-05H72.9732V23.04H68.3332L54.1572 6.17598V23.04H49.9332ZM80.9102 23.04C80.0996 23.04 79.3529 22.8373 78.6702 22.432C78.0089 22.0266 77.4756 21.4933 77.0702 20.832C76.6649 20.1493 76.4622 19.4026 76.4622 18.592V16.832H80.6862V18.4C80.6862 18.5066 80.7182 18.6026 80.7822 18.688C80.8676 18.752 80.9636 18.784 81.0702 18.784H94.8622C94.9689 18.784 95.0542 18.752 95.1182 18.688C95.2036 18.6026 95.2462 18.5066 95.2462 18.4V14.016C95.2462 13.9093 95.2036 13.824 95.1182 13.76C95.0542 13.696 94.9689 13.664 94.8622 13.664H80.9102C80.0996 13.664 79.3529 13.4613 78.6702 13.056C78.0089 12.6506 77.4756 12.1173 77.0702 11.456C76.6649 10.7733 76.4622 10.016 76.4622 9.18398V4.44798C76.4622 3.63731 76.6649 2.90131 77.0702 2.23998C77.4756 1.55731 78.0089 1.01331 78.6702 0.607977C79.3529 0.202644 80.0996 -2.28882e-05 80.9102 -2.28882e-05H95.0542C95.8649 -2.28882e-05 96.6009 0.202644 97.2622 0.607977C97.9449 1.01331 98.4889 1.55731 98.8942 2.23998C99.2996 2.90131 99.5022 3.63731 99.5022 4.44798V6.20798H95.2462V4.63998C95.2462 4.53331 95.2036 4.44798 95.1182 4.38398C95.0542 4.29864 94.9689 4.25598 94.8622 4.25598H81.0702C80.9636 4.25598 80.8676 4.29864 80.7822 4.38398C80.7182 4.44798 80.6862 4.53331 80.6862 4.63998V9.02398C80.6862 9.13064 80.7182 9.21598 80.7822 9.27998C80.8676 9.34398 80.9636 9.37598 81.0702 9.37598H95.0542C95.8649 9.37598 96.6009 9.57864 97.2622 9.98398C97.9449 10.3893 98.4889 10.9333 98.8942 11.616C99.2996 12.2773 99.5022 13.024 99.5022 13.856V18.592C99.5022 19.4026 99.2996 20.1493 98.8942 20.832C98.4889 21.4933 97.9449 22.0266 97.2622 22.432C96.6009 22.8373 95.8649 23.04 95.0542 23.04H80.9102ZM103.06 23.04V4.44798C103.06 3.63731 103.262 2.90131 103.668 2.23998C104.073 1.55731 104.606 1.01331 105.268 0.607977C105.95 0.202644 106.697 -2.28882e-05 107.508 -2.28882e-05H121.62C122.43 -2.28882e-05 123.177 0.202644 123.86 0.607977C124.542 1.01331 125.086 1.55731 125.492 2.23998C125.897 2.90131 126.1 3.63731 126.1 4.44798V23.04H121.844V15.296H107.284V23.04H103.06ZM107.284 11.072H121.844V4.63998C121.844 4.53331 121.801 4.44798 121.716 4.38398C121.63 4.29864 121.534 4.25598 121.428 4.25598H107.668C107.561 4.25598 107.465 4.29864 107.38 4.38398C107.316 4.44798 107.284 4.53331 107.284 4.63998V11.072ZM129.778 23.04V-2.28882e-05H134.034V9.37598H139.442L147.314 -2.28882e-05H151.922V1.21598L143.282 11.52L151.954 21.824V23.04H147.314L139.442 13.664H134.034V23.04H129.778ZM159.63 23.04C158.819 23.04 158.072 22.8373 157.39 22.432C156.728 22.0266 156.195 21.4933 155.79 20.832C155.384 20.1493 155.182 19.4026 155.182 18.592V-2.28882e-05H159.406V18.4C159.406 18.5066 159.438 18.6026 159.502 18.688C159.587 18.752 159.683 18.784 159.79 18.784H173.55C173.656 18.784 173.752 18.752 173.838 18.688C173.923 18.6026 173.966 18.5066 173.966 18.4V-2.28882e-05H178.222V18.592C178.222 19.4026 178.019 20.1493 177.614 20.832C177.208 21.4933 176.664 22.0266 175.982 22.432C175.32 22.8373 174.584 23.04 173.774 23.04H159.63Z" fill="white"/>
</svg>
